{
.appVersion = "3343";
.formatVersion = 3;
DisplayStrings = (
""
);
date = "2025-02-10 08:31:00 +0000";
familyName = tragico;
fontMaster = (
{
id = m01;
metricValues = (
{
over = 16;
pos = 760;
},
{
over = 16;
pos = 700;
},
{
over = 16;
pos = 500;
},
{
over = -16;
},
{
over = -16;
pos = -220;
}
);
name = Regular;
visible = 1;
}
);
glyphs = (
{
color = 5;
glyphname = A;
kernLeft = A;
lastChange = "2025-04-19 10:08:39 +0000";
layers = (
{
anchors = (
{
name = bottom;
pos = (385,0);
},
{
name = top;
pos = (367,700);
}
);
backgroundImage = {
imagePath = "GLYPH/LETTRE/A copie.png";
locked = 1;
pos = (24,-8);
scale = (1.9381,1.9381);
};
layerId = m01;
shapes = (
{
closed = 1;
nodes = (
(463,69,ls),
(454,69,o),
(450,65,o),
(450,56,cs),
(450,13,ls),
(450,4,o),
(454,0,o),
(463,0,cs),
(695,0,ls),
(704,0,o),
(708,4,o),
(708,13,cs),
(708,56,ls),
(708,65,o),
(704,69,o),
(695,69,cs)
);
},
{
closed = 1;
nodes = (
(63,69,ls),
(54,69,o),
(50,65,o),
(50,56,cs),
(50,13,ls),
(50,4,o),
(54,0,o),
(63,0,cs),
(265,0,l),
(274,0,o),
(278,4,o),
(278,13,c),
(278,56,l),
(278,65,o),
(274,69,o),
(265,69,c)
);
},
{
closed = 1;
nodes = (
(352,700,o),
(350,700,o),
(347,693,c),
(122,56,l),
(187,56,l),
(358,540,l),
(534,68,l),
(623,68,l),
(388,693,l),
(385,700,o),
(382,700,o),
(366,700,c)
);
},
{
closed = 1;
nodes = (
(204,199,l),
(513,199,l),
(513,274,l),
(204,274,l)
);
}
);
width = 758;
},
{
associatedMasterId = m01;
backgroundImage = {
imagePath = "GLYPH/LETTRE/A copie.png";
locked = 1;
pos = (-11,-8);
scale = (1.9381,1.9381);
};
layerId = "D71146BD-B0F8-4722-878C-674C3419786C";
name = "26 mars 25 à 13:35";
shapes = (
{
closed = 1;
nodes = (
(428,69,ls),
(419,69,o),
(415,65,o),
(415,56,cs),
(415,13,ls),
(415,4,o),
(419,0,o),
(428,0,cs),
(660,0,ls),
(669,0,o),
(673,4,o),
(673,13,cs),
(673,56,ls),
(673,65,o),
(669,69,o),
(660,69,cs)
);
},
{
closed = 1;
nodes = (
(28,69,ls),
(19,69,o),
(15,65,o),
(15,56,cs),
(15,13,ls),
(15,4,o),
(19,0,o),
(28,0,cs),
(230,0,l),
(239,0,o),
(243,4,o),
(243,13,c),
(243,56,l),
(243,65,o),
(239,69,o),
(230,69,c)
);
},
{
closed = 1;
nodes = (
(78,56,l),
(152,56,l),
(323,526,l),
(499,68,l),
(604,68,l),
(361,700,l),
(305,700,l)
);
},
{
closed = 1;
nodes = (
(169,199,l),
(478,199,l),
(478,274,l),
(169,274,l)
);
}
);
width = 699;
},
{
anchors = (
{
name = bottom;
pos = (350,0);
},
{
name = top;
pos = (332,700);
}
);
associatedMasterId = m01;
backgroundImage = {
imagePath = "GLYPH/LETTRE/A copie.png";
locked = 1;
pos = (-11,-8);
scale = (1.9381,1.9381);
};
layerId = "CA29EBD6-FE8A-40EB-A86D-0F4378D18E4B";
name = "19 avr. 25 à 08:41";
shapes = (
{
closed = 1;
nodes = (
(428,69,ls),
(419,69,o),
(415,65,o),
(415,56,cs),
(415,13,ls),
(415,4,o),
(419,0,o),
(428,0,cs),
(660,0,ls),
(669,0,o),
(673,4,o),
(673,13,cs),
(673,56,ls),
(673,65,o),
(669,69,o),
(660,69,cs)
);
},
{
closed = 1;
nodes = (
(28,69,ls),
(19,69,o),
(15,65,o),
(15,56,cs),
(15,13,ls),
(15,4,o),
(19,0,o),
(28,0,cs),
(230,0,l),
(239,0,o),
(243,4,o),
(243,13,c),
(243,56,l),
(243,65,o),
(239,69,o),
(230,69,c)
);
},
{
closed = 1;
nodes = (
(87,56,l),
(152,56,l),
(323,540,l),
(499,68,l),
(588,68,l),
(350,700,l),
(314,700,l)
);
},
{
closed = 1;
nodes = (
(169,199,l),
(478,199,l),
(478,274,l),
(169,274,l)
);
}
);
width = 699;
}
);
metricLeft = O;
metricRight = O;
unicode = 65;
},
{
glyphname = AE;
lastChange = "2025-04-19 07:32:22 +0000";
layers = (
{
layerId = m01;
shapes = (
{
closed = 1;
nodes = (
(800,457,ls),
(800,466,o),
(796,470,o),
(787,470,cs),
(745,470,ls),
(736,470,o),
(732,466,o),
(732,457,cs),
(732,253,ls),
(732,244,o),
(736,240,o),
(745,240,cs),
(787,240,ls),
(796,240,o),
(800,244,o),
(800,253,cs)
);
},
{
closed = 1;
nodes = (
(433,26,l),
(513,26,l),
(513,680,l),
(433,680,l)
);
},
{
closed = 1;
nodes = (
(754,321,ls),
(763,321,o),
(767,325,o),
(767,334,cs),
(767,376,ls),
(767,385,o),
(763,389,o),
(754,389,cs),
(454,389,ls),
(445,389,o),
(441,385,o),
(441,376,cs),
(441,334,ls),
(441,325,o),
(445,321,o),
(454,321,cs)
);
},
{
closed = 1;
nodes = (
(881,475,o),
(867,471,o),
(891,471,cs),
(915,471,o),
(915,476,o),
(915,515,c),
(915,651,l),
(915,700,o),
(904,700,o),
(861,700,c),
(450,700,l),
(438,700,o),
(433,695,o),
(433,683,cs),
(433,648,ls),
(433,636,o),
(438,631,o),
(450,631,cs),
(811,631,l)
);
},
{
closed = 1;
nodes = (
(450,69,ls),
(438,69,o),
(433,64,o),
(433,52,cs),
(433,17,ls),
(433,5,o),
(438,0,o),
(450,0,c),
(861,0,l),
(904,0,o),
(915,0,o),
(915,49,c),
(915,185,l),
(915,224,o),
(915,229,o),
(891,229,cs),
(867,229,o),
(881,225,o),
(811,69,c)
);
},
{
closed = 1;
nodes = (
(204,253,l),
(513,253,l),
(513,321,l),
(204,321,l)
);
},
{
closed = 1;
nodes = (
(44,69,ls),
(35,69,o),
(31,65,o),
(31,56,cs),
(31,13,ls),
(31,4,o),
(35,0,o),
(44,0,cs),
(246,0,ls),
(255,0,o),
(259,4,o),
(259,13,cs),
(259,56,ls),
(259,65,o),
(255,69,o),
(246,69,cs)
);
},
{
closed = 1;
nodes = (
(333,700,o),
(331,700,o),
(328,693,c),
(103,56,l),
(168,56,l),
(371,631,l),
(477,631,l),
(477,700,l),
(347,700,l)
);
}
);
width = 965;
},
{
associatedMasterId = m01;
layerId = "2665167E-91AF-4A3E-AEEE-EC77CC233143";
name = "3 avr. 25 à 17:12";
shapes = (
{
closed = 1;
nodes = (
(800,457,ls),
(800,466,o),
(796,470,o),
(787,470,cs),
(745,470,ls),
(736,470,o),
(732,466,o),
(732,457,cs),
(732,253,ls),
(732,244,o),
(736,240,o),
(745,240,cs),
(787,240,ls),
(796,240,o),
(800,244,o),
(800,253,cs)
);
},
{
closed = 1;
nodes = (
(433,26,l),
(513,26,l),
(513,680,l),
(433,680,l)
);
},
{
closed = 1;
nodes = (
(754,321,ls),
(763,321,o),
(767,325,o),
(767,334,cs),
(767,376,ls),
(767,385,o),
(763,389,o),
(754,389,cs),
(454,389,ls),
(445,389,o),
(441,385,o),
(441,376,cs),
(441,334,ls),
(441,325,o),
(445,321,o),
(454,321,cs)
);
},
{
closed = 1;
nodes = (
(881,475,o),
(867,471,o),
(891,471,cs),
(915,471,o),
(915,476,o),
(915,515,c),
(915,651,l),
(915,700,o),
(904,700,o),
(861,700,c),
(450,700,l),
(438,700,o),
(433,695,o),
(433,683,cs),
(433,648,ls),
(433,636,o),
(438,631,o),
(450,631,cs),
(811,631,l)
);
},
{
closed = 1;
nodes = (
(410,69,ls),
(398,69,o),
(393,64,o),
(393,52,cs),
(393,17,ls),
(393,5,o),
(398,0,o),
(410,0,c),
(861,0,l),
(904,0,o),
(915,0,o),
(915,49,c),
(915,185,l),
(915,224,o),
(915,229,o),
(891,229,cs),
(867,229,o),
(881,225,o),
(811,69,c)
);
},
{
closed = 1;
nodes = (
(63,69,ls),
(54,69,o),
(50,65,o),
(50,56,cs),
(50,13,ls),
(50,4,o),
(54,0,o),
(63,0,cs),
(265,0,l),
(274,0,o),
(278,4,o),
(278,13,c),
(278,56,l),
(278,65,o),
(274,69,o),
(265,69,c)
);
},
{
closed = 1;
nodes = (
(468,700,l),
(367,700,ls),
(355,700,o),
(355,698,o),
(349,684,c),
(122,56,l),
(187,56,l),
(395,632,l),
(467,631,l)
);
},
{
closed = 1;
nodes = (
(204,199,l),
(513,199,l),
(513,274,l),
(204,274,l)
);
}
);
width = 965;
}
);
unicode = 198;
},
{
color = 5;
glyphname = B;
lastChange = "2025-04-19 10:04:48 +0000";
layers = (
{
backgroundImage = {
imagePath = "GLYPH/LETTRE/B copie.png";
locked = 1;
pos = (-37,-20);
scale = (1.386,1.386);
};
layerId = m01;
shapes = (
{
closed = 1;
nodes = (
(135,26,l),
(215,26,l),
(215,680,l),
(135,680,l)
);
},
{
closed = 1;
nodes = (
(511,0,o),
(582,78,o),
(582,198,cs),
(582,343,o),
(439,370,o),
(439,371,cs),
(439,372,o),
(558,413,o),
(558,513,cs),
(558,623,o),
(474,700,o),
(336,700,cs),
(62,700,l),
(50,700,o),
(45,695,o),
(45,683,cs),
(45,648,ls),
(45,636,o),
(50,631,o),
(62,631,cs),
(336,631,ls),
(420,631,o),
(476,583,o),
(476,513,cs),
(476,443,o),
(396,403,o),
(326,403,c),
(206,402,l),
(206,334,l),
(326,334,ls),
(427,334,o),
(498,281,o),
(498,191,cs),
(498,101,o),
(426,69,o),
(336,69,c),
(62,69,ls),
(50,69,o),
(45,64,o),
(45,52,cs),
(45,17,ls),
(45,5,o),
(50,0,o),
(62,0,c),
(337,0,ls)
);
}
);
width = 627;
},
{
associatedMasterId = m01;
backgroundImage = {
imagePath = "GLYPH/LETTRE/B copie.png";
locked = 1;
pos = (-12,-20);
scale = (1.386,1.386);
};
layerId = "AEDBE9FE-7A4C-4C89-95BD-C88E1308FAF0";
name = "14 avr. 25 à 11:33";
shapes = (
{
closed = 1;
nodes = (
(160,26,l),
(240,26,l),
(240,680,l),
(160,680,l)
);
},
{
closed = 1;
nodes = (
(536,0,o),
(607,78,o),
(607,198,cs),
(607,318,o),
(477,370,o),
(477,371,cs),
(477,372,o),
(583,413,o),
(583,513,cs),
(583,623,o),
(499,700,o),
(361,700,cs),
(87,700,l),
(75,700,o),
(70,695,o),
(70,683,cs),
(70,648,ls),
(70,636,o),
(75,631,o),
(87,631,cs),
(361,631,ls),
(445,631,o),
(501,583,o),
(501,513,cs),
(501,443,o),
(421,403,o),
(351,403,c),
(231,402,l),
(231,334,l),
(351,334,ls),
(452,334,o),
(523,281,o),
(523,191,cs),
(523,101,o),
(451,69,o),
(361,69,c),
(87,69,ls),
(75,69,o),
(70,64,o),
(70,52,cs),
(70,17,ls),
(70,5,o),
(75,0,o),
(87,0,c),
(362,0,ls)
);
}
);
width = 647;
}
);
metricLeft = n;
metricRight = n;
unicode = 66;
},
{
color = 5;
glyphname = C;
lastChange = "2025-04-19 10:07:38 +0000";
layers = (
{
background = {
shapes = (
{
closed = 0;
nodes = (
(546,53,l),
(616,209,o),
(602,213,o),
(626,213,cs),
(650,213,o),
(650,208,o),
(650,169,c),
(650,33,l),
(650,-16,o),
(639,-16,o),
(596,-16,cs)
);
}
);
};
backgroundImage = {
imagePath = "GLYPH/LETTRE/C copie.png";
locked = 1;
pos = (-94,-181);
scale = (18.3119,18.3119);
};
layerId = m01;
shapes = (
{
closed = 1;
nodes = (
(232,647,o),
(136,554,o),
(136,388,cs),
(136,197,o),
(232,53,o),
(408,53,cs),
(454,53,o),
(542,61,o),
(546,69,c),
(616,225,o),
(602,229,o),
(626,229,cs),
(650,229,o),
(650,224,o),
(650,185,c),
(650,49,l),
(650,12,o),
(639,6,o),
(596,0,cs),
(518,-11,o),
(489,-16,o),
(389,-16,c),
(191,-16,o),
(50,149,o),
(50,355,cs),
(50,548,o),
(192,716,o),
(409,716,cs),
(509,716,o),
(518,711,o),
(596,700,cs),
(639,694,o),
(650,688,o),
(650,651,c),
(650,515,l),
(650,476,o),
(650,471,o),
(626,471,cs),
(602,471,o),
(616,475,o),
(546,631,c),
(542,639,o),
(474,647,o),
(372,647,cs)
);
}
);
width = 700;
},
{
associatedMasterId = m01;
backgroundImage = {
imagePath = "GLYPH/LETTRE/C copie.png";
locked = 1;
pos = (-127,-181);
scale = (18.3119,18.3119);
};
layerId = "D9EC1372-30CC-4509-AE05-D1B713E37187";
name = "15 mars 25 à 11:36";
shapes = (
{
closed = 0;
nodes = (
(589,286,l),
(579,155,o),
(503,64,o),
(383,64,cs),
(255,64,o),
(118,188,o),
(118,386,cs),
(118,531,o),
(201,636,o),
(330,636,cs),
(410,636,o),
(496,583,o),
(547,491,c),
(606,579,l),
(545,662,o),
(453,716,o),
(347,716,cs),
(148,716,o),
(26,538,o),
(26,346,cs),
(26,149,o),
(177,-16,o),
(365,-16,cs),
(547,-16,o),
(659,126,o),
(678,296,c)
);
},
{
closed = 1;
nodes = (
(613,703,ls),
(613,712,o),
(609,716,o),
(600,716,cs),
(558,716,ls),
(549,716,o),
(545,712,o),
(545,703,cs),
(545,499,ls),
(545,490,o),
(549,486,o),
(558,486,cs),
(600,486,ls),
(609,486,o),
(613,490,o),
(613,499,cs),
(613,561,l)
);
}
);
width = 652;
},
{
associatedMasterId = m01;
backgroundImage = {
imagePath = "GLYPH/LETTRE/C copie.png";
locked = 1;
pos = (-127,-181);
scale = (18.3119,18.3119);
};
layerId = "E4198B24-9BC9-4B6C-A836-14D798F14819";
name = "17 mars 25 à 09:43";
shapes = (
{
closed = 1;
nodes = (
(613,499,ls),
(613,490,o),
(609,486,o),
(600,486,cs),
(558,486,ls),
(549,486,o),
(545,490,o),
(545,499,cs),
(545,703,ls),
(545,712,o),
(549,716,o),
(558,716,cs),
(600,716,ls),
(609,716,o),
(613,712,o),
(613,703,cs),
(613,561,l)
);
},
{
closed = 1;
nodes = (
(560,-16,o),
(365,-16,cs),
(177,-16,o),
(26,149,o),
(26,346,cs),
(26,538,o),
(148,716,o),
(347,716,cs),
(453,716,o),
(545,662,o),
(606,579,c),
(547,491,l),
(496,583,o),
(410,636,o),
(330,636,cs),
(201,636,o),
(118,531,o),
(118,386,cs),
(118,188,o),
(255,64,o),
(383,64,cs),
(493,64,o),
(567,141,o),
(585,255,c),
(587,267,o),
(592,267,o),
(606,267,cs),
(618,267,o),
(627,268,o),
(629,255,c),
(627,114,l),
(627,87,o)
);
}
);
width = 667;
},
{
associatedMasterId = m01;
backgroundImage = {
imagePath = "GLYPH/LETTRE/C copie.png";
locked = 1;
pos = (-127,-181);
scale = (18.3119,18.3119);
};
layerId = "EF475042-35F4-49E6-9508-899FF6E35E6C";
name = "25 mars 25 à 14:31";
shapes = (
{
closed = 1;
nodes = (
(613,499,ls),
(613,490,o),
(609,486,o),
(600,486,cs),
(558,486,ls),
(549,486,o),
(545,490,o),
(545,499,cs),
(545,703,ls),
(545,712,o),
(549,716,o),
(558,716,cs),
(600,716,ls),
(609,716,o),
(613,712,o),
(613,703,cs),
(613,561,l)
);
},
{
closed = 0;
nodes = (
(570,425,l),
(580,390,o),
(585,352,o),
(585,311,cs),
(585,155,o),
(481,53,o),
(374,53,cs),
(238,53,o),
(101,177,o),
(101,389,cs),
(101,544,o),
(207,647,o),
(317,647,cs),
(404,647,o),
(495,591,o),
(546,490,c),
(608,560,l),
(548,653,o),
(450,716,o),
(336,716,cs),
(137,716,o),
(15,538,o),
(15,346,cs),
(15,149,o),
(166,-16,o),
(354,-16,cs),
(554,-16,o),
(670,156,o),
(670,348,cs),
(670,381,o),
(666,414,o),
(658,445,c)
);
}
);
width = 667;
},
{
associatedMasterId = m01;
backgroundImage = {
imagePath = "GLYPH/LETTRE/C copie.png";
locked = 1;
pos = (-102,-181);
scale = (18.3119,18.3119);
};
layerId = "D4375059-D811-4710-B371-BB5F683E078F";
name = "10 avr. 25 à 11:02";
shapes = (
{
closed = 1;
nodes = (
(638,499,ls),
(638,490,o),
(635,486,o),
(625,486,cs),
(583,486,l),
(574,486,o),
(570,490,o),
(570,499,cs),
(570,687,ls),
(570,696,o),
(574,700,o),
(583,700,cs),
(625,700,ls),
(634,700,o),
(638,696,o),
(638,687,cs),
(638,561,l)
);
},
{
closed = 1;
nodes = (
(655,96,o),
(577,-16,o),
(379,-16,cs),
(181,-16,o),
(40,149,o),
(40,355,cs),
(40,548,o),
(162,716,o),
(361,716,cs),
(480,716,o),
(579,656,o),
(629,573,c),
(572,492,l),
(527,593,o),
(449,647,o),
(342,647,cs),
(202,647,o),
(126,554,o),
(126,388,cs),
(126,197,o),
(222,53,o),
(398,53,cs),
(529,53,o),
(604,134,o),
(617,265,c),
(659,265,l),
(659,106,l)
);
},
{
closed = 0;
nodes = (
(669,176,l),
(669,312,l),
(669,351,o),
(669,356,o),
(645,356,cs),
(621,356,o),
(635,352,o),
(565,196,c)
);
}
);
width = 699;
},
{
associatedMasterId = m01;
backgroundImage = {
imagePath = "GLYPH/LETTRE/C copie.png";
locked = 1;
pos = (-102,-181);
scale = (18.3119,18.3119);
};
layerId = "20A23872-4CC1-4E2D-824F-730CA3A3540B";
name = "14 avr. 25 à 11:34";
shapes = (
{
closed = 1;
nodes = (
(638,499,ls),
(638,490,o),
(635,486,o),
(625,486,cs),
(583,486,l),
(574,486,o),
(570,490,o),
(570,499,cs),
(570,687,ls),
(570,696,o),
(574,700,o),
(583,700,cs),
(625,700,ls),
(634,700,o),
(638,696,o),
(638,687,cs),
(638,561,l)
);
},
{
closed = 1;
nodes = (
(610,255,o),
(611,286,o),
(635,286,cs),
(659,286,o),
(659,281,o),
(659,242,c),
(659,109,l),
(657,95,o),
(577,-16,o),
(379,-16,cs),
(181,-16,o),
(40,149,o),
(40,355,cs),
(40,548,o),
(162,716,o),
(361,716,cs),
(480,716,o),
(579,656,o),
(629,573,c),
(572,492,l),
(527,593,o),
(449,647,o),
(342,647,cs),
(202,647,o),
(126,554,o),
(126,388,cs),
(126,197,o),
(222,53,o),
(398,53,cs),
(457,53,o),
(520,60,o),
(540,99,c)
);
}
);
width = 699;
},
{
associatedMasterId = m01;
background = {
shapes = (
{
closed = 1;
nodes = (
(655,96,o),
(577,-16,o),
(379,-16,cs),
(181,-16,o),
(40,149,o),
(40,355,cs),
(40,548,o),
(162,716,o),
(361,716,cs),
(480,716,o),
(579,656,o),
(629,573,c),
(572,492,l),
(527,593,o),
(449,647,o),
(342,647,cs),
(202,647,o),
(126,554,o),
(126,388,cs),
(126,197,o),
(222,53,o),
(398,53,cs),
(529,53,o),
(604,134,o),
(617,265,c),
(659,265,l),
(659,106,l)
);
}
);
};
backgroundImage = {
imagePath = "GLYPH/LETTRE/C copie.png";
locked = 1;
pos = (-102,-181);
scale = (18.3119,18.3119);
};
layerId = "63825254-6170-4DFA-BB8C-CFFEF0BA041B";
name = "14 avr. 25 à 11:37";
shapes = (
{
closed = 1;
nodes = (
(638,687,ls),
(638,696,o),
(634,700,o),
(625,700,cs),
(583,700,ls),
(574,700,o),
(570,696,o),
(570,687,cs),
(570,499,ls),
(570,490,o),
(574,486,o),
(583,486,c),
(625,486,ls),
(635,486,o),
(638,490,o),
(638,499,cs),
(638,561,l)
);
},
{
closed = 1;
nodes = (
(659,169,l),
(659,252,ls),
(659,261,o),
(655,265,o),
(646,265,cs),
(628,265,ls),
(619,265,o),
(615,261,o),
(615,252,c),
(615,190,o),
(596,53,o),
(398,53,cs),
(222,53,o),
(126,197,o),
(126,388,cs),
(126,554,o),
(202,647,o),
(342,647,cs),
(449,647,o),
(527,593,o),
(572,492,c),
(629,573,l),
(579,656,o),
(480,716,o),
(361,716,cs),
(162,716,o),
(40,548,o),
(40,355,cs),
(40,149,o),
(181,-16,o),
(379,-16,cs),
(577,-16,o),
(659,96,o),
(659,113,c)
);
}
);
width = 699;
},
{
associatedMasterId = m01;
background = {
shapes = (
{
closed = 1;
nodes = (
(655,96,o),
(577,-16,o),
(379,-16,cs),
(181,-16,o),
(40,149,o),
(40,355,cs),
(40,548,o),
(162,716,o),
(361,716,cs),
(480,716,o),
(579,656,o),
(629,573,c),
(572,492,l),
(527,593,o),
(449,647,o),
(342,647,cs),
(202,647,o),
(126,554,o),
(126,388,cs),
(126,197,o),
(222,53,o),
(398,53,cs),
(529,53,o),
(604,134,o),
(617,265,c),
(659,265,l),
(659,106,l)
);
}
);
};
backgroundImage = {
imagePath = "GLYPH/LETTRE/C copie.png";
locked = 1;
pos = (-102,-181);
scale = (18.3119,18.3119);
};
layerId = "32416311-CF4C-4413-ABD5-7EF5B487A2F0";
name = "14 avr. 25 à 11:37";
shapes = (
{
closed = 1;
nodes = (
(638,687,ls),
(638,696,o),
(634,700,o),
(625,700,cs),
(583,700,ls),
(574,700,o),
(570,696,o),
(570,687,cs),
(570,499,ls),
(570,490,o),
(574,486,o),
(583,486,c),
(625,486,ls),
(635,486,o),
(638,490,o),
(638,499,cs),
(638,561,l)
);
},
{
closed = 1;
nodes = (
(659,169,l),
(659,252,ls),
(659,261,o),
(655,265,o),
(646,265,cs),
(628,265,ls),
(619,265,o),
(615,261,o),
(615,252,c),
(615,190,o),
(596,53,o),
(398,53,cs),
(222,53,o),
(126,197,o),
(126,388,cs),
(126,554,o),
(202,647,o),
(342,647,cs),
(449,647,o),
(527,593,o),
(572,492,c),
(629,573,l),
(579,656,o),
(480,716,o),
(361,716,cs),
(162,716,o),
(40,548,o),
(40,355,cs),
(40,149,o),
(181,-16,o),
(379,-16,cs),
(577,-16,o),
(659,96,o),
(659,113,c)
);
}
);
width = 699;
},
{
associatedMasterId = m01;
background = {
shapes = (
{
closed = 1;
nodes = (
(638,499,ls),
(638,490,o),
(635,486,o),
(625,486,cs),
(583,486,l),
(574,486,o),
(570,490,o),
(570,499,cs),
(570,687,ls),
(570,696,o),
(574,700,o),
(583,700,cs),
(625,700,ls),
(634,700,o),
(638,696,o),
(638,687,cs),
(638,561,l)
);
},
{
closed = 1;
nodes = (
(610,255,o),
(611,286,o),
(635,286,cs),
(659,286,o),
(659,281,o),
(659,242,c),
(659,109,l),
(657,95,o),
(577,-16,o),
(379,-16,cs),
(181,-16,o),
(40,149,o),
(40,355,cs),
(40,548,o),
(162,716,o),
(361,716,cs),
(480,716,o),
(579,656,o),
(629,573,c),
(572,492,l),
(527,593,o),
(449,647,o),
(342,647,cs),
(202,647,o),
(126,554,o),
(126,388,cs),
(126,197,o),
(222,53,o),
(398,53,cs),
(457,53,o),
(520,60,o),
(540,99,c)
);
}
);
};
backgroundImage = {
imagePath = "GLYPH/LETTRE/C copie.png";
locked = 1;
pos = (-102,-181);
scale = (18.3119,18.3119);
};
layerId = "424B0785-017E-45E5-A02B-CCCDAFB085A5";
name = "14 avr. 25 à 11:41";
shapes = (
{
closed = 1;
nodes = (
(181,-16,o),
(40,149,o),
(40,355,cs),
(40,548,o),
(162,716,o),
(361,716,cs),
(563,716,o),
(643,605,o),
(645,591,c),
(645,458,l),
(645,419,o),
(645,414,o),
(621,414,cs),
(597,414,o),
(596,445,o),
(526,601,c),
(506,640,o),
(443,647,o),
(342,647,cs),
(202,647,o),
(126,554,o),
(126,388,cs),
(126,197,o),
(222,53,o),
(398,53,cs),
(457,53,o),
(520,60,o),
(540,99,c),
(610,255,o),
(611,286,o),
(635,286,cs),
(659,286,o),
(659,281,o),
(659,242,c),
(659,109,l),
(657,95,o),
(577,-16,o),
(379,-16,cs)
);
}
);
width = 699;
},
{
associatedMasterId = m01;
backgroundImage = {
imagePath = "GLYPH/LETTRE/C copie.png";
locked = 1;
pos = (-102,-181);
scale = (18.3119,18.3119);
};
layerId = "3E4135E6-752B-4429-B804-763D5928F2E0";
name = "14 avr. 25 à 11:48";
shapes = (
{
closed = 1;
nodes = (
(638,499,ls),
(638,490,o),
(635,486,o),
(625,486,cs),
(583,486,l),
(574,486,o),
(570,490,o),
(570,499,cs),
(570,687,ls),
(570,696,o),
(574,700,o),
(583,700,cs),
(625,700,ls),
(634,700,o),
(638,696,o),
(638,687,cs),
(638,561,l)
);
},
{
closed = 1;
nodes = (
(655,96,o),
(577,-16,o),
(379,-16,cs),
(181,-16,o),
(40,149,o),
(40,355,cs),
(40,548,o),
(162,716,o),
(361,716,cs),
(480,716,o),
(579,656,o),
(629,573,c),
(572,490,l),
(527,591,o),
(449,647,o),
(342,647,cs),
(202,647,o),
(126,554,o),
(126,388,cs),
(126,197,o),
(222,53,o),
(398,53,cs),
(528,53,o),
(617,126,o),
(617,257,cs),
(617,264,o),
(625,265,o),
(637,265,cs),
(652,265,o),
(659,264,o),
(659,257,cs),
(659,106,l)
);
}
);
width = 699;
},
{
associatedMasterId = m01;
backgroundImage = {
imagePath = "GLYPH/LETTRE/C copie.png";
locked = 1;
pos = (-102,-181);
scale = (18.3119,18.3119);
};
layerId = "98040022-B992-4BA4-9169-FBBEB75381E2";
name = "14 avr. 25 à 12:24";
shapes = (
{
closed = 1;
nodes = (
(638,499,ls),
(638,490,o),
(635,486,o),
(625,486,cs),
(583,486,l),
(574,486,o),
(570,490,o),
(570,499,cs),
(570,687,ls),
(570,696,o),
(574,700,o),
(583,700,cs),
(625,700,ls),
(634,700,o),
(638,696,o),
(638,687,cs),
(638,561,l)
);
},
{
closed = 1;
nodes = (
(617,261,o),
(620,265,o),
(630,265,cs),
(646,265,l),
(656,265,o),
(659,261,o),
(659,252,cs),
(659,115,l),
(659,109,o),
(658,106,o),
(657,102,cs),
(653,92,o),
(577,-16,o),
(379,-16,cs),
(181,-16,o),
(40,149,o),
(40,355,cs),
(40,548,o),
(162,716,o),
(361,716,cs),
(480,716,o),
(579,656,o),
(629,573,c),
(572,490,l),
(527,591,o),
(449,647,o),
(342,647,cs),
(202,647,o),
(126,554,o),
(126,388,cs),
(126,197,o),
(222,53,o),
(398,53,cs),
(528,53,o),
(617,121,o),
(617,252,cs)
);
}
);
width = 699;
},
{
associatedMasterId = m01;
background = {
shapes = (
{
closed = 1;
nodes = (
(638,499,ls),
(638,490,o),
(635,486,o),
(625,486,cs),
(583,486,l),
(574,486,o),
(570,490,o),
(570,499,cs),
(570,687,ls),
(570,696,o),
(574,700,o),
(583,700,cs),
(625,700,ls),
(634,700,o),
(638,696,o),
(638,687,cs),
(638,561,l)
);
},
{
closed = 1;
nodes = (
(617,261,o),
(620,265,o),
(630,265,cs),
(646,265,l),
(656,265,o),
(659,261,o),
(659,252,cs),
(659,115,l),
(659,109,o),
(658,106,o),
(657,102,cs),
(653,92,o),
(577,-16,o),
(379,-16,cs),
(181,-16,o),
(40,149,o),
(40,355,cs),
(40,548,o),
(162,716,o),
(361,716,cs),
(480,716,o),
(579,656,o),
(629,573,c),
(572,490,l),
(527,591,o),
(449,647,o),
(342,647,cs),
(202,647,o),
(126,554,o),
(126,388,cs),
(126,197,o),
(222,53,o),
(398,53,cs),
(528,53,o),
(617,121,o),
(617,252,cs)
);
}
);
};
backgroundImage = {
imagePath = "GLYPH/LETTRE/C copie.png";
locked = 1;
pos = (-102,-181);
scale = (18.3119,18.3119);
};
layerId = "EAE58339-90A1-4CC3-B2DC-B07C4D255684";
name = "14 avr. 25 à 12:27";
shapes = (
{
closed = 1;
nodes = (
(638,687,ls),
(638,696,o),
(634,700,o),
(625,700,cs),
(583,700,ls),
(574,700,o),
(570,696,o),
(570,687,cs),
(570,499,ls),
(570,490,o),
(574,486,o),
(583,486,c),
(625,486,ls),
(635,486,o),
(638,490,o),
(638,499,cs),
(638,561,l)
);
},
{
closed = 1;
nodes = (
(564,98,o),
(498,53,o),
(400,53,cs),
(224,53,o),
(128,197,o),
(128,388,cs),
(128,554,o),
(204,647,o),
(344,647,cs),
(449,647,o),
(527,572,o),
(572,490,c),
(637,548,l),
(578,638,o),
(480,716,o),
(363,716,cs),
(164,716,o),
(42,548,o),
(42,355,cs),
(42,149,o),
(183,-16,o),
(381,-16,cs),
(508,-16,o),
(594,36,o),
(647,135,c),
(596,182,l)
);
}
);
width = 699;
},
{
associatedMasterId = m01;
background = {
shapes = (
{
closed = 1;
nodes = (
(564,98,o),
(498,53,o),
(400,53,cs),
(224,53,o),
(128,197,o),
(128,388,cs),
(128,554,o),
(204,647,o),
(344,647,cs),
(449,647,o),
(527,572,o),
(572,490,c),
(637,548,l),
(578,638,o),
(480,716,o),
(363,716,cs),
(164,716,o),
(42,548,o),
(42,355,cs),
(42,149,o),
(183,-16,o),
(381,-16,cs),
(508,-16,o),
(594,36,o),
(647,135,c),
(648,137,o),
(649,138,o),
(644,143,c),
(602,181,l),
(599,184,o),
(597,184,o),
(595,178,c)
);
}
);
};
backgroundImage = {
imagePath = "GLYPH/LETTRE/C copie.png";
locked = 1;
pos = (-102,-181);
scale = (18.3119,18.3119);
};
layerId = "F2147B24-6544-4B7B-97AA-1275A9001809";
name = "14 avr. 25 à 13:56";
shapes = (
{
closed = 1;
nodes = (
(638,687,ls),
(638,696,o),
(634,700,o),
(625,700,cs),
(583,700,ls),
(574,700,o),
(570,696,o),
(570,687,cs),
(570,499,ls),
(570,490,o),
(574,486,o),
(583,486,c),
(625,486,ls),
(635,486,o),
(638,490,o),
(638,499,cs),
(638,561,l)
);
},
{
closed = 1;
nodes = (
(564,98,o),
(498,53,o),
(400,53,cs),
(224,53,o),
(128,197,o),
(128,388,cs),
(128,554,o),
(204,647,o),
(344,647,cs),
(449,647,o),
(527,572,o),
(572,490,c),
(637,548,l),
(578,638,o),
(480,716,o),
(363,716,cs),
(164,716,o),
(42,548,o),
(42,355,cs),
(42,149,o),
(183,-16,o),
(381,-16,cs),
(508,-16,o),
(594,36,o),
(643,128,c),
(648,137,o),
(649,138,o),
(644,143,c),
(611,173,l),
(600,183,o),
(595,180,o),
(592,172,c)
);
}
);
width = 699;
},
{
associatedMasterId = m01;
background = {
shapes = (
{
closed = 1;
nodes = (
(564,98,o),
(498,53,o),
(400,53,cs),
(224,53,o),
(128,197,o),
(128,388,cs),
(128,554,o),
(204,647,o),
(344,647,cs),
(449,647,o),
(527,572,o),
(572,490,c),
(637,548,l),
(578,638,o),
(480,716,o),
(363,716,cs),
(164,716,o),
(42,548,o),
(42,355,cs),
(42,149,o),
(183,-16,o),
(381,-16,cs),
(508,-16,o),
(594,36,o),
(647,135,c),
(648,137,o),
(649,138,o),
(644,143,c),
(602,181,l),
(599,184,o),
(597,184,o),
(595,178,c)
);
}
);
};
backgroundImage = {
imagePath = "GLYPH/LETTRE/C copie.png";
locked = 1;
pos = (-102,-181);
scale = (18.3119,18.3119);
};
layerId = "E15A1FEC-13CB-4D0B-B0E4-28903B438443";
name = "14 avr. 25 à 14:04";
shapes = (
{
closed = 1;
nodes = (
(470,647,o),
(563,481,o),
(572,481,c),
(594,481,ls),
(606,481,o),
(612,486,o),
(612,499,cs),
(612,700,l),
(612,714,o),
(607,716,o),
(594,716,cs),
(579,716,o),
(577,710,o),
(572,700,c),
(535,633,l),
(504,678,o),
(450,716,o),
(363,716,cs),
(164,716,o),
(42,548,o),
(42,355,cs),
(42,149,o),
(183,-16,o),
(381,-16,cs),
(508,-16,o),
(594,36,o),
(643,128,c),
(648,137,o),
(649,138,o),
(644,143,c),
(611,173,l),
(600,183,o),
(595,180,o),
(592,172,c),
(564,98,o),
(498,53,o),
(400,53,cs),
(224,53,o),
(128,197,o),
(128,388,cs),
(128,554,o),
(204,647,o),
(344,647,cs)
);
}
);
width = 699;
}
);
metricLeft = O;
metricRight = O;
unicode = 67;
},
{
color = 5;
glyphname = D;
lastChange = "2025-04-19 10:08:03 +0000";
layers = (
{
backgroundImage = {
imagePath = "GLYPH/LETTRE/D copie.png";
locked = 1;
pos = (-163,-128);
scale = (10.8284,10.8284);
};
layerId = m01;
shapes = (
{
closed = 1;
nodes = (
(135,26,l),
(215,26,l),
(215,680,l),
(135,680,l)
);
},
{
closed = 1;
nodes = (
(712,562,o),
(597,700,o),
(388,700,cs),
(62,700,l),
(50,700,o),
(45,695,o),
(45,683,cs),
(45,648,ls),
(45,636,o),
(50,631,o),
(62,631,cs),
(363,631,ls),
(538,634,o),
(630,532,o),
(630,350,cs),
(630,168,o),
(538,66,o),
(363,69,cs),
(62,69,ls),
(50,69,o),
(45,64,o),
(45,52,cs),
(45,17,ls),
(45,5,o),
(50,0,o),
(62,0,c),
(388,0,ls),
(577,0,o),
(712,153,o),
(712,350,cs)
);
}
);
width = 762;
},
{
associatedMasterId = m01;
backgroundImage = {
imagePath = "GLYPH/LETTRE/D copie.png";
locked = 1;
pos = (-138,-128);
scale = (10.8284,10.8284);
};
layerId = "A8F1A2F9-8D00-4340-AE32-B5BD698334AB";
name = "25 mars 25 à 15:40";
shapes = (
{
closed = 1;
nodes = (
(160,26,l),
(240,26,l),
(240,680,l),
(160,680,l)
);
},
{
closed = 1;
nodes = (
(563,634,o),
(655,496,o),
(655,314,cs),
(655,155,o),
(582,66,o),
(448,69,cs),
(87,69,ls),
(75,69,o),
(70,64,o),
(70,52,cs),
(70,17,ls),
(70,5,o),
(75,0,o),
(87,0,c),
(430,0,ls),
(621,0,o),
(737,161,o),
(737,345,cs),
(737,542,o),
(602,700,o),
(413,700,cs),
(87,700,l),
(75,700,o),
(70,695,o),
(70,683,cs),
(70,648,ls),
(70,636,o),
(75,631,o),
(87,631,cs),
(388,631,ls)
);
}
);
width = 774;
}
);
metricLeft = n;
metricRight = O;
unicode = 68;
},
{
glyphname = Eth;
lastChange = "2025-04-14 07:27:52 +0000";
layers = (
{
layerId = m01;
shapes = (
{
closed = 1;
nodes = (
(371,321,ls),
(380,321,o),
(384,325,o),
(384,334,cs),
(384,376,ls),
(384,385,o),
(380,389,o),
(371,389,cs),
(71,389,ls),
(62,389,o),
(58,385,o),
(58,376,cs),
(58,334,ls),
(58,325,o),
(62,321,o),
(71,321,cs)
);
},
{
closed = 1;
nodes = (
(160,26,l),
(240,26,l),
(240,680,l),
(160,680,l)
);
},
{
closed = 1;
nodes = (
(737,547,o),
(602,700,o),
(413,700,cs),
(177,700,l),
(165,700,o),
(160,695,o),
(160,683,cs),
(160,648,ls),
(160,636,o),
(165,631,o),
(177,631,cs),
(388,631,ls),
(563,631,o),
(655,532,o),
(655,350,cs),
(655,168,o),
(563,69,o),
(388,69,cs),
(177,69,ls),
(165,69,o),
(160,64,o),
(160,52,cs),
(160,17,ls),
(160,5,o),
(165,0,o),
(177,0,c),
(413,0,ls),
(602,0,o),
(737,153,o),
(737,350,cs)
);
}
);
width = 777;
},
{
associatedMasterId = m01;
layerId = "145200A7-C751-4FD8-85F2-66D9786CBB70";
name = "3 avr. 25 à 16:12";
shapes = (
{
closed = 1;
nodes = (
(371,321,ls),
(380,321,o),
(384,325,o),
(384,334,cs),
(384,376,ls),
(384,385,o),
(380,389,o),
(371,389,cs),
(71,389,ls),
(62,389,o),
(58,385,o),
(58,376,cs),
(58,334,ls),
(58,325,o),
(62,321,o),
(71,321,cs)
);
},
{
ref = D;
}
);
width = 777;
}
);
unicode = 208;
},
{
color = 5;
glyphname = E;
lastChange = "2025-04-19 10:04:38 +0000";
layers = (
{
anchors = (
{
name = bottom;
pos = (358,0);
},
{
name = top;
pos = (358,700);
}
);
backgroundImage = {
imagePath = "GLYPH/LETTRE/E.png";
locked = 1;
pos = (-174,-188);
scale = (11.136,11.136);
};
layerId = m01;
shapes = (
{
closed = 1;
nodes = (
(502,457,ls),
(502,466,o),
(498,470,o),
(489,470,cs),
(447,470,ls),
(438,470,o),
(434,466,o),
(434,457,cs),
(434,253,ls),
(434,244,o),
(438,240,o),
(447,240,cs),
(489,240,ls),
(498,240,o),
(502,244,o),
(502,253,cs)
);
},
{
closed = 1;
nodes = (
(135,26,l),
(215,26,l),
(215,680,l),
(135,680,l)
);
},
{
closed = 1;
nodes = (
(456,321,ls),
(465,321,o),
(469,325,o),
(469,334,cs),
(469,376,ls),
(469,385,o),
(465,389,o),
(456,389,cs),
(156,389,ls),
(147,389,o),
(143,385,o),
(143,376,cs),
(143,334,ls),
(143,325,o),
(147,321,o),
(156,321,cs)
);
},
{
closed = 1;
nodes = (
(583,475,o),
(569,471,o),
(593,471,cs),
(617,471,o),
(617,476,o),
(617,515,c),
(617,651,l),
(617,700,o),
(606,700,o),
(563,700,c),
(62,700,l),
(50,700,o),
(45,695,o),
(45,683,cs),
(45,648,ls),
(45,636,o),
(50,631,o),
(62,631,cs),
(513,631,l)
);
},
{
closed = 1;
nodes = (
(62,69,ls),
(50,69,o),
(45,64,o),
(45,52,cs),
(45,17,ls),
(45,5,o),
(50,0,o),
(62,0,c),
(563,0,l),
(606,0,o),
(617,0,o),
(617,49,c),
(617,185,l),
(617,224,o),
(617,229,o),
(593,229,cs),
(569,229,o),
(583,225,o),
(513,69,c)
);
}
);
width = 662;
},
{
associatedMasterId = m01;
backgroundImage = {
imagePath = "GLYPH/LETTRE/E.png";
locked = 1;
pos = (-170,-188);
scale = (11.659,11.659);
};
layerId = "F9651556-CB14-4468-92C2-EFFF66277A8E";
name = "15 mars 25 à 10:53";
shapes = (
{
closed = 1;
nodes = (
(540,487,ls),
(540,496,o),
(536,500,o),
(527,500,cs),
(485,500,ls),
(476,500,o),
(472,496,o),
(472,487,cs),
(472,283,ls),
(472,274,o),
(476,270,o),
(485,270,cs),
(527,270,ls),
(536,270,o),
(540,274,o),
(540,283,cs),
(540,345,l)
);
},
{
closed = 1;
nodes = (
(140,6,l),
(243,6,l),
(243,62,l),
(243,378,l),
(140,378,l)
);
},
{
closed = 1;
nodes = (
(45,88,o),
(40,83,o),
(40,71,cs),
(40,17,ls),
(40,5,o),
(45,0,o),
(57,0,cs),
(389,0,l),
(389,88,l),
(57,88,ls)
);
}
);
width = 678;
},
{
associatedMasterId = m01;
backgroundImage = {
imagePath = "GLYPH/LETTRE/E.png";
locked = 1;
pos = (-170,-188);
scale = (11.659,11.659);
};
layerId = "BB111CAB-8C7B-4B2D-8E21-CA9993F56C2B";
name = "15 mars 25 à 11:01";
shapes = (
{
closed = 1;
nodes = (
(540,487,ls),
(540,496,o),
(536,500,o),
(527,500,cs),
(485,500,ls),
(476,500,o),
(472,496,o),
(472,487,cs),
(472,283,ls),
(472,274,o),
(476,270,o),
(485,270,cs),
(527,270,ls),
(536,270,o),
(540,274,o),
(540,283,cs),
(540,345,l)
);
},
{
closed = 1;
nodes = (
(140,6,l),
(243,6,l),
(243,62,l),
(243,378,l),
(140,378,l)
);
},
{
closed = 1;
nodes = (
(57,88,ls),
(45,88,o),
(40,83,o),
(40,71,cs),
(40,17,ls),
(40,5,o),
(45,0,o),
(57,0,cs),
(485,6,l),
(503,6,o),
(516,10,o),
(536,10,c),
(557,10,o),
(553,0,o),
(594,0,cs),
(635,0,o),
(643,0,o),
(645,49,cs),
(646,67,o),
(647,93,o),
(650,120,cs),
(652,143,o),
(654,166,o),
(656,185,c),
(662,229,o),
(659,229,o),
(635,229,cs),
(611,229,o),
(607,229,o),
(597,204,cs),
(581,163,o),
(551,106,o),
(526,106,c)
);
},
{
closed = 1;
nodes = (
(494,351,ls),
(503,351,o),
(507,355,o),
(507,364,cs),
(507,406,ls),
(507,415,o),
(503,419,o),
(494,419,cs),
(184,419,ls),
(175,419,o),
(171,415,o),
(171,406,cs),
(171,364,ls),
(171,355,o),
(175,351,o),
(184,351,cs),
(352,351,l)
);
},
{
closed = 1;
nodes = (
(551,637,o),
(581,580,o),
(597,539,cs),
(607,514,o),
(611,514,o),
(635,514,cs),
(659,514,o),
(662,514,o),
(656,558,c),
(654,577,o),
(652,600,o),
(650,623,cs),
(647,650,o),
(646,676,o),
(645,694,cs),
(643,743,o),
(635,743,o),
(594,743,cs),
(553,743,o),
(557,733,o),
(536,733,c),
(516,733,o),
(503,737,o),
(485,737,c),
(57,743,ls),
(45,743,o),
(40,738,o),
(40,726,cs),
(40,672,ls),
(40,660,o),
(45,655,o),
(57,655,cs),
(526,637,l)
);
}
);
width = 678;
},
{
associatedMasterId = m01;
backgroundImage = {
imagePath = "GLYPH/LETTRE/E.png";
locked = 1;
pos = (-170,-188);
scale = (11.659,11.659);
};
layerId = "6AB0CF8A-AE97-46EE-AF4B-45926A72C9E2";
name = "15 mars 25 à 11:06";
shapes = (
{
closed = 1;
nodes = (
(540,487,ls),
(540,496,o),
(536,500,o),
(527,500,cs),
(485,500,ls),
(476,500,o),
(472,496,o),
(472,487,cs),
(472,283,ls),
(472,274,o),
(476,270,o),
(485,270,cs),
(527,270,ls),
(536,270,o),
(540,274,o),
(540,283,cs),
(540,345,l)
);
},
{
closed = 1;
nodes = (
(140,26,l),
(243,26,l),
(243,62,l),
(243,680,l),
(140,680,l)
);
},
{
closed = 1;
nodes = (
(57,78,ls),
(45,78,o),
(40,73,o),
(40,61,cs),
(40,17,ls),
(40,5,o),
(45,0,o),
(57,0,cs),
(485,9,l),
(533,9,o),
(551,0,o),
(594,0,cs),
(635,0,o),
(643,0,o),
(645,49,cs),
(646,67,o),
(647,93,o),
(650,120,cs),
(652,143,o),
(654,166,o),
(656,185,c),
(662,229,o),
(659,229,o),
(635,229,cs),
(611,229,o),
(607,229,o),
(597,204,cs),
(581,163,o),
(559,87,o),
(513,87,c)
);
},
{
closed = 1;
nodes = (
(494,351,ls),
(503,351,o),
(507,355,o),
(507,364,cs),
(507,406,ls),
(507,415,o),
(503,419,o),
(494,419,cs),
(184,419,ls),
(175,419,o),
(171,415,o),
(171,406,cs),
(171,364,ls),
(171,355,o),
(175,351,o),
(184,351,cs),
(352,351,l)
);
},
{
closed = 1;
nodes = (
(540,677,o),
(557,619,o),
(573,578,cs),
(583,553,o),
(587,553,o),
(611,553,cs),
(643,553,o),
(634,550,o),
(634,660,cs),
(634,760,o),
(635,760,o),
(594,760,cs),
(544,760,o),
(541,754,o),
(485,754,c),
(57,737,ls),
(45,737,o),
(40,732,o),
(40,720,cs),
(40,676,ls),
(40,664,o),
(45,659,o),
(57,659,cs),
(515,677,l)
);
}
);
width = 678;
},
{
associatedMasterId = m01;
backgroundImage = {
imagePath = "GLYPH/LETTRE/E.png";
locked = 1;
pos = (-170,-188);
scale = (11.659,11.659);
};
layerId = "6BC96159-4B1D-4002-A53C-C0CF7C7AB0E8";
name = "15 mars 25 à 11:09";
shapes = (
{
closed = 1;
nodes = (
(540,487,ls),
(540,496,o),
(536,500,o),
(527,500,cs),
(485,500,ls),
(476,500,o),
(472,496,o),
(472,487,cs),
(472,283,ls),
(472,274,o),
(476,270,o),
(485,270,cs),
(527,270,ls),
(536,270,o),
(540,274,o),
(540,283,cs),
(540,345,l)
);
},
{
closed = 1;
nodes = (
(140,26,l),
(243,26,l),
(243,62,l),
(243,680,l),
(140,680,l)
);
},
{
closed = 1;
nodes = (
(57,74,ls),
(45,74,o),
(40,69,o),
(40,57,cs),
(40,17,ls),
(40,5,o),
(45,0,o),
(57,0,cs),
(485,9,l),
(533,9,o),
(551,0,o),
(594,0,cs),
(635,0,o),
(643,0,o),
(645,49,cs),
(646,67,o),
(647,93,o),
(650,120,cs),
(652,143,o),
(654,166,o),
(656,185,c),
(662,229,o),
(659,229,o),
(635,229,cs),
(611,229,o),
(607,229,o),
(597,204,cs),
(581,163,o),
(570,83,o),
(524,83,c)
);
},
{
closed = 1;
nodes = (
(494,351,ls),
(503,351,o),
(507,355,o),
(507,364,cs),
(507,406,ls),
(507,415,o),
(503,419,o),
(494,419,cs),
(184,419,ls),
(175,419,o),
(171,415,o),
(171,406,cs),
(171,364,ls),
(171,355,o),
(175,351,o),
(184,351,cs),
(352,351,l)
);
},
{
closed = 1;
nodes = (
(542,680,o),
(557,619,o),
(573,578,cs),
(583,553,o),
(587,553,o),
(611,553,cs),
(643,553,o),
(634,550,o),
(634,660,cs),
(634,760,o),
(635,760,o),
(594,760,cs),
(544,760,o),
(541,754,o),
(485,754,c),
(57,737,ls),
(45,737,o),
(40,732,o),
(40,720,cs),
(40,680,ls),
(40,668,o),
(45,663,o),
(57,663,cs),
(501,680,l)
);
}
);
width = 678;
},
{
associatedMasterId = m01;
backgroundImage = {
imagePath = "GLYPH/LETTRE/E.png";
locked = 1;
pos = (-146,-188);
scale = (11.136,11.136);
};
layerId = "C96A6B47-4F66-4D34-B52F-20A713D24AB6";
name = "25 mars 25 à 15:03";
shapes = (
{
closed = 1;
nodes = (
(530,457,ls),
(530,466,o),
(526,470,o),
(517,470,cs),
(475,470,ls),
(466,470,o),
(462,466,o),
(462,457,cs),
(462,253,ls),
(462,244,o),
(466,240,o),
(475,240,cs),
(517,240,ls),
(526,240,o),
(530,244,o),
(530,253,cs)
);
},
{
closed = 1;
nodes = (
(163,26,l),
(243,26,l),
(243,62,l),
(243,680,l),
(163,680,l)
);
},
{
closed = 1;
nodes = (
(57,69,ls),
(45,69,o),
(40,64,o),
(40,52,cs),
(40,17,ls),
(40,5,o),
(45,0,o),
(57,0,c),
(591,0,l),
(634,0,o),
(645,0,o),
(645,49,c),
(645,185,l),
(645,224,o),
(645,229,o),
(621,229,cs),
(597,229,o),
(597,225,o),
(527,69,c)
);
},
{
closed = 1;
nodes = (
(484,321,ls),
(493,321,o),
(497,325,o),
(497,334,cs),
(497,376,ls),
(497,385,o),
(493,389,o),
(484,389,cs),
(184,389,ls),
(175,389,o),
(171,385,o),
(171,376,cs),
(171,334,ls),
(171,325,o),
(175,321,o),
(184,321,cs)
);
},
{
closed = 1;
nodes = (
(543,629,o),
(557,559,o),
(573,518,cs),
(583,493,o),
(587,493,o),
(611,493,cs),
(643,493,o),
(634,490,o),
(634,600,cs),
(634,700,o),
(635,700,o),
(594,700,cs),
(57,700,ls),
(45,700,o),
(40,695,o),
(40,683,cs),
(40,646,ls),
(40,634,o),
(45,628,o),
(57,628,cs),
(512,628,l)
);
}
);
width = 688;
}
);
metricLeft = n;
metricRight = n;
unicode = 69;
},
{
color = 5;
glyphname = F;
lastChange = "2025-04-19 10:04:29 +0000";
layers = (
{
layerId = m01;
shapes = (
{
closed = 1;
nodes = (
(502,457,ls),
(502,466,o),
(498,470,o),
(489,470,cs),
(446,470,ls),
(437,470,o),
(433,466,o),
(433,457,cs),
(433,253,ls),
(433,244,o),
(437,240,o),
(446,240,cs),
(489,240,ls),
(498,240,o),
(502,244,o),
(502,253,cs)
);
},
{
closed = 1;
nodes = (
(135,0,l),
(215,0,l),
(215,63,l),
(215,680,l),
(135,680,l)
);
},
{
closed = 1;
nodes = (
(455,321,ls),
(464,321,o),
(469,325,o),
(469,334,cs),
(469,377,ls),
(469,386,o),
(464,390,o),
(455,390,cs),
(156,390,ls),
(147,390,o),
(143,386,o),
(143,377,cs),
(143,334,ls),
(143,325,o),
(147,321,o),
(156,321,cs)
);
},
{
closed = 1;
nodes = (
(583,475,o),
(569,471,o),
(593,471,cs),
(617,471,o),
(617,476,o),
(617,515,c),
(617,651,l),
(617,700,o),
(606,700,o),
(563,700,c),
(62,700,l),
(50,700,o),
(45,695,o),
(45,683,cs),
(45,648,ls),
(45,636,o),
(50,631,o),
(62,631,cs),
(513,631,l)
);
},
{
closed = 1;
nodes = (
(289,0,ls),
(298,0,o),
(302,4,o),
(302,13,cs),
(302,56,ls),
(302,65,o),
(298,69,o),
(289,69,cs),
(74,69,ls),
(65,69,o),
(61,65,o),
(61,56,cs),
(61,13,ls),
(61,4,o),
(65,0,o),
(74,0,cs)
);
}
);
width = 662;
}
);
metricLeft = n;
metricRight = n;
unicode = 70;
},
{
color = 5;
glyphname = G;
lastChange = "2025-04-19 10:07:36 +0000";
layers = (
{
layerId = m01;
shapes = (
{
closed = 1;
nodes = (
(472,258,ls),
(463,258,o),
(459,261,o),
(459,271,cs),
(459,314,l),
(459,323,o),
(463,327,o),
(472,327,cs),
(716,327,ls),
(725,327,o),
(729,323,o),
(729,314,cs),
(729,271,ls),
(729,262,o),
(725,258,o),
(716,258,cs)
);
},
{
closed = 1;
nodes = (
(50,548,o),
(192,716,o),
(409,716,cs),
(509,716,o),
(518,711,o),
(596,700,cs),
(639,694,o),
(650,688,o),
(650,651,c),
(650,515,l),
(650,476,o),
(650,471,o),
(626,471,cs),
(602,471,o),
(616,475,o),
(546,631,c),
(542,639,o),
(474,647,o),
(372,647,cs),
(232,647,o),
(136,554,o),
(136,388,cs),
(136,177,o),
(212,53,o),
(408,53,cs),
(467,53,o),
(563,77,o),
(563,138,c),
(563,281,l),
(580,291,l),
(633,291,l),
(649,281,l),
(649,155,l),
(649,106,l),
(647,92,o),
(587,-16,o),
(389,-16,cs),
(171,-16,o),
(50,129,o),
(50,355,cs)
);
}
);
width = 779;
},
{
associatedMasterId = m01;
backgroundImage = {
imagePath = "GLYPH/LETTRE/G.png";
locked = 1;
pos = (-91,-220);
scale = (17.7186,17.7186);
};
layerId = "B1905BD0-3808-4943-923E-A9DB82D3FEED";
name = "25 mars 25 à 16:31";
shapes = (
{
closed = 1;
nodes = (
(638,499,ls),
(638,490,o),
(635,486,o),
(625,486,cs),
(583,486,l),
(574,486,o),
(570,490,o),
(570,499,cs),
(570,703,ls),
(570,712,o),
(574,716,o),
(583,716,cs),
(625,716,ls),
(634,716,o),
(638,712,o),
(638,703,cs),
(638,561,l)
);
},
{
closed = 1;
nodes = (
(659,96,o),
(577,-16,o),
(379,-16,cs),
(181,-16,o),
(40,149,o),
(40,355,cs),
(40,548,o),
(162,716,o),
(361,716,cs),
(480,716,o),
(579,656,o),
(629,573,c),
(572,492,l),
(527,593,o),
(449,647,o),
(342,647,cs),
(202,647,o),
(126,554,o),
(126,388,cs),
(126,197,o),
(222,53,o),
(398,53,cs),
(529,53,o),
(573,108,o),
(573,138,c),
(659,155,l),
(659,106,l)
);
},
{
closed = 1;
nodes = (
(462,259,ls),
(453,259,o),
(449,262,o),
(449,272,cs),
(449,314,l),
(449,323,o),
(453,327,o),
(462,327,cs),
(706,327,ls),
(715,327,o),
(719,323,o),
(719,314,cs),
(719,272,ls),
(719,263,o),
(715,259,o),
(706,259,cs)
);
},
{
closed = 1;
nodes = (
(573,281,ls),
(573,288,o),
(575,291,o),
(590,291,cs),
(643,291,l),
(654,291,o),
(659,288,o),
(659,281,cs),
(659,123,ls),
(659,116,o),
(654,113,o),
(643,113,cs),
(590,113,ls),
(578,113,o),
(573,116,o),
(573,123,cs)
);
}
);
width = 729;
},
{
associatedMasterId = m01;
backgroundImage = {
imagePath = "GLYPH/LETTRE/G.png";
locked = 1;
pos = (-91,-220);
scale = (17.7186,17.7186);
};
layerId = "7B3E05D1-6E80-4D22-A6D5-BEE2B8B5B4BB";
name = "25 mars 25 à 16:31";
shapes = (
{
closed = 1;
nodes = (
(638,499,ls),
(638,490,o),
(635,486,o),
(625,486,cs),
(583,486,l),
(574,486,o),
(570,490,o),
(570,499,cs),
(570,703,ls),
(570,712,o),
(574,716,o),
(583,716,cs),
(625,716,ls),
(634,716,o),
(638,712,o),
(638,703,cs),
(638,561,l)
);
},
{
closed = 1;
nodes = (
(659,96,o),
(577,-16,o),
(379,-16,cs),
(181,-16,o),
(40,149,o),
(40,355,cs),
(40,548,o),
(162,716,o),
(361,716,cs),
(480,716,o),
(579,656,o),
(629,573,c),
(572,492,l),
(527,593,o),
(449,647,o),
(342,647,cs),
(202,647,o),
(126,554,o),
(126,388,cs),
(126,197,o),
(222,53,o),
(398,53,cs),
(529,53,o),
(573,108,o),
(573,138,c),
(659,155,l),
(659,106,l)
);
},
{
closed = 1;
nodes = (
(462,259,ls),
(453,259,o),
(449,262,o),
(449,272,cs),
(449,314,l),
(449,323,o),
(453,327,o),
(462,327,cs),
(706,327,ls),
(715,327,o),
(719,323,o),
(719,314,cs),
(719,272,ls),
(719,263,o),
(715,259,o),
(706,259,cs)
);
},
{
closed = 1;
nodes = (
(573,281,l),
(590,291,l),
(643,291,l),
(659,281,l),
(659,123,l),
(643,113,l),
(590,113,l),
(573,123,l)
);
}
);
width = 729;
},
{
associatedMasterId = m01;
layerId = "439D48E2-145E-41DA-B421-8982F5B90D2F";
name = "10 avr. 25 à 11:04";
shapes = (
{
closed = 1;
nodes = (
(638,499,ls),
(638,490,o),
(635,486,o),
(625,486,cs),
(583,486,l),
(574,486,o),
(570,490,o),
(570,499,cs),
(570,703,ls),
(570,712,o),
(574,716,o),
(583,716,cs),
(625,716,ls),
(634,716,o),
(638,712,o),
(638,703,cs),
(638,561,l)
);
},
{
closed = 1;
nodes = (
(462,259,ls),
(453,259,o),
(449,262,o),
(449,272,cs),
(449,314,l),
(449,323,o),
(453,327,o),
(462,327,cs),
(706,327,ls),
(715,327,o),
(719,323,o),
(719,314,cs),
(719,272,ls),
(719,263,o),
(715,259,o),
(706,259,cs)
);
},
{
closed = 1;
nodes = (
(573,281,l),
(590,291,l),
(643,291,l),
(659,281,l),
(659,155,l),
(659,106,l),
(659,96,o),
(577,-16,o),
(379,-16,cs),
(181,-16,o),
(40,149,o),
(40,355,cs),
(40,548,o),
(162,716,o),
(361,716,cs),
(480,716,o),
(579,656,o),
(629,573,c),
(572,492,l),
(527,593,o),
(449,647,o),
(342,647,cs),
(202,647,o),
(126,554,o),
(126,388,cs),
(126,197,o),
(222,53,o),
(398,53,cs),
(529,53,o),
(573,108,o),
(573,138,cs)
);
}
);
width = 749;
},
{
associatedMasterId = m01;
layerId = "7EAF7D41-4D10-4305-B53E-CDA7B3F4387B";
name = "14 avr. 25 à 14:03";
shapes = (
{
closed = 1;
nodes = (
(638,499,ls),
(638,490,o),
(635,486,o),
(625,486,cs),
(583,486,l),
(574,486,o),
(570,490,o),
(570,499,cs),
(570,703,ls),
(570,712,o),
(574,716,o),
(583,716,cs),
(625,716,ls),
(634,716,o),
(638,712,o),
(638,703,cs),
(638,561,l)
);
},
{
closed = 1;
nodes = (
(462,259,ls),
(453,259,o),
(449,262,o),
(449,272,cs),
(449,314,l),
(449,323,o),
(453,327,o),
(462,327,cs),
(706,327,ls),
(715,327,o),
(719,323,o),
(719,314,cs),
(719,272,ls),
(719,263,o),
(715,259,o),
(706,259,cs)
);
},
{
closed = 1;
nodes = (
(553,281,l),
(570,291,l),
(623,291,l),
(639,281,l),
(639,155,l),
(639,106,l),
(637,92,o),
(577,-16,o),
(379,-16,cs),
(171,-16,o),
(40,139,o),
(40,355,cs),
(40,548,o),
(162,716,o),
(361,716,cs),
(480,716,o),
(579,656,o),
(629,573,c),
(572,492,l),
(527,593,o),
(449,647,o),
(342,647,cs),
(202,647,o),
(126,554,o),
(126,388,cs),
(126,187,o),
(212,53,o),
(398,53,cs),
(457,53,o),
(553,77,o),
(553,138,c)
);
}
);
width = 749;
},
{
associatedMasterId = m01;
layerId = "1D503341-C55F-4750-A3E3-636DA648B62B";
name = "19 avr. 25 à 08:44";
shapes = (
{
closed = 1;
nodes = (
(462,258,ls),
(453,258,o),
(449,261,o),
(449,271,cs),
(449,314,l),
(449,323,o),
(453,327,o),
(462,327,cs),
(706,327,ls),
(715,327,o),
(719,323,o),
(719,314,cs),
(719,271,ls),
(719,262,o),
(715,258,o),
(706,258,cs)
);
},
{
closed = 1;
nodes = (
(40,548,o),
(182,716,o),
(399,716,cs),
(499,716,o),
(508,711,o),
(586,700,cs),
(629,694,o),
(640,688,o),
(640,651,c),
(640,515,l),
(640,476,o),
(640,471,o),
(616,471,cs),
(592,471,o),
(606,475,o),
(536,631,c),
(532,639,o),
(464,647,o),
(362,647,cs),
(222,647,o),
(126,554,o),
(126,388,cs),
(126,187,o),
(212,53,o),
(398,53,cs),
(457,53,o),
(553,77,o),
(553,138,c),
(553,281,l),
(570,291,l),
(623,291,l),
(639,281,l),
(639,155,l),
(639,106,l),
(637,92,o),
(577,-16,o),
(379,-16,cs),
(171,-16,o),
(40,139,o),
(40,355,cs)
);
}
);
width = 749;
}
);
metricLeft = O;
metricRight = O;
unicode = 71;
},
{
color = 5;
glyphname = H;
lastChange = "2025-04-19 10:04:08 +0000";
layers = (
{
backgroundImage = {
imagePath = "GLYPH/LETTRE/H.png";
locked = 1;
pos = (-5,-10);
scale = (3.215,3.215);
};
layerId = m01;
shapes = (
{
closed = 1;
nodes = (
(330,631,ls),
(339,631,o),
(343,635,o),
(343,644,cs),
(343,687,ls),
(343,696,o),
(339,700,o),
(330,700,cs),
(58,700,ls),
(49,700,o),
(45,696,o),
(45,687,cs),
(45,644,ls),
(45,635,o),
(49,631,o),
(58,631,cs)
);
},
{
closed = 1;
nodes = (
(330,0,ls),
(339,0,o),
(343,4,o),
(343,13,cs),
(343,56,ls),
(343,65,o),
(339,69,o),
(330,69,cs),
(58,69,ls),
(49,69,o),
(45,65,o),
(45,56,cs),
(45,13,ls),
(45,4,o),
(49,0,o),
(58,0,cs)
);
},
{
closed = 1;
nodes = (
(153,54,l),
(235,54,l),
(235,665,l),
(153,665,l)
);
},
{
closed = 1;
nodes = (
(210,309,l),
(605,309,l),
(605,394,l),
(210,394,l)
);
},
{
closed = 1;
nodes = (
(760,631,ls),
(769,631,o),
(773,635,o),
(773,644,cs),
(773,687,ls),
(773,696,o),
(769,700,o),
(760,700,cs),
(488,700,ls),
(479,700,o),
(475,696,o),
(475,687,cs),
(475,644,ls),
(475,635,o),
(479,631,o),
(488,631,cs)
);
},
{
closed = 1;
nodes = (
(760,0,ls),
(769,0,o),
(773,4,o),
(773,13,cs),
(773,56,ls),
(773,65,o),
(769,69,o),
(760,69,cs),
(488,69,ls),
(479,69,o),
(475,65,o),
(475,56,cs),
(475,13,ls),
(475,4,o),
(479,0,o),
(488,0,cs)
);
},
{
closed = 1;
nodes = (
(583,54,l),
(665,54,l),
(665,665,l),
(583,665,l)
);
}
);
width = 818;
},
{
associatedMasterId = m01;
backgroundImage = {
imagePath = "GLYPH/LETTRE/H.png";
locked = 1;
pos = (-24,-10);
scale = (3.215,3.215);
};
layerId = "B13FFBDC-C83B-453E-87A6-412DFF9A43CB";
name = "14 avr. 25 à 12:05";
shapes = (
{
closed = 1;
nodes = (
(311,631,ls),
(320,631,o),
(324,635,o),
(324,644,cs),
(324,687,ls),
(324,696,o),
(320,700,o),
(311,700,cs),
(39,700,ls),
(30,700,o),
(26,696,o),
(26,687,cs),
(26,644,ls),
(26,635,o),
(30,631,o),
(39,631,cs)
);
},
{
closed = 1;
nodes = (
(311,0,ls),
(320,0,o),
(324,4,o),
(324,13,cs),
(324,56,ls),
(324,65,o),
(320,69,o),
(311,69,cs),
(39,69,ls),
(30,69,o),
(26,65,o),
(26,56,cs),
(26,13,ls),
(26,4,o),
(30,0,o),
(39,0,cs)
);
},
{
closed = 1;
nodes = (
(134,54,l),
(216,54,l),
(216,665,l),
(134,665,l)
);
},
{
closed = 1;
nodes = (
(191,320,l),
(586,320,l),
(586,389,l),
(191,389,l)
);
},
{
closed = 1;
nodes = (
(741,631,ls),
(750,631,o),
(754,635,o),
(754,644,cs),
(754,687,ls),
(754,696,o),
(750,700,o),
(741,700,cs),
(469,700,ls),
(460,700,o),
(456,696,o),
(456,687,cs),
(456,644,ls),
(456,635,o),
(460,631,o),
(469,631,cs)
);
},
{
closed = 1;
nodes = (
(741,0,ls),
(750,0,o),
(754,4,o),
(754,13,cs),
(754,56,ls),
(754,65,o),
(750,69,o),
(741,69,cs),
(469,69,ls),
(460,69,o),
(456,65,o),
(456,56,cs),
(456,13,ls),
(456,4,o),
(460,0,o),
(469,0,cs)
);
},
{
closed = 1;
nodes = (
(564,54,l),
(646,54,l),
(646,665,l),
(564,665,l)
);
}
);
width = 789;
}
);
metricLeft = n;
metricRight = n;
unicode = 72;
},
{
color = 5;
glyphname = I;
lastChange = "2025-04-19 10:04:13 +0000";
layers = (
{
anchors = (
{
name = bottom;
pos = (194,0);
},
{
name = top;
pos = (194,700);
}
);
layerId = m01;
shapes = (
{
closed = 1;
nodes = (
(330,631,ls),
(339,631,o),
(343,635,o),
(343,644,cs),
(343,687,ls),
(343,696,o),
(339,700,o),
(330,700,cs),
(58,700,ls),
(49,700,o),
(45,696,o),
(45,687,cs),
(45,644,ls),
(45,635,o),
(49,631,o),
(58,631,cs)
);
},
{
closed = 1;
nodes = (
(330,0,ls),
(339,0,o),
(343,4,o),
(343,13,cs),
(343,56,ls),
(343,65,o),
(339,69,o),
(330,69,cs),
(58,69,ls),
(49,69,o),
(45,65,o),
(45,56,cs),
(45,13,ls),
(45,4,o),
(49,0,o),
(58,0,cs)
);
},
{
closed = 1;
nodes = (
(153,54,l),
(235,54,l),
(235,665,l),
(153,665,l)
);
}
);
width = 388;
}
);
metricLeft = n;
metricRight = n;
unicode = 73;
},
{
color = 5;
glyphname = J;
lastChange = "2025-04-14 10:04:52 +0000";
layers = (
{
anchors = (
{
name = bottom;
pos = (204,0);
},
{
name = top;
pos = (204,700);
}
);
backgroundImage = {
imagePath = "GLYPH/LETTRE/J copie.png";
locked = 1;
pos = (23,-239);
scale = (2.71,2.71);
};
layerId = m01;
shapes = (
{
closed = 1;
nodes = (
(400,631,ls),
(409,631,o),
(413,635,o),
(413,644,cs),
(413,687,ls),
(413,696,o),
(409,700,o),
(400,700,cs),
(128,700,ls),
(119,700,o),
(115,696,o),
(115,687,cs),
(115,644,ls),
(115,635,o),
(119,631,o),
(128,631,cs)
);
},
{
closed = 1;
nodes = (
(53,53,o),
(49,49,o),
(49,40,cs),
(49,-3,ls),
(49,-12,o),
(53,-16,o),
(62,-16,cs),
(189,-16,o),
(305,51,o),
(305,234,c),
(305,665,l),
(223,665,l),
(223,214,l),
(223,136,o),
(173,53,o),
(62,53,cs)
);
}
);
width = 408;
},
{
associatedMasterId = m01;
backgroundImage = {
imagePath = "GLYPH/LETTRE/J copie.png";
locked = 1;
pos = (23,-239);
scale = (2.71,2.71);
};
layerId = "AC50E9E8-CD59-4A9C-8A22-847272979D8F";
name = "10 avr. 25 à 11:06";
shapes = (
{
closed = 1;
nodes = (
(400,631,ls),
(409,631,o),
(413,635,o),
(413,644,cs),
(413,687,ls),
(413,696,o),
(409,700,o),
(400,700,cs),
(128,700,ls),
(119,700,o),
(115,696,o),
(115,687,cs),
(115,644,ls),
(115,635,o),
(119,631,o),
(128,631,cs)
);
},
{
closed = 1;
nodes = (
(223,-58,o),
(155,-154,o),
(37,-154,c),
(37,-236,l),
(168,-236,o),
(305,-141,o),
(305,44,c),
(305,665,l),
(223,665,l),
(223,44,l)
);
}
);
width = 408;
},
{
associatedMasterId = m01;
backgroundImage = {
imagePath = "GLYPH/LETTRE/J copie.png";
locked = 1;
pos = (23,-239);
scale = (2.71,2.71);
};
layerId = "7A1F2814-4D38-48B3-9769-58F6F245511C";
name = "14 avr. 25 à 09:30";
shapes = (
{
closed = 1;
nodes = (
(400,631,ls),
(409,631,o),
(413,635,o),
(413,644,cs),
(413,687,ls),
(413,696,o),
(409,700,o),
(400,700,cs),
(128,700,ls),
(119,700,o),
(115,696,o),
(115,687,cs),
(115,644,ls),
(115,635,o),
(119,631,o),
(128,631,cs)
);
},
{
closed = 1;
nodes = (
(223,-58,o),
(155,-154,o),
(37,-154,c),
(37,-236,l),
(168,-236,o),
(305,-141,o),
(305,44,c),
(305,665,l),
(223,665,l),
(223,44,l)
);
}
);
width = 408;
},
{
associatedMasterId = m01;
backgroundImage = {
imagePath = "GLYPH/LETTRE/J copie.png";
locked = 1;
pos = (23,-239);
scale = (2.71,2.71);
};
layerId = "55828B41-5B2C-4B0B-9F81-9736D72C2363";
name = "14 avr. 25 à 09:30";
shapes = (
{
closed = 1;
nodes = (
(400,631,ls),
(409,631,o),
(413,635,o),
(413,644,cs),
(413,687,ls),
(413,696,o),
(409,700,o),
(400,700,cs),
(128,700,ls),
(119,700,o),
(115,696,o),
(115,687,cs),
(115,644,ls),
(115,635,o),
(119,631,o),
(128,631,cs)
);
},
{
closed = 1;
nodes = (
(223,-58,o),
(155,-123,o),
(37,-123,c),
(37,-205,l),
(168,-205,o),
(305,-141,o),
(305,44,c),
(305,665,l),
(223,665,l),
(223,44,l)
);
}
);
width = 408;
},
{
anchors = (
{
name = bottom;
pos = (204,0);
},
{
name = top;
pos = (204,700);
}
);
associatedMasterId = m01;
backgroundImage = {
imagePath = "GLYPH/LETTRE/J copie.png";
locked = 1;
pos = (23,-239);
scale = (2.71,2.71);
};
layerId = "B46435BD-C4DE-4BE9-BD7F-5F84DEDD0340";
name = "14 avr. 25 à 12:03";
shapes = (
{
closed = 1;
nodes = (
(400,631,ls),
(409,631,o),
(413,635,o),
(413,644,cs),
(413,687,ls),
(413,696,o),
(409,700,o),
(400,700,cs),
(128,700,ls),
(119,700,o),
(115,696,o),
(115,687,cs),
(115,644,ls),
(115,635,o),
(119,631,o),
(128,631,cs)
);
},
{
closed = 1;
nodes = (
(223,133,o),
(157,67,o),
(62,67,cs),
(44,67,o),
(37,52,o),
(37,26,cs),
(37,0,o),
(44,-15,o),
(62,-15,cs),
(171,-15,o),
(305,51,o),
(305,234,c),
(305,665,l),
(223,665,l),
(223,234,l)
);
}
);
width = 408;
}
);
unicode = 74;
},
{
color = 5;
glyphname = K;
lastChange = "2025-04-19 10:04:42 +0000";
layers = (
{
backgroundImage = {
imagePath = "GLYPH/LETTRE/K copie.png";
locked = 1;
pos = (11,-20);
scale = (4.8848,4.8848);
};
layerId = m01;
shapes = (
{
closed = 1;
nodes = (
(330,631,ls),
(339,631,o),
(343,635,o),
(343,644,cs),
(343,687,ls),
(343,696,o),
(339,700,o),
(330,700,cs),
(58,700,ls),
(49,700,o),
(45,696,o),
(45,687,cs),
(45,644,ls),
(45,635,o),
(49,631,o),
(58,631,cs)
);
},
{
closed = 1;
nodes = (
(330,0,ls),
(339,0,o),
(343,4,o),
(343,13,cs),
(343,56,ls),
(343,65,o),
(339,69,o),
(330,69,cs),
(58,69,ls),
(49,69,o),
(45,65,o),
(45,56,cs),
(45,13,ls),
(45,4,o),
(49,0,o),
(58,0,cs)
);
},
{
closed = 1;
nodes = (
(153,54,l),
(235,54,l),
(235,665,l),
(153,665,l)
);
},
{
closed = 1;
nodes = (
(710,631,ls),
(719,631,o),
(723,635,o),
(723,644,cs),
(723,687,ls),
(723,696,o),
(719,700,o),
(710,700,cs),
(448,700,ls),
(439,700,o),
(435,696,o),
(435,687,cs),
(435,644,ls),
(435,635,o),
(439,631,o),
(448,631,cs)
);
},
{
closed = 1;
nodes = (
(710,0,ls),
(719,0,o),
(723,4,o),
(723,13,cs),
(723,56,ls),
(723,65,o),
(719,69,o),
(710,69,cs),
(448,69,ls),
(439,69,o),
(435,65,o),
(435,56,cs),
(435,13,ls),
(435,4,o),
(439,0,o),
(448,0,cs)
);
},
{
closed = 1;
nodes = (
(206,281,l),
(633,640,l),
(543,640,l),
(206,353,l)
);
},
{
closed = 1;
nodes = (
(338,427,l),
(534,61,l),
(633,61,l),
(404,479,l)
);
}
);
width = 768;
},
{
associatedMasterId = m01;
backgroundImage = {
imagePath = "GLYPH/LETTRE/K copie.png";
locked = 1;
pos = (6,-20);
scale = (4.8848,4.8848);
};
layerId = "7B0C93FC-1DC0-43A9-ACBF-B1E38D0D1423";
name = "14 avr. 25 à 12:06";
shapes = (
{
closed = 1;
nodes = (
(325,631,ls),
(334,631,o),
(338,635,o),
(338,644,cs),
(338,687,ls),
(338,696,o),
(334,700,o),
(325,700,cs),
(53,700,ls),
(44,700,o),
(40,696,o),
(40,687,cs),
(40,644,ls),
(40,635,o),
(44,631,o),
(53,631,cs)
);
},
{
closed = 1;
nodes = (
(325,0,ls),
(334,0,o),
(338,4,o),
(338,13,cs),
(338,56,ls),
(338,65,o),
(334,69,o),
(325,69,cs),
(53,69,ls),
(44,69,o),
(40,65,o),
(40,56,cs),
(40,13,ls),
(40,4,o),
(44,0,o),
(53,0,cs)
);
},
{
closed = 1;
nodes = (
(148,54,l),
(230,54,l),
(230,665,l),
(148,665,l)
);
},
{
closed = 1;
nodes = (
(705,631,ls),
(714,631,o),
(718,635,o),
(718,644,cs),
(718,687,ls),
(718,696,o),
(714,700,o),
(705,700,cs),
(443,700,ls),
(434,700,o),
(430,696,o),
(430,687,cs),
(430,644,ls),
(430,635,o),
(434,631,o),
(443,631,cs)
);
},
{
closed = 1;
nodes = (
(705,0,ls),
(714,0,o),
(718,4,o),
(718,13,cs),
(718,56,ls),
(718,65,o),
(714,69,o),
(705,69,cs),
(443,69,ls),
(434,69,o),
(430,65,o),
(430,56,cs),
(430,13,ls),
(430,4,o),
(434,0,o),
(443,0,cs)
);
},
{
closed = 1;
nodes = (
(201,286,l),
(623,640,l),
(538,640,l),
(201,353,l)
);
},
{
closed = 1;
nodes = (
(333,427,l),
(529,61,l),
(628,61,l),
(399,479,l)
);
}
);
width = 792;
}
);
metricLeft = n;
metricRight = n;
unicode = 75;
},
{
color = 5;
glyphname = L;
lastChange = "2025-04-19 10:04:20 +0000";
layers = (
{
layerId = m01;
shapes = (
{
closed = 1;
nodes = (
(179,26,l),
(259,26,l),
(259,680,l),
(179,680,l)
);
},
{
closed = 1;
nodes = (
(63,69,ls),
(51,69,o),
(46,64,o),
(46,52,cs),
(46,17,ls),
(46,5,o),
(51,0,o),
(63,0,c),
(564,0,l),
(607,0,o),
(618,0,o),
(618,49,c),
(618,185,l),
(618,224,o),
(618,229,o),
(594,229,cs),
(570,229,o),
(584,225,o),
(514,69,c)
);
},
{
closed = 1;
nodes = (
(370,631,ls),
(379,631,o),
(383,635,o),
(383,644,cs),
(383,687,ls),
(383,696,o),
(379,700,o),
(370,700,cs),
(58,700,ls),
(49,700,o),
(45,696,o),
(45,687,cs),
(45,644,ls),
(45,635,o),
(49,631,o),
(58,631,cs)
);
}
);
width = 663;
}
);
metricLeft = n;
metricRight = n;
unicode = 76;
},
{
color = 5;
glyphname = M;
lastChange = "2025-04-19 11:27:34 +0000";
layers = (
{
background = {
shapes = (
{
closed = 0;
nodes = (
(802,54,l)
);
}
);
};
backgroundImage = {
imagePath = "GLYPH/LETTRE/M.png";
locked = 1;
pos = (-155,-261);
scale = (10.9921,10.9921);
};
layerId = m01;
shapes = (
{
closed = 1;
nodes = (
(216,631,ls),
(225,631,o),
(230,635,o),
(230,644,cs),
(230,700,l),
(58,700,ls),
(49,700,o),
(45,696,o),
(45,687,cs),
(45,644,ls),
(45,635,o),
(49,631,o),
(58,631,cs)
);
},
{
closed = 1;
nodes = (
(330,0,ls),
(339,0,o),
(343,4,o),
(343,13,cs),
(343,56,ls),
(343,65,o),
(339,69,o),
(330,69,cs),
(58,69,ls),
(49,69,o),
(45,65,o),
(45,56,cs),
(45,13,ls),
(45,4,o),
(49,0,o),
(58,0,cs)
);
},
{
closed = 1;
nodes = (
(157,54,l),
(229,54,l),
(229,665,l),
(157,665,l)
);
},
{
closed = 1;
nodes = (
(491,160,l),
(230,700,l),
(144,700,l),
(482,0,l),
(491,0,l),
(805,700,l),
(733,700,l)
);
},
{
closed = 1;
nodes = (
(914,631,o),
(918,635,o),
(918,644,cs),
(918,687,ls),
(918,696,o),
(914,700,o),
(905,700,cs),
(733,700,l),
(733,644,ls),
(733,635,o),
(738,631,o),
(747,631,cs),
(905,631,ls)
);
},
{
closed = 1;
nodes = (
(914,0,o),
(918,4,o),
(918,13,cs),
(918,56,ls),
(918,65,o),
(914,69,o),
(905,69,cs),
(633,69,ls),
(624,69,o),
(620,65,o),
(620,56,cs),
(620,13,ls),
(620,4,o),
(624,0,o),
(633,0,cs),
(905,0,ls)
);
},
{
closed = 1;
nodes = (
(733,665,l),
(733,54,l),
(816,54,l),
(816,665,l)
);
}
);
width = 963;
},
{
associatedMasterId = m01;
backgroundImage = {
imagePath = "GLYPH/LETTRE/M.png";
locked = 1;
pos = (-180,-261);
scale = (10.9921,10.9921);
};
layerId = "D68FDD79-26B3-4646-A82F-7716A324FB3C";
name = "27 mars 25 à 16:43";
shapes = (
{
closed = 1;
nodes = (
(305,631,ls),
(314,631,o),
(318,635,o),
(318,644,cs),
(318,687,ls),
(318,696,o),
(314,700,o),
(305,700,cs),
(33,700,ls),
(24,700,o),
(20,696,o),
(20,687,cs),
(20,644,ls),
(20,635,o),
(24,631,o),
(33,631,cs)
);
},
{
closed = 1;
nodes = (
(305,0,ls),
(314,0,o),
(318,4,o),
(318,13,cs),
(318,56,ls),
(318,65,o),
(314,69,o),
(305,69,cs),
(33,69,ls),
(24,69,o),
(20,65,o),
(20,56,cs),
(20,13,ls),
(20,4,o),
(24,0,o),
(33,0,cs)
);
},
{
closed = 1;
nodes = (
(128,54,l),
(210,54,l),
(210,665,l),
(128,665,l)
);
},
{
closed = 1;
nodes = (
(865,631,ls),
(874,631,o),
(878,635,o),
(878,644,cs),
(878,687,ls),
(878,696,o),
(874,700,o),
(865,700,cs),
(593,700,ls),
(584,700,o),
(580,696,o),
(580,687,cs),
(580,644,ls),
(580,635,o),
(584,631,o),
(593,631,cs)
);
},
{
closed = 1;
nodes = (
(865,0,ls),
(874,0,o),
(878,4,o),
(878,13,cs),
(878,56,ls),
(878,65,o),
(874,69,o),
(865,69,cs),
(593,69,ls),
(584,69,o),
(580,65,o),
(580,56,cs),
(580,13,ls),
(580,4,o),
(584,0,o),
(593,0,cs)
);
},
{
closed = 1;
nodes = (
(688,54,l),
(770,54,l),
(770,665,l),
(688,665,l)
);
},
{
closed = 1;
nodes = (
(731,644,l),
(667,644,l),
(463,174,l),
(459,174,l),
(240,632,l),
(160,632,l),
(450,0,l),
(472,0,l)
);
}
);
width = 927;
},
{
associatedMasterId = m01;
backgroundImage = {
imagePath = "GLYPH/LETTRE/M.png";
locked = 1;
pos = (-180,-261);
scale = (10.9921,10.9921);
};
layerId = "5F7046E5-0E63-43B1-B4D4-8F083A620C73";
name = "10 avr. 25 à 11:09";
shapes = (
{
closed = 1;
nodes = (
(281,631,ls),
(290,631,o),
(294,635,o),
(294,644,cs),
(294,687,ls),
(294,696,o),
(290,700,o),
(281,700,cs),
(33,700,ls),
(24,700,o),
(20,696,o),
(20,687,cs),
(20,644,ls),
(20,635,o),
(24,631,o),
(33,631,cs)
);
},
{
closed = 1;
nodes = (
(305,0,ls),
(314,0,o),
(318,4,o),
(318,13,cs),
(318,56,ls),
(318,65,o),
(314,69,o),
(305,69,cs),
(33,69,ls),
(24,69,o),
(20,65,o),
(20,56,cs),
(20,13,ls),
(20,4,o),
(24,0,o),
(33,0,cs)
);
},
{
closed = 1;
nodes = (
(128,54,l),
(210,54,l),
(210,665,l),
(128,665,l)
);
},
{
closed = 1;
nodes = (
(865,631,ls),
(874,631,o),
(878,635,o),
(878,644,cs),
(878,687,ls),
(878,696,o),
(874,700,o),
(865,700,cs),
(626,700,ls),
(617,700,o),
(613,696,o),
(613,687,cs),
(613,644,ls),
(613,635,o),
(617,631,o),
(626,631,cs)
);
},
{
closed = 1;
nodes = (
(865,0,ls),
(874,0,o),
(878,4,o),
(878,13,cs),
(878,56,ls),
(878,65,o),
(874,69,o),
(865,69,cs),
(593,69,ls),
(584,69,o),
(580,65,o),
(580,56,cs),
(580,13,ls),
(580,4,o),
(584,0,o),
(593,0,cs)
);
},
{
closed = 1;
nodes = (
(688,54,l),
(770,54,l),
(770,665,l),
(688,665,l)
);
},
{
closed = 1;
nodes = (
(731,644,l),
(667,644,l),
(463,174,l),
(459,174,l),
(240,632,l),
(160,632,l),
(450,0,l),
(472,0,l)
);
}
);
width = 927;
},
{
associatedMasterId = m01;
backgroundImage = {
imagePath = "GLYPH/LETTRE/M.png";
locked = 1;
pos = (-155,-261);
scale = (10.9921,10.9921);
};
layerId = "C51B91AD-9DF7-4B70-9D70-AB1671D8DABB";
name = "19 avr. 25 à 12:13";
shapes = (
{
closed = 1;
nodes = (
(215,631,ls),
(224,631,o),
(228,635,o),
(228,644,cs),
(228,687,ls),
(228,696,o),
(224,700,o),
(215,700,cs),
(58,700,ls),
(49,700,o),
(45,696,o),
(45,687,cs),
(45,644,ls),
(45,635,o),
(49,631,o),
(58,631,cs)
);
},
{
closed = 1;
nodes = (
(330,0,ls),
(339,0,o),
(343,4,o),
(343,13,cs),
(343,56,ls),
(343,65,o),
(339,69,o),
(330,69,cs),
(58,69,ls),
(49,69,o),
(45,65,o),
(45,56,cs),
(45,13,ls),
(45,4,o),
(49,0,o),
(58,0,cs)
);
},
{
closed = 1;
nodes = (
(158,54,l),
(230,54,l),
(230,665,l),
(158,665,l)
);
},
{
closed = 1;
nodes = (
(890,631,ls),
(899,631,o),
(903,635,o),
(903,644,cs),
(903,687,ls),
(903,696,o),
(899,700,o),
(890,700,cs),
(731,700,ls),
(722,700,o),
(718,696,o),
(718,687,cs),
(718,644,ls),
(718,635,o),
(722,631,o),
(731,631,cs)
);
},
{
closed = 1;
nodes = (
(890,0,ls),
(899,0,o),
(903,4,o),
(903,13,cs),
(903,56,ls),
(903,65,o),
(899,69,o),
(890,69,cs),
(618,69,ls),
(609,69,o),
(605,65,o),
(605,56,cs),
(605,13,ls),
(605,4,o),
(609,0,o),
(618,0,cs)
);
},
{
closed = 1;
nodes = (
(708,54,l),
(800,54,l),
(800,665,l),
(708,665,l)
);
},
{
closed = 1;
nodes = (
(783,700,l),
(711,700,l),
(488,174,l),
(484,174,l),
(233,700,l),
(125,700,l),
(459,0,l),
(486,0,l)
);
}
);
width = 948;
},
{
associatedMasterId = m01;
background = {
shapes = (
{
closed = 1;
nodes = (
(215,631,ls),
(224,631,o),
(228,635,o),
(228,644,cs),
(228,687,ls),
(228,696,o),
(224,700,o),
(215,700,cs),
(58,700,ls),
(49,700,o),
(45,696,o),
(45,687,cs),
(45,644,ls),
(45,635,o),
(49,631,o),
(58,631,cs)
);
},
{
closed = 1;
nodes = (
(330,0,ls),
(339,0,o),
(343,4,o),
(343,13,cs),
(343,56,ls),
(343,65,o),
(339,69,o),
(330,69,cs),
(58,69,ls),
(49,69,o),
(45,65,o),
(45,56,cs),
(45,13,ls),
(45,4,o),
(49,0,o),
(58,0,cs)
);
},
{
closed = 1;
nodes = (
(158,54,l),
(236,54,l),
(236,665,l),
(158,665,l)
);
},
{
closed = 1;
nodes = (
(890,631,ls),
(899,631,o),
(903,635,o),
(903,644,cs),
(903,687,ls),
(903,696,o),
(899,700,o),
(890,700,cs),
(731,700,ls),
(722,700,o),
(718,696,o),
(718,687,cs),
(718,644,ls),
(718,635,o),
(722,631,o),
(731,631,cs)
);
},
{
closed = 1;
nodes = (
(890,0,ls),
(899,0,o),
(903,4,o),
(903,13,cs),
(903,56,ls),
(903,65,o),
(899,69,o),
(890,69,cs),
(618,69,ls),
(609,69,o),
(605,65,o),
(605,56,cs),
(605,13,ls),
(605,4,o),
(609,0,o),
(618,0,cs)
);
},
{
closed = 1;
nodes = (
(718,54,l),
(800,54,l),
(800,665,l),
(718,665,l)
);
},
{
closed = 1;
nodes = (
(789,700,l),
(711,700,l),
(488,174,l),
(477,174,l),
(226,700,l),
(135,700,l),
(469,0,l),
(492,0,l)
);
}
);
};
backgroundImage = {
imagePath = "GLYPH/LETTRE/M.png";
locked = 1;
pos = (-155,-261);
scale = (10.9921,10.9921);
};
layerId = "35DE7609-2153-4B8D-986E-5E3EC5DA2E49";
name = "19 avr. 25 à 12:17";
shapes = (
{
closed = 1;
nodes = (
(215,631,ls),
(224,631,o),
(228,635,o),
(228,644,cs),
(228,687,ls),
(228,696,o),
(224,700,o),
(215,700,cs),
(58,700,ls),
(49,700,o),
(45,696,o),
(45,687,cs),
(45,644,ls),
(45,635,o),
(49,631,o),
(58,631,cs)
);
},
{
closed = 1;
nodes = (
(330,0,ls),
(339,0,o),
(343,4,o),
(343,13,cs),
(343,56,ls),
(343,65,o),
(339,69,o),
(330,69,cs),
(58,69,ls),
(49,69,o),
(45,65,o),
(45,56,cs),
(45,13,ls),
(45,4,o),
(49,0,o),
(58,0,cs)
);
},
{
closed = 1;
nodes = (
(158,54,l),
(236,54,l),
(236,665,l),
(158,665,l)
);
},
{
closed = 1;
nodes = (
(890,631,ls),
(899,631,o),
(903,635,o),
(903,644,cs),
(903,687,ls),
(903,696,o),
(899,700,o),
(890,700,cs),
(731,700,ls),
(722,700,o),
(718,696,o),
(718,687,cs),
(718,644,ls),
(718,635,o),
(722,631,o),
(731,631,cs)
);
},
{
closed = 1;
nodes = (
(890,0,ls),
(899,0,o),
(903,4,o),
(903,13,cs),
(903,56,ls),
(903,65,o),
(899,69,o),
(890,69,cs),
(618,69,ls),
(609,69,o),
(605,65,o),
(605,56,cs),
(605,13,ls),
(605,4,o),
(609,0,o),
(618,0,cs)
);
},
{
closed = 1;
nodes = (
(718,54,l),
(800,54,l),
(800,665,l),
(718,665,l)
);
},
{
closed = 1;
nodes = (
(789,700,l),
(711,700,l),
(488,174,l),
(477,174,l),
(226,700,l),
(135,700,l),
(469,0,l),
(492,0,l)
);
}
);
width = 948;
},
{
associatedMasterId = m01;
background = {
shapes = (
{
closed = 0;
nodes = (
(802,54,l)
);
}
);
};
backgroundImage = {
imagePath = "GLYPH/LETTRE/M.png";
locked = 1;
pos = (-155,-261);
scale = (10.9921,10.9921);
};
layerId = "0F8FCEF8-0608-4D07-AE9D-B4D5942B91BD";
name = "19 avr. 25 à 12:28";
shapes = (
{
closed = 1;
nodes = (
(216,631,ls),
(225,631,o),
(230,635,o),
(230,644,cs),
(230,700,l),
(58,700,ls),
(49,700,o),
(45,696,o),
(45,687,cs),
(45,644,ls),
(45,635,o),
(49,631,o),
(58,631,cs)
);
},
{
closed = 1;
nodes = (
(330,0,ls),
(339,0,o),
(343,4,o),
(343,13,cs),
(343,56,ls),
(343,65,o),
(339,69,o),
(330,69,cs),
(58,69,ls),
(49,69,o),
(45,65,o),
(45,56,cs),
(45,13,ls),
(45,4,o),
(49,0,o),
(58,0,cs)
);
},
{
closed = 1;
nodes = (
(157,54,l),
(229,54,l),
(229,665,l),
(157,665,l)
);
},
{
closed = 1;
nodes = (
(491,160,l),
(230,700,l),
(148,700,l),
(486,0,l),
(500,0,l),
(814,700,l),
(742,700,l),
(500,160,l)
);
},
{
closed = 1;
nodes = (
(923,631,o),
(927,635,o),
(927,644,cs),
(927,687,ls),
(927,696,o),
(923,700,o),
(914,700,cs),
(742,700,l),
(742,644,ls),
(742,635,o),
(747,631,o),
(756,631,cs),
(914,631,ls)
);
},
{
closed = 1;
nodes = (
(923,0,o),
(927,4,o),
(927,13,cs),
(927,56,ls),
(927,65,o),
(923,69,o),
(914,69,cs),
(642,69,ls),
(633,69,o),
(629,65,o),
(629,56,cs),
(629,13,ls),
(629,4,o),
(633,0,o),
(642,0,cs),
(914,0,ls)
);
},
{
closed = 1;
nodes = (
(742,665,l),
(742,54,l),
(824,54,l),
(824,665,l)
);
},
{
closed = 1;
nodes = (
(500,49,l),
(572,49,l),
(572,160,l),
(500,160,l)
);
}
);
width = 958;
}
);
metricLeft = n;
metricRight = n;
unicode = 77;
},
{
color = 5;
glyphname = N;
lastChange = "2025-04-19 10:05:12 +0000";
layers = (
{
background = {
shapes = (
{
closed = 1;
nodes = (
(330,631,ls),
(339,631,o),
(343,635,o),
(343,644,cs),
(343,687,ls),
(343,696,o),
(339,700,o),
(330,700,cs),
(58,700,ls),
(49,700,o),
(45,696,o),
(45,687,cs),
(45,644,ls),
(45,635,o),
(49,631,o),
(58,631,cs)
);
},
{
closed = 1;
nodes = (
(330,0,ls),
(339,0,o),
(343,4,o),
(343,13,cs),
(343,56,ls),
(343,65,o),
(339,69,o),
(330,69,cs),
(58,69,ls),
(49,69,o),
(45,65,o),
(45,56,cs),
(45,13,ls),
(45,4,o),
(49,0,o),
(58,0,cs)
);
},
{
closed = 1;
nodes = (
(153,54,l),
(235,54,l),
(235,665,l),
(153,665,l)
);
},
{
closed = 1;
nodes = (
(780,631,ls),
(789,631,o),
(793,635,o),
(793,644,cs),
(793,687,ls),
(793,696,o),
(789,700,o),
(780,700,cs),
(508,700,ls),
(499,700,o),
(495,696,o),
(495,687,cs),
(495,644,ls),
(495,635,o),
(499,631,o),
(508,631,cs)
);
},
{
closed = 1;
nodes = (
(603,0,l),
(685,0,l),
(685,665,l),
(603,665,l)
);
},
{
closed = 1;
nodes = (
(206,575,l),
(603,-1,l),
(603,115,l),
(206,691,l)
);
}
);
};
backgroundImage = {
imagePath = "GLYPH/LETTRE/N.png";
locked = 1;
pos = (-152,-64);
scale = (13.6257,13.6257);
};
layerId = m01;
shapes = (
{
closed = 1;
nodes = (
(216,631,ls),
(225,631,o),
(229,635,o),
(229,644,cs),
(229,687,l),
(229,700,l),
(58,700,ls),
(49,700,o),
(45,696,o),
(45,687,cs),
(45,644,ls),
(45,635,o),
(49,631,o),
(58,631,cs)
);
},
{
closed = 1;
nodes = (
(330,0,ls),
(339,0,o),
(343,4,o),
(343,13,cs),
(343,56,ls),
(343,65,o),
(339,69,o),
(330,69,cs),
(58,69,ls),
(49,69,o),
(45,65,o),
(45,56,cs),
(45,13,ls),
(45,4,o),
(49,0,o),
(58,0,cs)
);
},
{
closed = 1;
nodes = (
(157,54,l),
(229,54,l),
(229,665,l),
(157,665,l)
);
},
{
closed = 1;
nodes = (
(780,631,ls),
(789,631,o),
(793,635,o),
(793,644,cs),
(793,687,ls),
(793,696,o),
(789,700,o),
(780,700,cs),
(508,700,ls),
(499,700,o),
(495,696,o),
(495,687,cs),
(495,644,ls),
(495,635,o),
(499,631,o),
(508,631,cs)
);
},
{
closed = 1;
nodes = (
(607,0,l),
(679,0,l),
(679,665,l),
(607,665,l)
);
},
{
closed = 1;
nodes = (
(229,550,l),
(607,0,l),
(607,150,l),
(229,700,l)
);
}
);
width = 838;
},
{
associatedMasterId = m01;
backgroundImage = {
imagePath = "GLYPH/LETTRE/N.png";
locked = 1;
pos = (-177,-64);
scale = (13.6257,13.6257);
};
layerId = "A77CDA68-2F44-4626-81D8-716DC89959F9";
name = "26 mars 25 à 09:44";
shapes = (
{
closed = 1;
nodes = (
(305,631,ls),
(314,631,o),
(318,635,o),
(318,644,cs),
(318,687,ls),
(318,696,o),
(314,700,o),
(305,700,cs),
(33,700,ls),
(24,700,o),
(20,696,o),
(20,687,cs),
(20,644,ls),
(20,635,o),
(24,631,o),
(33,631,cs)
);
},
{
closed = 1;
nodes = (
(305,0,ls),
(314,0,o),
(318,4,o),
(318,13,cs),
(318,56,ls),
(318,65,o),
(314,69,o),
(305,69,cs),
(33,69,ls),
(24,69,o),
(20,65,o),
(20,56,cs),
(20,13,ls),
(20,4,o),
(24,0,o),
(33,0,cs)
);
},
{
closed = 1;
nodes = (
(128,54,l),
(210,54,l),
(210,665,l),
(128,665,l)
);
},
{
closed = 1;
nodes = (
(755,631,ls),
(764,631,o),
(768,635,o),
(768,644,cs),
(768,687,ls),
(768,696,o),
(764,700,o),
(755,700,cs),
(483,700,ls),
(474,700,o),
(470,696,o),
(470,687,cs),
(470,644,ls),
(470,635,o),
(474,631,o),
(483,631,cs)
);
},
{
closed = 1;
nodes = (
(755,0,ls),
(764,0,o),
(768,4,o),
(768,13,cs),
(768,56,ls),
(768,65,o),
(764,69,o),
(755,69,cs),
(483,69,ls),
(474,69,o),
(470,65,o),
(470,56,cs),
(470,13,ls),
(470,4,o),
(474,0,o),
(483,0,cs)
);
},
{
closed = 1;
nodes = (
(578,54,l),
(660,54,l),
(660,665,l),
(578,665,l)
);
},
{
closed = 1;
nodes = (
(181,575,l),
(590,85,l),
(590,209,l),
(181,691,l)
);
}
);
width = 748;
},
{
associatedMasterId = m01;
backgroundImage = {
imagePath = "GLYPH/LETTRE/N.png";
locked = 1;
pos = (-177,-64);
scale = (13.6257,13.6257);
};
layerId = "F64A1439-EC66-477D-8349-F2B455D879C7";
name = "10 avr. 25 à 11:13";
shapes = (
{
closed = 1;
nodes = (
(305,631,ls),
(314,631,o),
(318,635,o),
(318,644,cs),
(318,687,ls),
(318,696,o),
(314,700,o),
(305,700,cs),
(33,700,ls),
(24,700,o),
(20,696,o),
(20,687,cs),
(20,644,ls),
(20,635,o),
(24,631,o),
(33,631,cs)
);
},
{
closed = 1;
nodes = (
(305,0,ls),
(314,0,o),
(318,4,o),
(318,13,cs),
(318,56,ls),
(318,65,o),
(314,69,o),
(305,69,cs),
(33,69,ls),
(24,69,o),
(20,65,o),
(20,56,cs),
(20,13,ls),
(20,4,o),
(24,0,o),
(33,0,cs)
);
},
{
closed = 1;
nodes = (
(128,54,l),
(210,54,l),
(210,665,l),
(128,665,l)
);
},
{
closed = 1;
nodes = (
(755,631,ls),
(764,631,o),
(768,635,o),
(768,644,cs),
(768,687,ls),
(768,696,o),
(764,700,o),
(755,700,cs),
(483,700,ls),
(474,700,o),
(470,696,o),
(470,687,cs),
(470,644,ls),
(470,635,o),
(474,631,o),
(483,631,cs)
);
},
{
closed = 1;
nodes = (
(578,0,l),
(660,0,l),
(660,665,l),
(578,665,l)
);
},
{
closed = 1;
nodes = (
(181,575,l),
(578,-1,l),
(578,115,l),
(181,691,l)
);
}
);
width = 748;
}
);
metricLeft = n;
metricRight = n;
unicode = 78;
},
{
color = 5;
glyphname = O;
lastChange = "2025-04-19 10:07:25 +0000";
layers = (
{
anchors = (
{
name = bottom;
pos = (385,0);
},
{
name = top;
pos = (385,700);
}
);
backgroundImage = {
imagePath = "GLYPH/LETTRE/O copie.png";
locked = 1;
pos = (24,-36);
scale = (1.6874,1.6874);
};
layerId = m01;
shapes = (
{
closed = 1;
nodes = (
(191,-16,o),
(50,149,o),
(50,355,cs),
(50,548,o),
(172,716,o),
(371,716,cs),
(569,716,o),
(710,551,o),
(710,345,cs),
(710,152,o),
(588,-16,o),
(389,-16,cs)
);
},
{
closed = 1;
nodes = (
(548,53,o),
(624,146,o),
(624,312,cs),
(624,503,o),
(528,647,o),
(352,647,cs),
(212,647,o),
(136,554,o),
(136,388,cs),
(136,197,o),
(232,53,o),
(408,53,cs)
);
}
);
width = 760;
},
{
associatedMasterId = m01;
backgroundImage = {
imagePath = "GLYPH/LETTRE/O copie.png";
locked = 1;
pos = (-2,-24);
scale = (1.6417,1.6417);
};
layerId = "BE908B6B-ABD8-4C92-A1B0-97CD06819A6B";
name = "15 mars 25 à 11:23";
shapes = (
{
closed = 1;
nodes = (
(540,-16,o),
(649,155,o),
(649,348,cs),
(649,546,o),
(512,716,o),
(338,716,cs),
(152,716,o),
(38,539,o),
(38,345,cs),
(38,149,o),
(179,-16,o),
(354,-16,cs)
);
},
{
closed = 1;
nodes = (
(251,67,o),
(152,188,o),
(152,385,cs),
(152,532,o),
(201,634,o),
(321,634,cs),
(435,634,o),
(535,513,o),
(535,314,cs),
(535,169,o),
(490,67,o),
(371,67,cs)
);
}
);
width = 699;
}
);
unicode = 79;
},
{
glyphname = Oslash;
lastChange = "2025-04-14 07:27:52 +0000";
layers = (
{
layerId = m01;
shapes = (
{
ref = O;
},
{
closed = 1;
nodes = (
(103,0,l),
(96,-9,o),
(88,-16,o),
(60,-16,cs),
(42,-16,o),
(10,-8,o),
(16,0,c),
(587,700,ls),
(595,710,o),
(607,716,o),
(635,716,cs),
(653,716,o),
(682,710,o),
(674,700,cs)
);
}
);
width = 699;
}
);
metricLeft = O;
metricRight = O;
unicode = 216;
},
{
color = 5;
glyphname = OE;
lastChange = "2025-04-19 07:33:08 +0000";
layers = (
{
layerId = m01;
shapes = (
{
closed = 1;
nodes = (
(973,69,l),
(1043,225,o),
(1029,229,o),
(1053,229,cs),
(1077,229,o),
(1077,224,o),
(1077,185,cs),
(1077,49,ls),
(1077,0,o),
(1066,0,o),
(1023,0,cs),
(612,0,ls),
(600,0,o),
(595,5,o),
(595,17,cs),
(595,76,l),
(595,648,l),
(595,683,ls),
(595,695,o),
(600,700,o),
(612,700,c),
(1023,700,l),
(1066,700,o),
(1077,700,o),
(1077,651,c),
(1077,515,l),
(1077,476,o),
(1077,471,o),
(1053,471,cs),
(1029,471,o),
(1043,475,o),
(973,631,c),
(675,631,l),
(675,389,l),
(894,389,l),
(894,457,ls),
(894,466,o),
(898,470,o),
(907,470,cs),
(949,470,ls),
(958,470,o),
(962,466,o),
(962,457,cs),
(962,253,ls),
(962,244,o),
(958,240,o),
(949,240,cs),
(907,240,ls),
(898,240,o),
(894,244,o),
(894,253,cs),
(894,389,l),
(916,389,ls),
(925,389,o),
(929,385,o),
(929,376,cs),
(929,334,ls),
(929,325,o),
(925,321,o),
(916,321,cs),
(675,321,l),
(675,69,l)
);
},
{
closed = 1;
nodes = (
(156,-16,o),
(15,149,o),
(15,355,cs),
(15,548,o),
(137,716,o),
(336,716,cs),
(534,716,o),
(675,551,o),
(675,345,cs),
(675,152,o),
(553,-16,o),
(354,-16,cs)
);
},
{
closed = 1;
nodes = (
(513,53,o),
(589,146,o),
(589,312,cs),
(589,503,o),
(493,647,o),
(317,647,cs),
(177,647,o),
(101,554,o),
(101,388,cs),
(101,197,o),
(197,53,o),
(373,53,cs)
);
}
);
width = 1127;
},
{
associatedMasterId = m01;
layerId = "A0ED1263-2045-406A-8A0E-60D6FBDA98F3";
name = "27 mars 25 à 16:29";
shapes = (
{
closed = 1;
nodes = (
(962,244,o),
(958,240,o),
(949,240,cs),
(907,240,ls),
(898,240,o),
(894,244,o),
(894,253,cs),
(894,457,ls),
(894,466,o),
(898,470,o),
(907,470,cs),
(949,470,ls),
(958,470,o),
(962,466,o),
(962,457,cs),
(962,253,ls)
);
},
{
closed = 1;
nodes = (
(675,680,l),
(675,26,l),
(595,26,l),
(595,680,l)
);
},
{
closed = 1;
nodes = (
(607,321,o),
(603,325,o),
(603,334,cs),
(603,376,ls),
(603,385,o),
(607,389,o),
(616,389,cs),
(916,389,ls),
(925,389,o),
(929,385,o),
(929,376,cs),
(929,334,ls),
(929,325,o),
(925,321,o),
(916,321,cs),
(616,321,ls)
);
},
{
closed = 1;
nodes = (
(612,631,ls),
(600,631,o),
(595,636,o),
(595,648,cs),
(595,683,ls),
(595,695,o),
(600,700,o),
(612,700,c),
(1023,700,l),
(1066,700,o),
(1077,700,o),
(1077,651,c),
(1077,515,l),
(1077,476,o),
(1077,471,o),
(1053,471,cs),
(1029,471,o),
(1043,475,o),
(973,631,c)
);
},
{
closed = 1;
nodes = (
(1043,225,o),
(1029,229,o),
(1053,229,cs),
(1077,229,o),
(1077,224,o),
(1077,185,c),
(1077,49,l),
(1077,0,o),
(1066,0,o),
(1023,0,c),
(612,0,l),
(600,0,o),
(595,5,o),
(595,17,cs),
(595,52,ls),
(595,64,o),
(600,69,o),
(612,69,cs),
(973,69,l)
);
},
{
closed = 1;
nodes = (
(156,-16,o),
(15,149,o),
(15,355,cs),
(15,548,o),
(137,716,o),
(336,716,cs),
(534,716,o),
(675,551,o),
(675,345,cs),
(675,152,o),
(553,-16,o),
(354,-16,cs)
);
},
{
closed = 1;
nodes = (
(513,53,o),
(589,146,o),
(589,312,cs),
(589,503,o),
(493,647,o),
(317,647,cs),
(177,647,o),
(101,554,o),
(101,388,cs),
(101,197,o),
(197,53,o),
(373,53,cs)
);
}
);
width = 1127;
}
);
unicode = 338;
},
{
color = 5;
glyphname = P;
lastChange = "2025-04-19 10:06:11 +0000";
layers = (
{
layerId = m01;
shapes = (
{
closed = 1;
nodes = (
(330,0,ls),
(339,0,o),
(343,4,o),
(343,13,cs),
(343,56,ls),
(343,65,o),
(339,69,o),
(330,69,cs),
(58,69,ls),
(49,69,o),
(45,65,o),
(45,56,cs),
(45,13,ls),
(45,4,o),
(49,0,o),
(58,0,cs)
);
},
{
closed = 1;
nodes = (
(153,54,l),
(235,54,l),
(235,665,l),
(153,665,l)
);
},
{
closed = 1;
nodes = (
(533,304,o),
(638,375,o),
(638,501,cs),
(638,627,o),
(533,700,o),
(421,700,cs),
(62,700,l),
(50,700,o),
(45,695,o),
(45,683,cs),
(45,648,ls),
(45,636,o),
(50,631,o),
(62,631,cs),
(421,631,ls),
(508,631,o),
(556,577,o),
(556,501,cs),
(556,424,o),
(508,373,o),
(421,373,cs),
(206,372,l),
(206,304,l),
(421,304,ls)
);
}
);
width = 683;
},
{
associatedMasterId = m01;
layerId = "4B5F54FA-2335-48A5-97C6-59A3A550956C";
name = "10 avr. 25 à 11:16";
shapes = (
{
closed = 1;
nodes = (
(305,0,ls),
(314,0,o),
(318,4,o),
(318,13,cs),
(318,56,ls),
(318,65,o),
(314,69,o),
(305,69,cs),
(33,69,ls),
(24,69,o),
(20,65,o),
(20,56,cs),
(20,13,ls),
(20,4,o),
(24,0,o),
(33,0,cs)
);
},
{
closed = 1;
nodes = (
(128,54,l),
(210,54,l),
(210,665,l),
(128,665,l)
);
},
{
closed = 1;
nodes = (
(465,304,o),
(613,367,o),
(613,511,cs),
(613,621,o),
(518,700,o),
(391,700,c),
(37,700,l),
(25,700,o),
(20,695,o),
(20,683,cs),
(20,648,ls),
(20,636,o),
(25,631,o),
(37,631,cs),
(381,631,ls),
(451,631,o),
(531,581,o),
(531,511,cs),
(531,428,o),
(451,373,o),
(381,373,c),
(181,372,l),
(181,304,l),
(381,304,l)
);
}
);
width = 633;
},
{
associatedMasterId = m01;
layerId = "F5A4BB24-CE1A-45D9-A817-546B105D438A";
name = "14 avr. 25 à 12:32";
shapes = (
{
closed = 1;
nodes = (
(305,0,ls),
(314,0,o),
(318,4,o),
(318,13,cs),
(318,56,ls),
(318,65,o),
(314,69,o),
(305,69,cs),
(33,69,ls),
(24,69,o),
(20,65,o),
(20,56,cs),
(20,13,ls),
(20,4,o),
(24,0,o),
(33,0,cs)
);
},
{
closed = 1;
nodes = (
(128,54,l),
(210,54,l),
(210,665,l),
(128,665,l)
);
},
{
closed = 1;
nodes = (
(480,304,o),
(613,363,o),
(613,501,cs),
(613,617,o),
(523,700,o),
(396,700,cs),
(37,700,l),
(25,700,o),
(20,695,o),
(20,683,cs),
(20,648,ls),
(20,636,o),
(25,631,o),
(37,631,cs),
(396,631,ls),
(466,631,o),
(531,577,o),
(531,501,cs),
(531,424,o),
(476,373,o),
(396,373,cs),
(181,372,l),
(181,304,l),
(396,304,ls)
);
}
);
width = 633;
}
);
metricLeft = n;
metricRight = n;
unicode = 80;
},
{
glyphname = Thorn;
lastChange = "2025-04-14 07:27:52 +0000";
layers = (
{
layerId = m01;
shapes = (
{
closed = 1;
nodes = (
(304,0,ls),
(313,0,o),
(317,4,o),
(317,13,cs),
(317,56,ls),
(317,65,o),
(313,69,o),
(304,69,cs),
(32,69,ls),
(23,69,o),
(19,65,o),
(19,56,cs),
(19,13,ls),
(19,4,o),
(23,0,o),
(32,0,cs)
);
},
{
closed = 1;
nodes = (
(127,54,l),
(209,54,l),
(209,665,l),
(127,665,l)
);
},
{
closed = 1;
nodes = (
(380,501,ls),
(450,501,o),
(530,451,o),
(530,381,cs),
(530,298,o),
(450,243,o),
(380,243,c),
(180,242,l),
(180,174,l),
(380,174,l),
(464,174,o),
(612,237,o),
(612,381,cs),
(612,491,o),
(517,570,o),
(390,570,c),
(202,570,l),
(202,501,l)
);
},
{
closed = 1;
nodes = (
(304,647,ls),
(313,647,o),
(317,651,o),
(317,660,cs),
(317,703,ls),
(317,712,o),
(313,716,o),
(304,716,cs),
(32,716,ls),
(23,716,o),
(19,712,o),
(19,703,cs),
(19,660,ls),
(19,651,o),
(23,647,o),
(32,647,cs)
);
}
);
width = 600;
}
);
unicode = 222;
},
{
color = 5;
glyphname = Q;
lastChange = "2025-04-19 10:07:55 +0000";
layers = (
{
backgroundImage = {
imagePath = "GLYPH/LETTRE/Q.png";
locked = 1;
pos = (39,-193);
scale = (2.0029,2.0029);
};
layerId = m01;
shapes = (
{
closed = 1;
nodes = (
(191,-16,o),
(50,149,o),
(50,355,cs),
(50,548,o),
(172,716,o),
(371,716,cs),
(569,716,o),
(710,551,o),
(710,345,cs),
(710,152,o),
(588,-16,o),
(389,-16,cs)
);
},
{
closed = 1;
nodes = (
(548,53,o),
(624,146,o),
(624,312,cs),
(624,503,o),
(528,647,o),
(352,647,cs),
(212,647,o),
(136,554,o),
(136,388,cs),
(136,197,o),
(232,53,o),
(408,53,cs)
);
},
{
closed = 1;
nodes = (
(439,15,l),
(442,-35,o),
(513,-106,o),
(593,-106,cs),
(655,-106,o),
(677,-77,o),
(697,-77,cs),
(714,-77,o),
(726,-113,o),
(726,-130,cs),
(726,-145,o),
(688,-175,o),
(593,-175,cs),
(450,-175,o),
(340,-48,o),
(340,15,c)
);
}
);
width = 776;
},
{
associatedMasterId = m01;
backgroundImage = {
imagePath = "GLYPH/LETTRE/Q.png";
pos = (4,-193);
scale = (2.0029,2.0029);
};
layerId = "475AEB92-C160-47A5-8E4B-EE2BE5D612F4";
name = "19 avr. 25 à 08:49";
shapes = (
{
closed = 1;
nodes = (
(156,-16,o),
(15,149,o),
(15,355,cs),
(15,548,o),
(137,716,o),
(336,716,cs),
(534,716,o),
(675,551,o),
(675,345,cs),
(675,152,o),
(553,-16,o),
(354,-16,cs)
);
},
{
closed = 1;
nodes = (
(513,53,o),
(589,146,o),
(589,312,cs),
(589,503,o),
(493,647,o),
(317,647,cs),
(177,647,o),
(101,554,o),
(101,388,cs),
(101,197,o),
(197,53,o),
(373,53,cs)
);
},
{
closed = 1;
nodes = (
(404,15,l),
(404,-74,o),
(481,-136,o),
(578,-136,cs),
(636,-136,o),
(672,-87,o),
(692,-87,cs),
(709,-87,o),
(721,-123,o),
(721,-140,cs),
(721,-155,o),
(661,-205,o),
(578,-205,cs),
(378,-205,o),
(305,-48,o),
(305,15,c)
);
}
);
width = 690;
},
{
associatedMasterId = m01;
backgroundImage = {
imagePath = "GLYPH/LETTRE/Q.png";
locked = 1;
pos = (4,-193);
scale = (2.0029,2.0029);
};
layerId = "34447362-E8D9-45E3-8842-113940F33614";
name = "19 avr. 25 à 08:51";
shapes = (
{
closed = 1;
nodes = (
(156,-16,o),
(15,149,o),
(15,355,cs),
(15,548,o),
(137,716,o),
(336,716,cs),
(534,716,o),
(675,551,o),
(675,345,cs),
(675,152,o),
(553,-16,o),
(354,-16,cs)
);
},
{
closed = 1;
nodes = (
(513,53,o),
(589,146,o),
(589,312,cs),
(589,503,o),
(493,647,o),
(317,647,cs),
(177,647,o),
(101,554,o),
(101,388,cs),
(101,197,o),
(197,53,o),
(373,53,cs)
);
},
{
closed = 1;
nodes = (
(404,15,l),
(407,-35,o),
(478,-106,o),
(558,-106,cs),
(620,-106,o),
(642,-77,o),
(662,-77,cs),
(679,-77,o),
(691,-113,o),
(691,-130,cs),
(691,-145,o),
(653,-175,o),
(558,-175,cs),
(415,-175,o),
(305,-48,o),
(305,15,c)
);
}
);
width = 690;
},
{
associatedMasterId = m01;
backgroundImage = {
imagePath = "GLYPH/LETTRE/Q.png";
locked = 1;
pos = (4,-193);
scale = (2.0029,2.0029);
};
layerId = "2A52CEBF-FDD6-4570-A6BB-67A6329D88D4";
name = "19 avr. 25 à 08:53";
shapes = (
{
closed = 1;
nodes = (
(156,-16,o),
(15,149,o),
(15,355,cs),
(15,548,o),
(137,716,o),
(336,716,cs),
(534,716,o),
(675,551,o),
(675,345,cs),
(675,152,o),
(553,-16,o),
(354,-16,cs)
);
},
{
closed = 1;
nodes = (
(513,53,o),
(589,146,o),
(589,312,cs),
(589,503,o),
(493,647,o),
(317,647,cs),
(177,647,o),
(101,554,o),
(101,388,cs),
(101,197,o),
(197,53,o),
(373,53,cs)
);
},
{
closed = 1;
nodes = (
(381,188,o),
(381,193,o),
(387,200,cs),
(417,230,ls),
(424,237,o),
(429,237,o),
(436,230,cs),
(628,38,ls),
(634,32,o),
(634,26,o),
(628,19,cs),
(598,-11,ls),
(591,-17,o),
(586,-17,o),
(579,-11,cs),
(387,181,ls)
);
}
);
width = 690;
}
);
metricLeft = O;
metricRight = O;
unicode = 81;
},
{
color = 5;
glyphname = R;
lastChange = "2025-04-19 11:26:42 +0000";
layers = (
{
background = {
shapes = (
{
closed = 1;
nodes = (
(262,429,l),
(459,61,l),
(558,61,l),
(328,481,l)
);
}
);
};
backgroundImage = {
imagePath = "GLYPH/LETTRE/R copie.png";
locked = 1;
pos = (-4,-22);
scale = (2.3346,2.3346);
};
layerId = m01;
shapes = (
{
closed = 1;
nodes = (
(418,69,ls),
(409,69,o),
(405,65,o),
(405,56,cs),
(405,13,ls),
(405,4,o),
(409,0,o),
(418,0,cs),
(630,0,ls),
(639,0,o),
(643,4,o),
(643,13,cs),
(643,56,ls),
(643,65,o),
(639,69,o),
(630,69,cs)
);
},
{
closed = 1;
nodes = (
(336,312,l),
(487,61,l),
(579,61,l),
(428,312,l)
);
},
{
closed = 1;
nodes = (
(330,0,ls),
(339,0,o),
(343,4,o),
(343,13,cs),
(343,56,ls),
(343,65,o),
(339,69,o),
(330,69,cs),
(58,69,ls),
(49,69,o),
(45,65,o),
(45,56,cs),
(45,13,ls),
(45,4,o),
(49,0,o),
(58,0,cs)
);
},
{
closed = 1;
nodes = (
(153,54,l),
(235,54,l),
(235,665,l),
(153,665,l)
);
},
{
closed = 1;
nodes = (
(533,304,o),
(638,375,o),
(638,501,cs),
(638,627,o),
(533,700,o),
(421,700,cs),
(62,700,l),
(50,700,o),
(45,695,o),
(45,683,cs),
(45,648,ls),
(45,636,o),
(50,631,o),
(62,631,cs),
(421,631,ls),
(508,631,o),
(556,577,o),
(556,501,cs),
(556,424,o),
(508,373,o),
(421,373,cs),
(206,372,l),
(206,304,l),
(421,304,ls)
);
}
);
width = 688;
},
{
associatedMasterId = m01;
backgroundImage = {
imagePath = "GLYPH/LETTRE/R copie.png";
locked = 1;
pos = (-4,-22);
scale = (2.3346,2.3346);
};
layerId = "7292916D-E122-4BB3-9A59-2830314AA9C5";
name = "3 avr. 25 à 15:49";
shapes = (
{
closed = 1;
nodes = (
(305,0,ls),
(314,0,o),
(318,4,o),
(318,13,cs),
(318,56,ls),
(318,65,o),
(314,69,o),
(305,69,cs),
(33,69,ls),
(24,69,o),
(20,65,o),
(20,56,cs),
(20,13,ls),
(20,4,o),
(24,0,o),
(33,0,cs)
);
},
{
closed = 1;
nodes = (
(128,54,l),
(210,54,l),
(210,665,l),
(128,665,l)
);
},
{
closed = 1;
nodes = (
(465,304,o),
(613,367,o),
(613,511,cs),
(613,621,o),
(518,700,o),
(391,700,c),
(37,700,l),
(25,700,o),
(20,695,o),
(20,683,cs),
(20,648,ls),
(20,636,o),
(25,631,o),
(37,631,cs),
(381,631,ls),
(451,631,o),
(531,581,o),
(531,511,cs),
(531,428,o),
(451,373,o),
(381,373,c),
(181,372,l),
(181,304,l),
(381,304,l)
);
},
{
closed = 1;
nodes = (
(350,255,o),
(548,0,o),
(658,0,c),
(658,80,l),
(590,80,o),
(430,261,o),
(430,334,c),
(350,334,l)
);
}
);
width = 697;
},
{
associatedMasterId = m01;
backgroundImage = {
imagePath = "GLYPH/LETTRE/R copie.png";
locked = 1;
pos = (-4,-22);
scale = (2.3346,2.3346);
};
layerId = "4538790A-474E-4CF4-9959-C4A726ADF805";
name = "4 avr. 25 à 09:43";
shapes = (
{
closed = 1;
nodes = (
(305,0,ls),
(314,0,o),
(318,4,o),
(318,13,cs),
(318,56,ls),
(318,65,o),
(314,69,o),
(305,69,cs),
(33,69,ls),
(24,69,o),
(20,65,o),
(20,56,cs),
(20,13,ls),
(20,4,o),
(24,0,o),
(33,0,cs)
);
},
{
closed = 1;
nodes = (
(128,54,l),
(210,54,l),
(210,665,l),
(128,665,l)
);
},
{
closed = 1;
nodes = (
(465,304,o),
(613,367,o),
(613,511,cs),
(613,621,o),
(518,700,o),
(391,700,c),
(37,700,l),
(25,700,o),
(20,695,o),
(20,683,cs),
(20,648,ls),
(20,636,o),
(25,631,o),
(37,631,cs),
(381,631,ls),
(451,631,o),
(531,581,o),
(531,511,cs),
(531,428,o),
(451,373,o),
(381,373,c),
(181,372,l),
(181,304,l),
(381,304,l)
);
},
{
closed = 1;
nodes = (
(350,255,o),
(548,9,o),
(658,9,cs),
(697,9,o),
(695,82,o),
(658,89,c),
(590,89,o),
(430,261,o),
(430,334,c),
(350,334,l)
);
}
);
width = 697;
},
{
associatedMasterId = m01;
backgroundImage = {
imagePath = "GLYPH/LETTRE/R copie.png";
locked = 1;
pos = (-4,-22);
scale = (2.3346,2.3346);
};
layerId = "CC09E924-04D4-4871-AB7D-C05E3963A324";
name = "10 avr. 25 à 11:18";
shapes = (
{
closed = 1;
nodes = (
(305,0,ls),
(314,0,o),
(318,4,o),
(318,13,cs),
(318,56,ls),
(318,65,o),
(314,69,o),
(305,69,cs),
(33,69,ls),
(24,69,o),
(20,65,o),
(20,56,cs),
(20,13,ls),
(20,4,o),
(24,0,o),
(33,0,cs)
);
},
{
closed = 1;
nodes = (
(128,54,l),
(210,54,l),
(210,665,l),
(128,665,l)
);
},
{
closed = 1;
nodes = (
(465,304,o),
(613,367,o),
(613,511,cs),
(613,621,o),
(518,700,o),
(391,700,c),
(37,700,l),
(25,700,o),
(20,695,o),
(20,683,cs),
(20,648,ls),
(20,636,o),
(25,631,o),
(37,631,cs),
(381,631,ls),
(451,631,o),
(531,581,o),
(531,511,cs),
(531,428,o),
(451,373,o),
(381,373,c),
(181,372,l),
(181,304,l),
(381,304,l)
);
},
{
closed = 1;
nodes = (
(350,225,o),
(548,36,o),
(668,0,c),
(668,80,l),
(590,106,o),
(430,251,o),
(430,334,c),
(350,334,l)
);
}
);
width = 697;
}
);
metricLeft = n;
metricRight = n;
unicode = 82;
},
{
color = 5;
glyphname = S;
lastChange = "2025-04-19 11:28:43 +0000";
layers = (
{
background = {
shapes = (
{
closed = 1;
nodes = (
(485,481,ls),
(497,481,o),
(503,486,o),
(503,499,cs),
(503,716,l),
(463,716,l),
(400,654,l),
(377,666,o),
(321,716,o),
(254,716,cs),
(154,716,o),
(45,666,o),
(45,543,cs),
(45,308,o),
(446,375,o),
(446,178,c),
(446,114,o),
(398,53,o),
(320,53,cs),
(220,53,o),
(94,219,o),
(85,219,c),
(63,219,ls),
(51,219,o),
(45,214,o),
(45,201,cs),
(45,-16,l),
(85,-16,l),
(148,46,l),
(159,42,o),
(227,-16,o),
(320,-16,cs),
(452,-16,o),
(532,86,o),
(532,178,cs),
(532,427,o),
(127,382,o),
(127,543,c),
(127,611,o),
(185,647,o),
(254,647,cs),
(361,647,o),
(454,481,o),
(463,481,c)
);
}
);
};
backgroundImage = {
imagePath = "GLYPH/LETTRE/S copie.png";
locked = 1;
pos = (14,-41);
scale = (3.5402,3.5402);
};
layerId = m01;
shapes = (
{
closed = 1;
nodes = (
(213,57,o),
(120,219,o),
(111,219,c),
(89,219,ls),
(77,219,o),
(71,214,o),
(71,201,cs),
(71,0,l),
(71,-14,o),
(76,-16,o),
(89,-16,cs),
(104,-16,o),
(106,-10,o),
(111,0,c),
(148,80,l),
(179,35,o),
(253,-16,o),
(320,-16,cs),
(452,-16,o),
(532,86,o),
(532,178,cs),
(532,427,o),
(131,379,o),
(131,540,c),
(131,608,o),
(185,643,o),
(254,643,c),
(361,643,o),
(454,481,o),
(463,481,c),
(485,481,ls),
(497,481,o),
(503,486,o),
(503,499,cs),
(503,700,l),
(503,714,o),
(498,716,o),
(485,716,cs),
(470,716,o),
(468,710,o),
(463,700,c),
(426,620,l),
(395,665,o),
(321,716,o),
(254,716,cs),
(154,716,o),
(45,663,o),
(45,540,cs),
(45,305,o),
(442,375,o),
(442,178,c),
(442,114,o),
(398,57,o),
(320,57,cs)
);
}
);
width = 577;
},
{
associatedMasterId = m01;
backgroundImage = {
imagePath = "GLYPH/LETTRE/S copie.png";
locked = 1;
pos = (23,-41);
scale = (3.5402,3.5402);
};
layerId = "BC3170AE-9829-488E-9C94-8AACA1EDE376";
name = "25 mars 25 à 16:22";
shapes = (
{
closed = 1;
nodes = (
(54,-16,l),
(54,201,ls),
(54,214,o),
(60,219,o),
(72,219,cs),
(84,219,ls),
(101,219,o),
(178,70,o),
(329,70,cs),
(383,70,o),
(427,120,o),
(427,191,c),
(427,382,o),
(54,308,o),
(54,551,cs),
(54,670,o),
(172,716,o),
(270,716,cs),
(330,716,o),
(409,681,o),
(432,669,c),
(512,716,l),
(513,498,ls),
(513,486,o),
(508,481,o),
(496,481,cs),
(483,481,ls),
(467,481,o),
(417,633,o),
(270,633,cs),
(194,633,o),
(164,591,o),
(164,551,c),
(164,382,o),
(541,473,o),
(541,191,cs),
(541,76,o),
(461,-16,o),
(329,-16,cs),
(270,-16,o),
(168,25,o),
(157,29,c)
);
},
{
closed = 1;
nodes = (
(125,9,ls),
(125,0,o),
(122,-4,o),
(112,-4,cs),
(70,-4,l),
(61,-4,o),
(57,0,o),
(57,9,cs),
(57,213,ls),
(57,222,o),
(61,226,o),
(70,226,cs),
(112,226,ls),
(121,226,o),
(125,222,o),
(125,213,cs),
(125,71,l)
);
}
);
width = 600;
},
{
associatedMasterId = m01;
backgroundImage = {
imagePath = "GLYPH/LETTRE/S copie.png";
locked = 1;
pos = (23,-41);
scale = (3.5402,3.5402);
};
layerId = "803164E5-BAD7-4456-8EA0-F72477CB044E";
name = "27 mars 25 à 13:28";
shapes = (
{
closed = 1;
nodes = (
(494,481,ls),
(506,481,o),
(512,486,o),
(512,499,cs),
(512,716,l),
(472,716,l),
(409,654,l),
(386,666,o),
(330,716,o),
(263,716,cs),
(163,716,o),
(54,666,o),
(54,543,cs),
(54,308,o),
(455,375,o),
(455,178,c),
(455,114,o),
(407,53,o),
(329,53,cs),
(229,53,o),
(103,219,o),
(94,219,c),
(72,219,ls),
(60,219,o),
(54,214,o),
(54,201,cs),
(54,-16,l),
(94,-16,l),
(157,46,l),
(168,42,o),
(236,-16,o),
(329,-16,cs),
(461,-16,o),
(541,86,o),
(541,178,cs),
(541,427,o),
(136,382,o),
(136,543,c),
(136,611,o),
(194,647,o),
(263,647,cs),
(370,647,o),
(463,481,o),
(472,481,c)
);
}
);
width = 581;
},
{
associatedMasterId = m01;
background = {
shapes = (
{
closed = 1;
nodes = (
(494,481,ls),
(506,481,o),
(512,486,o),
(512,499,cs),
(512,716,l),
(472,716,l),
(409,654,l),
(386,666,o),
(330,716,o),
(263,716,cs),
(163,716,o),
(54,666,o),
(54,543,cs),
(54,308,o),
(455,375,o),
(455,178,c),
(455,114,o),
(407,53,o),
(329,53,cs),
(229,53,o),
(103,219,o),
(94,219,c),
(72,219,ls),
(60,219,o),
(54,214,o),
(54,201,cs),
(54,-16,l),
(94,-16,l),
(157,46,l),
(168,42,o),
(236,-16,o),
(329,-16,cs),
(461,-16,o),
(541,86,o),
(541,178,cs),
(541,427,o),
(136,382,o),
(136,543,c),
(136,611,o),
(194,647,o),
(263,647,cs),
(370,647,o),
(463,481,o),
(472,481,c)
);
}
);
};
backgroundImage = {
imagePath = "GLYPH/LETTRE/S copie.png";
locked = 1;
pos = (23,-41);
scale = (3.5402,3.5402);
};
layerId = "6891CFB4-F699-4265-A071-B02CDABA0815";
name = "10 avr. 25 à 11:23";
shapes = (
{
closed = 1;
nodes = (
(510,703,o),
(512,702,o),
(512,700,c),
(512,499,ls),
(512,486,o),
(506,481,o),
(494,481,cs),
(472,481,l),
(463,481,o),
(370,647,o),
(263,647,cs),
(194,647,o),
(136,608,o),
(136,540,c),
(136,379,o),
(541,427,o),
(541,178,cs),
(541,86,o),
(461,-16,o),
(329,-16,cs),
(236,-16,o),
(165,34,o),
(131,82,c),
(94,0,l),
(54,0,l),
(54,201,ls),
(54,214,o),
(60,219,o),
(72,219,cs),
(94,219,ls),
(103,219,o),
(229,53,o),
(329,53,cs),
(407,53,o),
(455,114,o),
(455,178,c),
(455,375,o),
(54,305,o),
(54,540,cs),
(54,663,o),
(163,716,o),
(263,716,cs),
(330,716,o),
(404,663,o),
(435,618,c),
(472,700,l),
(473,702,o),
(475,703,o),
(477,703,c),
(508,703,ls)
);
}
);
width = 581;
},
{
associatedMasterId = m01;
background = {
shapes = (
{
closed = 1;
nodes = (
(494,481,ls),
(506,481,o),
(512,486,o),
(512,499,cs),
(512,716,l),
(472,716,l),
(409,654,l),
(386,666,o),
(330,716,o),
(263,716,cs),
(163,716,o),
(54,666,o),
(54,543,cs),
(54,308,o),
(455,375,o),
(455,178,c),
(455,114,o),
(407,53,o),
(329,53,cs),
(229,53,o),
(103,219,o),
(94,219,c),
(72,219,ls),
(60,219,o),
(54,214,o),
(54,201,cs),
(54,-16,l),
(94,-16,l),
(157,46,l),
(168,42,o),
(236,-16,o),
(329,-16,cs),
(461,-16,o),
(541,86,o),
(541,178,cs),
(541,427,o),
(136,382,o),
(136,543,c),
(136,611,o),
(194,647,o),
(263,647,cs),
(370,647,o),
(463,481,o),
(472,481,c)
);
}
);
};
backgroundImage = {
imagePath = "GLYPH/LETTRE/S copie.png";
locked = 1;
pos = (23,-41);
scale = (3.5402,3.5402);
};
layerId = "D2C7DE38-C578-4562-A43B-8B9A02596546";
name = "19 avr. 25 à 13:03";
shapes = (
{
closed = 1;
nodes = (
(222,53,o),
(129,219,o),
(120,219,c),
(98,219,ls),
(86,219,o),
(80,214,o),
(80,201,cs),
(80,0,l),
(80,-14,o),
(85,-16,o),
(98,-16,cs),
(113,-16,o),
(115,-10,o),
(120,0,c),
(157,82,l),
(188,37,o),
(262,-16,o),
(329,-16,cs),
(461,-16,o),
(541,86,o),
(541,178,cs),
(541,427,o),
(136,379,o),
(136,540,c),
(136,608,o),
(194,647,o),
(263,647,cs),
(370,647,o),
(463,481,o),
(472,481,c),
(494,481,ls),
(506,481,o),
(512,486,o),
(512,499,cs),
(512,700,l),
(512,714,o),
(507,716,o),
(494,716,cs),
(479,716,o),
(477,710,o),
(472,700,c),
(435,618,l),
(404,663,o),
(330,716,o),
(263,716,cs),
(163,716,o),
(54,663,o),
(54,540,cs),
(54,305,o),
(455,375,o),
(455,178,c),
(455,114,o),
(407,53,o),
(329,53,cs)
);
}
);
width = 581;
},
{
associatedMasterId = m01;
background = {
shapes = (
{
closed = 1;
nodes = (
(494,481,ls),
(506,481,o),
(512,486,o),
(512,499,cs),
(512,716,l),
(472,716,l),
(409,654,l),
(386,666,o),
(330,716,o),
(263,716,cs),
(163,716,o),
(54,666,o),
(54,543,cs),
(54,308,o),
(455,375,o),
(455,178,c),
(455,114,o),
(407,53,o),
(329,53,cs),
(229,53,o),
(103,219,o),
(94,219,c),
(72,219,ls),
(60,219,o),
(54,214,o),
(54,201,cs),
(54,-16,l),
(94,-16,l),
(157,46,l),
(168,42,o),
(236,-16,o),
(329,-16,cs),
(461,-16,o),
(541,86,o),
(541,178,cs),
(541,427,o),
(136,382,o),
(136,543,c),
(136,611,o),
(194,647,o),
(263,647,cs),
(370,647,o),
(463,481,o),
(472,481,c)
);
}
);
};
backgroundImage = {
imagePath = "GLYPH/LETTRE/S copie.png";
locked = 1;
pos = (23,-41);
scale = (3.5402,3.5402);
};
layerId = "AE2F60A8-20F5-4EBD-AE10-45887B7D2BC0";
name = "19 avr. 25 à 13:08";
shapes = (
{
closed = 1;
nodes = (
(222,57,o),
(129,219,o),
(120,219,c),
(98,219,ls),
(86,219,o),
(80,214,o),
(80,201,cs),
(80,0,l),
(80,-14,o),
(85,-16,o),
(98,-16,cs),
(113,-16,o),
(115,-10,o),
(120,0,c),
(157,82,l),
(188,37,o),
(262,-16,o),
(329,-16,cs),
(461,-16,o),
(541,86,o),
(541,178,cs),
(541,427,o),
(140,379,o),
(140,540,c),
(140,608,o),
(194,643,o),
(263,643,c),
(370,643,o),
(463,481,o),
(472,481,c),
(494,481,ls),
(506,481,o),
(512,486,o),
(512,499,cs),
(512,700,l),
(512,714,o),
(507,716,o),
(494,716,cs),
(479,716,o),
(477,710,o),
(472,700,c),
(435,618,l),
(404,663,o),
(330,716,o),
(263,716,cs),
(163,716,o),
(54,663,o),
(54,540,cs),
(54,305,o),
(451,375,o),
(451,178,c),
(451,114,o),
(407,57,o),
(329,57,cs)
);
}
);
width = 581;
}
);
metricLeft = n;
metricRight = n;
unicode = 83;
},
{
color = 5;
glyphname = T;
lastChange = "2025-04-19 10:04:25 +0000";
layers = (
{
layerId = m01;
shapes = (
{
closed = 1;
nodes = (
(409,20,l),
(409,674,l),
(329,674,l),
(329,20,l)
);
},
{
closed = 1;
nodes = (
(659,475,o),
(645,471,o),
(669,471,cs),
(693,471,o),
(693,476,o),
(693,515,cs),
(693,683,ls),
(693,695,o),
(688,700,o),
(676,700,cs),
(62,700,ls),
(50,700,o),
(45,695,o),
(45,683,cs),
(45,515,ls),
(45,476,o),
(45,471,o),
(69,471,cs),
(93,471,o),
(79,475,o),
(149,631,c),
(589,631,l)
);
},
{
closed = 1;
nodes = (
(199,69,o),
(195,65,o),
(195,56,cs),
(195,13,ls),
(195,4,o),
(199,0,o),
(208,0,cs),
(520,0,ls),
(529,0,o),
(533,4,o),
(533,13,cs),
(533,56,ls),
(533,65,o),
(529,69,o),
(520,69,cs),
(208,69,ls)
);
}
);
width = 738;
}
);
metricLeft = n;
metricRight = n;
unicode = 84;
},
{
color = 5;
glyphname = U;
lastChange = "2025-04-19 11:29:37 +0000";
layers = (
{
anchors = (
{
name = bottom;
pos = (372,0);
},
{
name = top;
pos = (410,700);
}
);
backgroundImage = {
imagePath = "GLYPH/LETTRE/U.png";
locked = 1;
pos = (-23,-28);
scale = (1.5119,1.5119);
};
layerId = m01;
shapes = (
{
closed = 1;
nodes = (
(290,631,ls),
(299,631,o),
(303,635,o),
(303,644,cs),
(303,687,ls),
(303,696,o),
(299,700,o),
(290,700,cs),
(58,700,ls),
(49,700,o),
(45,696,o),
(45,687,cs),
(45,644,ls),
(45,635,o),
(49,631,o),
(58,631,cs)
);
},
{
closed = 1;
nodes = (
(741,631,ls),
(750,631,o),
(754,635,o),
(754,644,cs),
(754,687,ls),
(754,696,o),
(750,700,o),
(741,700,cs),
(509,700,ls),
(500,700,o),
(496,696,o),
(496,687,cs),
(496,644,ls),
(496,635,o),
(500,631,o),
(509,631,cs)
);
},
{
closed = 1;
nodes = (
(663,644,l),
(585,644,l),
(585,338,ls),
(585,147,o),
(547,53,o),
(420,53,cs),
(283,53,o),
(217,147,o),
(217,338,cs),
(217,652,l),
(131,652,l),
(131,305,ls),
(131,99,o),
(242,-16,o),
(410,-16,cs),
(568,-16,o),
(663,99,o),
(663,305,c)
);
}
);
width = 799;
},
{
associatedMasterId = m01;
backgroundImage = {
imagePath = "GLYPH/LETTRE/U.png";
locked = 1;
pos = (-9,-28);
scale = (1.5119,1.5119);
};
layerId = "4C076509-EB02-4021-B724-427F44E11413";
name = "10 avr. 25 à 11:26";
shapes = (
{
closed = 1;
nodes = (
(271,631,ls),
(280,631,o),
(284,635,o),
(284,644,cs),
(284,687,ls),
(284,696,o),
(280,700,o),
(271,700,cs),
(39,700,ls),
(30,700,o),
(26,696,o),
(26,687,cs),
(26,644,ls),
(26,635,o),
(30,631,o),
(39,631,cs)
);
},
{
closed = 1;
nodes = (
(749,631,ls),
(758,631,o),
(762,635,o),
(762,644,cs),
(762,687,ls),
(762,696,o),
(758,700,o),
(749,700,cs),
(517,700,ls),
(508,700,o),
(504,696,o),
(504,687,cs),
(504,644,ls),
(504,635,o),
(508,631,o),
(517,631,cs)
);
},
{
closed = 1;
nodes = (
(697,644,l),
(619,644,l),
(619,252,ls),
(619,132,o),
(547,53,o),
(434,53,cs),
(297,53,o),
(211,147,o),
(211,338,cs),
(211,652,l),
(125,652,l),
(125,305,ls),
(125,99,o),
(256,-16,o),
(424,-16,cs),
(613,-16,o),
(697,112,o),
(697,285,c)
);
}
);
width = 771;
},
{
anchors = (
{
name = bottom;
pos = (386,0);
},
{
name = top;
pos = (386,700);
}
);
associatedMasterId = m01;
backgroundImage = {
imagePath = "GLYPH/LETTRE/U.png";
locked = 1;
pos = (-9,-28);
scale = (1.5119,1.5119);
};
layerId = "1498D65B-69D9-4573-B766-B6CFA664E659";
name = "14 avr. 25 à 12:35";
shapes = (
{
closed = 1;
nodes = (
(284,631,ls),
(293,631,o),
(297,635,o),
(297,644,cs),
(297,687,ls),
(297,696,o),
(293,700,o),
(284,700,cs),
(52,700,ls),
(43,700,o),
(39,696,o),
(39,687,cs),
(39,644,ls),
(39,635,o),
(43,631,o),
(52,631,cs)
);
},
{
closed = 1;
nodes = (
(775,631,ls),
(784,631,o),
(788,635,o),
(788,644,cs),
(788,687,ls),
(788,696,o),
(784,700,o),
(775,700,cs),
(543,700,ls),
(534,700,o),
(530,696,o),
(530,687,cs),
(530,644,ls),
(530,635,o),
(534,631,o),
(543,631,cs)
);
},
{
closed = 1;
nodes = (
(697,644,l),
(619,644,l),
(619,252,ls),
(619,132,o),
(547,53,o),
(434,53,cs),
(297,53,o),
(211,147,o),
(211,338,cs),
(211,652,l),
(125,652,l),
(125,305,ls),
(125,99,o),
(256,-16,o),
(424,-16,cs),
(613,-16,o),
(697,112,o),
(697,285,c)
);
}
);
width = 771;
}
);
metricLeft = n;
metricRight = n;
unicode = 85;
},
{
color = 5;
glyphname = V;
lastChange = "2025-04-19 10:32:57 +0000";
layers = (
{
backgroundImage = {
imagePath = "GLYPH/LETTRE/V copie.png";
locked = 1;
pos = (-54,-190);
scale = (10.5865,10.5865);
};
layerId = m01;
shapes = (
{
closed = 1;
nodes = (
(270,631,ls),
(279,631,o),
(283,635,o),
(283,644,cs),
(283,687,ls),
(283,696,o),
(279,700,o),
(270,700,cs),
(28,700,ls),
(19,700,o),
(15,696,o),
(15,687,cs),
(15,644,ls),
(15,635,o),
(19,631,o),
(28,631,cs)
);
},
{
closed = 1;
nodes = (
(678,631,ls),
(687,631,o),
(691,635,o),
(691,644,cs),
(691,687,ls),
(691,696,o),
(687,700,o),
(678,700,cs),
(466,700,l),
(457,700,o),
(453,696,o),
(453,687,c),
(453,644,l),
(453,635,o),
(457,631,o),
(466,631,c)
);
},
{
closed = 1;
nodes = (
(616,644,l),
(544,644,l),
(373,174,l),
(197,632,l),
(105,632,l),
(348,0,l),
(382,0,l)
);
}
);
width = 706;
}
);
metricLeft = v;
metricRight = v;
unicode = 86;
},
{
color = 5;
glyphname = W;
lastChange = "2025-04-19 10:39:46 +0000";
layers = (
{
background = {
shapes = (
{
closed = 1;
nodes = (
(270,631,ls),
(279,631,o),
(283,635,o),
(283,644,cs),
(283,687,ls),
(283,696,o),
(279,700,o),
(270,700,cs),
(28,700,ls),
(19,700,o),
(15,696,o),
(15,687,cs),
(15,644,ls),
(15,635,o),
(19,631,o),
(28,631,cs)
);
},
{
closed = 1;
nodes = (
(678,631,ls),
(687,631,o),
(691,635,o),
(691,644,cs),
(691,687,ls),
(691,696,o),
(687,700,o),
(678,700,cs),
(466,700,l),
(457,700,o),
(453,696,o),
(453,687,c),
(453,644,l),
(453,635,o),
(457,631,o),
(466,631,c)
);
},
{
closed = 1;
nodes = (
(616,644,l),
(544,644,l),
(373,174,l),
(197,632,l),
(105,632,l),
(348,0,l),
(382,0,l)
);
},
{
closed = 1;
nodes = (
(1086,631,ls),
(1095,631,o),
(1099,635,o),
(1099,644,cs),
(1099,687,ls),
(1099,696,o),
(1095,700,o),
(1086,700,cs),
(874,700,l),
(865,700,o),
(861,696,o),
(861,687,c),
(861,644,l),
(861,635,o),
(865,631,o),
(874,631,c)
);
},
{
closed = 1;
nodes = (
(1024,644,l),
(952,644,l),
(781,174,l),
(605,632,l),
(513,632,l),
(756,0,l),
(790,0,l)
);
}
);
};
layerId = m01;
shapes = (
{
closed = 1;
nodes = (
(270,631,ls),
(279,631,o),
(283,635,o),
(283,644,cs),
(283,687,ls),
(283,696,o),
(279,700,o),
(270,700,cs),
(28,700,ls),
(19,700,o),
(15,696,o),
(15,687,cs),
(15,644,ls),
(15,635,o),
(19,631,o),
(28,631,cs)
);
},
{
closed = 1;
nodes = (
(678,631,ls),
(687,631,o),
(691,635,o),
(691,644,cs),
(691,687,ls),
(691,696,o),
(687,700,o),
(678,700,cs),
(466,700,l),
(457,700,o),
(453,696,o),
(453,687,c),
(453,644,l),
(453,635,o),
(457,631,o),
(466,631,c)
);
},
{
closed = 1;
nodes = (
(599,597,l),
(544,644,l),
(373,174,l),
(197,632,l),
(105,632,l),
(348,0,l),
(382,0,l)
);
},
{
closed = 1;
nodes = (
(1086,631,ls),
(1095,631,o),
(1099,635,o),
(1099,644,cs),
(1099,687,ls),
(1099,696,o),
(1095,700,o),
(1086,700,cs),
(874,700,l),
(865,700,o),
(861,696,o),
(861,687,c),
(861,644,l),
(861,635,o),
(865,631,o),
(874,631,c)
);
},
{
closed = 1;
nodes = (
(1024,644,l),
(952,644,l),
(781,174,l),
(605,632,l),
(513,632,l),
(756,0,l),
(790,0,l)
);
}
);
width = 1114;
},
{
associatedMasterId = m01;
backgroundImage = {
imagePath = "GLYPH/LETTRE/W.png";
locked = 1;
pos = (-171,-13);
scale = (2.0291,2.0291);
};
layerId = "F7364B48-7F86-48C1-9123-CE64B1327DA9";
name = "26 mars 25 à 10:39";
shapes = (
{
closed = 1;
nodes = (
(84,631,ls),
(93,631,o),
(97,635,o),
(97,644,cs),
(97,687,ls),
(97,696,o),
(93,700,o),
(84,700,cs),
(-148,700,ls),
(-157,700,o),
(-161,696,o),
(-161,687,cs),
(-161,644,ls),
(-161,635,o),
(-157,631,o),
(-148,631,cs)
);
},
{
closed = 1;
nodes = (
(467,636,l),
(398,636,l),
(197,154,l),
(13,632,l),
(-92,632,l),
(151,0,l),
(202,0,l)
);
},
{
closed = 1;
nodes = (
(523,631,ls),
(532,631,o),
(536,635,o),
(536,644,cs),
(536,687,ls),
(536,696,o),
(532,700,o),
(523,700,cs),
(411,700,ls),
(402,700,o),
(398,696,o),
(398,687,cs),
(398,644,ls),
(398,623,o),
(402,631,o),
(411,631,cs)
);
},
{
closed = 1;
nodes = (
(852,631,o),
(856,635,o),
(856,644,cs),
(856,687,ls),
(856,696,o),
(852,700,o),
(843,700,cs),
(611,700,ls),
(602,700,o),
(598,696,o),
(598,687,cs),
(598,644,ls),
(598,635,o),
(602,631,o),
(611,631,cs),
(843,631,ls)
);
},
{
closed = 1;
nodes = (
(544,0,l),
(787,632,l),
(682,632,l),
(498,154,l),
(297,636,l),
(228,636,l),
(493,0,l)
);
},
{
closed = 1;
nodes = (
(293,631,o),
(297,623,o),
(297,644,cs),
(297,687,ls),
(297,696,o),
(293,700,o),
(284,700,cs),
(172,700,ls),
(163,700,o),
(159,696,o),
(159,687,cs),
(159,644,ls),
(159,635,o),
(163,631,o),
(172,631,cs),
(284,631,ls)
);
}
);
width = 754;
},
{
associatedMasterId = m01;
backgroundImage = {
imagePath = "GLYPH/LETTRE/W.png";
locked = 1;
pos = (31,-13);
scale = (2.0291,2.0291);
};
layerId = "51D37BFD-8D61-49BD-B54E-A586BAC916AC";
name = "10 avr. 25 à 11:28";
shapes = (
{
closed = 1;
nodes = (
(286,631,ls),
(295,631,o),
(299,635,o),
(299,644,cs),
(299,687,ls),
(299,696,o),
(295,700,o),
(286,700,cs),
(54,700,ls),
(45,700,o),
(41,696,o),
(41,687,cs),
(41,644,ls),
(41,635,o),
(45,631,o),
(54,631,cs)
);
},
{
closed = 1;
nodes = (
(669,636,l),
(600,636,l),
(399,154,l),
(215,632,l),
(110,632,l),
(353,0,l),
(404,0,l)
);
},
{
closed = 1;
nodes = (
(725,631,ls),
(734,631,o),
(738,635,o),
(738,644,cs),
(738,687,ls),
(738,696,o),
(734,700,o),
(725,700,cs),
(613,700,ls),
(604,700,o),
(600,696,o),
(600,687,cs),
(600,644,ls),
(600,623,o),
(604,631,o),
(613,631,cs)
);
},
{
closed = 1;
nodes = (
(1044,631,o),
(1048,635,o),
(1048,644,cs),
(1048,687,ls),
(1048,696,o),
(1044,700,o),
(1035,700,cs),
(813,700,ls),
(804,700,o),
(800,696,o),
(800,687,cs),
(800,644,ls),
(800,635,o),
(804,631,o),
(813,631,cs),
(1035,631,ls)
);
},
{
closed = 1;
nodes = (
(736,0,l),
(979,632,l),
(884,632,l),
(700,154,l),
(499,636,l),
(430,636,l),
(695,0,l)
);
},
{
closed = 1;
nodes = (
(495,631,o),
(499,623,o),
(499,644,cs),
(499,687,ls),
(499,696,o),
(495,700,o),
(486,700,cs),
(374,700,ls),
(365,700,o),
(361,696,o),
(361,687,cs),
(361,644,ls),
(361,635,o),
(365,631,o),
(374,631,cs),
(486,631,ls)
);
}
);
width = 986;
},
{
associatedMasterId = m01;
background = {
shapes = (
{
closed = 1;
nodes = (
(286,631,ls),
(295,631,o),
(299,635,o),
(299,644,cs),
(299,687,ls),
(299,696,o),
(295,700,o),
(286,700,cs),
(54,700,ls),
(45,700,o),
(41,696,o),
(41,687,cs),
(41,644,ls),
(41,635,o),
(45,631,o),
(54,631,cs)
);
},
{
closed = 1;
nodes = (
(669,636,l),
(600,636,l),
(399,154,l),
(215,632,l),
(110,632,l),
(353,0,l),
(404,0,l)
);
},
{
closed = 1;
nodes = (
(725,631,ls),
(734,631,o),
(738,635,o),
(738,644,cs),
(738,687,ls),
(738,696,o),
(734,700,o),
(725,700,cs),
(613,700,ls),
(604,700,o),
(600,696,o),
(600,687,cs),
(600,644,ls),
(600,623,o),
(604,631,o),
(613,631,cs)
);
},
{
closed = 1;
nodes = (
(1044,631,o),
(1048,635,o),
(1048,644,cs),
(1048,687,ls),
(1048,696,o),
(1044,700,o),
(1035,700,cs),
(813,700,ls),
(804,700,o),
(800,696,o),
(800,687,cs),
(800,644,ls),
(800,635,o),
(804,631,o),
(813,631,cs),
(1035,631,ls)
);
},
{
closed = 1;
nodes = (
(736,0,l),
(979,632,l),
(884,632,l),
(700,154,l),
(499,636,l),
(430,636,l),
(695,0,l)
);
},
{
closed = 1;
nodes = (
(495,631,o),
(499,623,o),
(499,644,cs),
(499,687,ls),
(499,696,o),
(495,700,o),
(486,700,cs),
(374,700,ls),
(365,700,o),
(361,696,o),
(361,687,cs),
(361,644,ls),
(361,635,o),
(365,631,o),
(374,631,cs),
(486,631,ls)
);
}
);
};
backgroundImage = {
imagePath = "GLYPH/LETTRE/W.png";
locked = 1;
pos = (31,-13);
scale = (2.0291,2.0291);
};
layerId = "D7D12335-7665-4BCD-97B7-9160D8A01CED";
name = "10 avr. 25 à 11:30";
shapes = (
{
closed = 1;
nodes = (
(285,631,ls),
(294,631,o),
(298,635,o),
(298,644,cs),
(298,687,ls),
(298,696,o),
(294,700,o),
(285,700,cs),
(43,700,ls),
(34,700,o),
(30,696,o),
(30,687,cs),
(30,644,ls),
(30,635,o),
(34,631,o),
(43,631,cs)
);
},
{
closed = 1;
nodes = (
(695,631,ls),
(704,631,o),
(708,635,o),
(708,644,cs),
(708,687,ls),
(708,696,o),
(704,700,o),
(695,700,cs),
(483,700,l),
(474,700,o),
(470,696,o),
(470,687,c),
(470,644,l),
(470,635,o),
(474,631,o),
(483,631,c)
);
},
{
closed = 1;
nodes = (
(635,644,l),
(561,644,l),
(390,174,l),
(214,632,l),
(109,632,l),
(352,0,l),
(408,0,l)
);
},
{
closed = 1;
nodes = (
(1061,631,o),
(1065,635,o),
(1065,644,cs),
(1065,687,ls),
(1065,696,o),
(1061,700,o),
(1052,700,cs),
(810,700,ls),
(801,700,o),
(797,696,o),
(797,687,cs),
(797,644,ls),
(797,635,o),
(801,631,o),
(810,631,cs),
(1052,631,ls)
);
},
{
closed = 1;
nodes = (
(743,0,l),
(986,632,l),
(881,632,l),
(705,174,l),
(573,471,l),
(499,471,l),
(687,0,l)
);
}
);
width = 986;
},
{
anchors = (
{
name = bottom;
pos = (493,0);
},
{
name = top;
pos = (554,700);
}
);
associatedMasterId = m01;
background = {
shapes = (
{
closed = 1;
nodes = (
(286,631,ls),
(295,631,o),
(299,635,o),
(299,644,cs),
(299,687,ls),
(299,696,o),
(295,700,o),
(286,700,cs),
(54,700,ls),
(45,700,o),
(41,696,o),
(41,687,cs),
(41,644,ls),
(41,635,o),
(45,631,o),
(54,631,cs)
);
},
{
closed = 1;
nodes = (
(669,636,l),
(600,636,l),
(399,154,l),
(215,632,l),
(110,632,l),
(353,0,l),
(404,0,l)
);
},
{
closed = 1;
nodes = (
(725,631,ls),
(734,631,o),
(738,635,o),
(738,644,cs),
(738,687,ls),
(738,696,o),
(734,700,o),
(725,700,cs),
(613,700,ls),
(604,700,o),
(600,696,o),
(600,687,cs),
(600,644,ls),
(600,623,o),
(604,631,o),
(613,631,cs)
);
},
{
closed = 1;
nodes = (
(1044,631,o),
(1048,635,o),
(1048,644,cs),
(1048,687,ls),
(1048,696,o),
(1044,700,o),
(1035,700,cs),
(813,700,ls),
(804,700,o),
(800,696,o),
(800,687,cs),
(800,644,ls),
(800,635,o),
(804,631,o),
(813,631,cs),
(1035,631,ls)
);
},
{
closed = 1;
nodes = (
(736,0,l),
(979,632,l),
(884,632,l),
(700,154,l),
(499,636,l),
(430,636,l),
(695,0,l)
);
},
{
closed = 1;
nodes = (
(495,631,o),
(499,623,o),
(499,644,cs),
(499,687,ls),
(499,696,o),
(495,700,o),
(486,700,cs),
(374,700,ls),
(365,700,o),
(361,696,o),
(361,687,cs),
(361,644,ls),
(361,635,o),
(365,631,o),
(374,631,cs),
(486,631,ls)
);
}
);
};
backgroundImage = {
imagePath = "GLYPH/LETTRE/W.png";
locked = 1;
pos = (31,-13);
scale = (2.0291,2.0291);
};
layerId = "F3EA9C48-610E-4E03-A6E6-CF35BB708B69";
name = "14 avr. 25 à 12:39";
shapes = (
{
closed = 1;
nodes = (
(295,631,ls),
(304,631,o),
(308,635,o),
(308,644,cs),
(308,687,ls),
(308,696,o),
(304,700,o),
(295,700,cs),
(53,700,ls),
(44,700,o),
(40,696,o),
(40,687,cs),
(40,644,ls),
(40,635,o),
(44,631,o),
(53,631,cs)
);
},
{
closed = 1;
nodes = (
(645,631,ls),
(654,631,o),
(658,635,o),
(658,644,cs),
(658,687,ls),
(658,696,o),
(654,700,o),
(645,700,cs),
(433,700,l),
(424,700,o),
(420,696,o),
(420,687,c),
(420,644,l),
(420,635,o),
(424,631,o),
(433,631,c)
);
},
{
closed = 1;
nodes = (
(585,644,l),
(511,644,l),
(390,174,l),
(214,632,l),
(119,632,l),
(362,0,l),
(408,0,l)
);
},
{
closed = 1;
nodes = (
(1034,631,o),
(1038,635,o),
(1038,644,cs),
(1038,687,ls),
(1038,696,o),
(1034,700,o),
(1025,700,cs),
(783,700,ls),
(774,700,o),
(770,696,o),
(770,687,cs),
(770,644,ls),
(770,635,o),
(774,631,o),
(783,631,cs),
(1025,631,ls)
);
},
{
closed = 1;
nodes = (
(716,0,l),
(959,632,l),
(864,632,l),
(688,174,l),
(562,565,l),
(492,565,l),
(670,0,l)
);
}
);
width = 986;
},
{
associatedMasterId = m01;
backgroundImage = {
imagePath = "GLYPH/LETTRE/W.png";
locked = 1;
pos = (31,-13);
scale = (2.0291,2.0291);
};
layerId = "F11DFD28-E962-47CA-B3DB-4E2A62816D10";
name = "14 avr. 25 à 12:46";
shapes = (
{
closed = 1;
nodes = (
(287,631,ls),
(296,631,o),
(300,635,o),
(300,644,cs),
(300,687,ls),
(300,696,o),
(296,700,o),
(287,700,cs),
(45,700,ls),
(36,700,o),
(32,696,o),
(32,687,cs),
(32,644,ls),
(32,635,o),
(36,631,o),
(45,631,cs)
);
},
{
closed = 1;
nodes = (
(679,631,ls),
(688,631,o),
(692,635,o),
(692,644,cs),
(692,687,ls),
(692,696,o),
(688,700,o),
(679,700,cs),
(467,700,l),
(458,700,o),
(454,696,o),
(454,687,c),
(454,644,l),
(454,635,o),
(458,631,o),
(467,631,c)
);
},
{
closed = 1;
nodes = (
(618,644,l),
(541,644,l),
(390,174,l),
(214,632,l),
(106,632,l),
(349,0,l),
(404,0,l)
);
},
{
closed = 1;
nodes = (
(1070,631,o),
(1074,635,o),
(1074,644,cs),
(1074,687,ls),
(1074,696,o),
(1070,700,o),
(1061,700,cs),
(819,700,ls),
(810,700,o),
(806,696,o),
(806,687,cs),
(806,644,ls),
(806,635,o),
(810,631,o),
(819,631,cs),
(1061,631,ls)
);
},
{
closed = 1;
nodes = (
(720,0,l),
(963,632,l),
(855,632,l),
(679,174,l),
(570,509,l),
(498,509,l),
(670,0,l)
);
}
);
width = 986;
},
{
associatedMasterId = m01;
backgroundImage = {
imagePath = "GLYPH/LETTRE/W.png";
locked = 1;
pos = (31,-13);
scale = (2.0291,2.0291);
};
layerId = "C6B02CD5-C0C2-4E02-BA22-5290E6CD3784";
name = "14 avr. 25 à 12:49";
shapes = (
{
closed = 1;
nodes = (
(287,631,ls),
(296,631,o),
(300,635,o),
(300,644,cs),
(300,687,ls),
(300,696,o),
(296,700,o),
(287,700,cs),
(45,700,ls),
(36,700,o),
(32,696,o),
(32,687,cs),
(32,644,ls),
(32,635,o),
(36,631,o),
(45,631,cs)
);
},
{
closed = 1;
nodes = (
(603,700,l),
(531,700,l),
(390,174,l),
(214,632,l),
(106,632,l),
(349,0,l),
(416,0,l)
);
},
{
closed = 1;
nodes = (
(1099,631,o),
(1103,635,o),
(1103,644,cs),
(1103,687,ls),
(1103,696,o),
(1099,700,o),
(1090,700,cs),
(848,700,ls),
(839,700,o),
(835,696,o),
(835,687,cs),
(835,644,ls),
(835,635,o),
(839,631,o),
(848,631,cs),
(1090,631,ls)
);
},
{
closed = 1;
nodes = (
(786,0,l),
(1029,632,l),
(921,632,l),
(745,174,l),
(604,700,l),
(532,700,l),
(719,0,l)
);
}
);
width = 986;
},
{
associatedMasterId = m01;
backgroundImage = {
imagePath = "GLYPH/LETTRE/W.png";
locked = 1;
pos = (31,-13);
scale = (2.0291,2.0291);
};
layerId = "95629BFC-ECEC-42E3-9A33-8861352F63DA";
name = "14 avr. 25 à 14:20";
shapes = (
{
closed = 1;
nodes = (
(287,631,ls),
(296,631,o),
(300,635,o),
(300,644,cs),
(300,687,ls),
(300,696,o),
(296,700,o),
(287,700,cs),
(45,700,ls),
(36,700,o),
(32,696,o),
(32,687,cs),
(32,644,ls),
(32,635,o),
(36,631,o),
(45,631,cs)
);
},
{
closed = 1;
nodes = (
(603,700,l),
(531,700,l),
(390,174,l),
(214,632,l),
(106,632,l),
(349,0,l),
(416,0,l)
);
},
{
closed = 1;
nodes = (
(657,631,ls),
(666,631,o),
(670,635,o),
(670,644,cs),
(670,687,ls),
(670,696,o),
(666,700,o),
(657,700,cs),
(415,700,ls),
(406,700,o),
(402,696,o),
(402,687,cs),
(402,644,ls),
(402,635,o),
(406,631,o),
(415,631,cs)
);
},
{
closed = 1;
nodes = (
(973,700,l),
(901,700,l),
(760,174,l),
(584,632,l),
(476,632,l),
(719,0,l),
(786,0,l)
);
},
{
closed = 1;
nodes = (
(1027,631,ls),
(1036,631,o),
(1040,635,o),
(1040,644,cs),
(1040,687,ls),
(1040,696,o),
(1036,700,o),
(1027,700,cs),
(785,700,ls),
(776,700,o),
(772,696,o),
(772,687,cs),
(772,644,ls),
(772,635,o),
(776,631,o),
(785,631,cs)
);
}
);
width = 1060;
},
{
associatedMasterId = m01;
backgroundImage = {
imagePath = "GLYPH/LETTRE/W.png";
locked = 1;
pos = (14,-13);
scale = (2.0291,2.0291);
};
layerId = "1202E758-AE86-47DB-9FC8-33F60FC9BFFF";
name = "19 avr. 25 à 12:34";
shapes = (
{
closed = 1;
nodes = (
(270,631,ls),
(279,631,o),
(283,635,o),
(283,644,cs),
(283,687,ls),
(283,696,o),
(279,700,o),
(270,700,cs),
(28,700,ls),
(19,700,o),
(15,696,o),
(15,687,cs),
(15,644,ls),
(15,635,o),
(19,631,o),
(28,631,cs)
);
},
{
closed = 1;
nodes = (
(616,644,l),
(544,644,l),
(373,174,l),
(197,632,l),
(89,632,l),
(332,0,l),
(382,0,l)
);
},
{
closed = 1;
nodes = (
(694,631,ls),
(703,631,o),
(707,635,o),
(707,644,cs),
(707,687,ls),
(707,696,o),
(703,700,o),
(694,700,cs),
(452,700,ls),
(443,700,o),
(439,696,o),
(439,687,cs),
(439,644,ls),
(439,635,o),
(443,631,o),
(452,631,cs)
);
},
{
closed = 1;
nodes = (
(1102,631,ls),
(1111,631,o),
(1115,635,o),
(1115,644,cs),
(1115,687,ls),
(1115,696,o),
(1111,700,o),
(1102,700,cs),
(890,700,l),
(881,700,o),
(877,696,o),
(877,687,c),
(877,644,l),
(877,635,o),
(881,631,o),
(890,631,c)
);
},
{
closed = 1;
nodes = (
(1040,644,l),
(968,644,l),
(797,174,l),
(621,632,l),
(513,632,l),
(756,0,l),
(806,0,l)
);
}
);
width = 1130;
}
);
metricLeft = v;
metricRight = v;
unicode = 87;
},
{
color = 5;
glyphname = X;
lastChange = "2025-04-19 10:10:42 +0000";
layers = (
{
layerId = m01;
shapes = (
{
closed = 1;
nodes = (
(421,69,l),
(412,69,o),
(408,65,o),
(408,57,cs),
(408,13,ls),
(408,5,o),
(412,0,o),
(421,0,cs),
(630,0,ls),
(639,0,o),
(643,5,o),
(643,13,cs),
(643,57,ls),
(643,65,o),
(639,69,o),
(630,69,c)
);
},
{
closed = 1;
nodes = (
(58,700,ls),
(50,700,o),
(45,696,o),
(45,687,cs),
(45,644,ls),
(45,635,o),
(50,631,o),
(58,631,cs),
(263,631,ls),
(272,631,o),
(277,635,o),
(277,644,cs),
(277,687,ls),
(277,696,o),
(272,700,o),
(263,700,cs)
);
},
{
closed = 1;
nodes = (
(561,700,o),
(492,700,o),
(421,700,cs),
(412,700,o),
(408,696,o),
(408,687,cs),
(408,644,ls),
(408,635,o),
(412,631,o),
(421,631,cs),
(630,631,ls),
(639,631,o),
(643,635,o),
(643,644,cs),
(643,687,ls),
(643,696,o),
(639,700,o),
(630,700,cs)
);
},
{
closed = 1;
nodes = (
(485,69,l),
(580,69,l),
(207,638,l),
(113,638,l)
);
},
{
closed = 1;
nodes = (
(495,638,l),
(123,69,l),
(201,69,l),
(573,638,l)
);
},
{
closed = 1;
nodes = (
(58,69,l),
(49,69,o),
(45,65,o),
(45,57,cs),
(45,13,ls),
(45,5,o),
(49,0,o),
(58,0,cs),
(267,0,ls),
(276,0,o),
(280,5,o),
(280,13,cs),
(280,57,ls),
(280,65,o),
(276,69,o),
(267,69,c)
);
},
{
closed = 1;
nodes = (
(58,69,l),
(49,69,o),
(45,65,o),
(45,57,cs),
(45,13,ls),
(45,5,o),
(49,0,o),
(58,0,cs),
(267,0,ls),
(276,0,o),
(280,5,o),
(280,13,cs),
(280,57,ls),
(280,65,o),
(276,69,o),
(267,69,c)
);
}
);
width = 688;
},
{
associatedMasterId = m01;
layerId = "8641A326-5E77-4A66-B9E1-A45D6512CCC0";
name = "26 mars 25 à 13:38";
shapes = (
{
closed = 1;
nodes = (
(58,70,ls),
(50,70,o),
(45,66,o),
(45,58,cs),
(45,13,ls),
(45,5,o),
(50,0,o),
(58,0,cs),
(263,0,ls),
(272,0,o),
(277,5,o),
(277,13,cs),
(277,58,ls),
(277,66,o),
(272,70,o),
(263,70,cs)
);
},
{
closed = 1;
nodes = (
(561,70,o),
(492,70,o),
(421,70,cs),
(412,70,o),
(408,66,o),
(408,58,cs),
(408,13,ls),
(408,5,o),
(412,0,o),
(421,0,cs),
(630,0,ls),
(639,0,o),
(643,5,o),
(643,13,cs),
(643,58,ls),
(643,66,o),
(639,70,o),
(630,70,cs)
);
},
{
closed = 1;
nodes = (
(58,700,ls),
(50,700,o),
(45,696,o),
(45,687,cs),
(45,644,ls),
(45,635,o),
(50,631,o),
(58,631,cs),
(263,631,ls),
(272,631,o),
(277,635,o),
(277,644,cs),
(277,687,ls),
(277,696,o),
(272,700,o),
(263,700,cs)
);
},
{
closed = 1;
nodes = (
(561,700,o),
(492,700,o),
(421,700,cs),
(412,700,o),
(408,696,o),
(408,687,cs),
(408,644,ls),
(408,635,o),
(412,631,o),
(421,631,cs),
(630,631,ls),
(639,631,o),
(643,635,o),
(643,644,cs),
(643,687,ls),
(643,696,o),
(639,700,o),
(630,700,cs)
);
},
{
closed = 1;
nodes = (
(484,70,l),
(582,70,l),
(210,638,l),
(113,638,l)
);
},
{
closed = 1;
nodes = (
(509,638,l),
(127,70,l),
(194,70,l),
(575,638,l)
);
}
);
width = 672;
},
{
associatedMasterId = m01;
layerId = "DDF68392-B18A-4799-AEE2-93B15AA3D4D3";
name = "14 avr. 25 à 14:23";
shapes = (
{
closed = 1;
nodes = (
(58,70,ls),
(50,70,o),
(45,66,o),
(45,58,cs),
(45,13,ls),
(45,5,o),
(50,0,o),
(58,0,cs),
(263,0,ls),
(272,0,o),
(277,5,o),
(277,13,cs),
(277,58,ls),
(277,66,o),
(272,70,o),
(263,70,cs)
);
},
{
closed = 1;
nodes = (
(561,70,o),
(492,70,o),
(421,70,cs),
(412,70,o),
(408,66,o),
(408,58,cs),
(408,13,ls),
(408,5,o),
(412,0,o),
(421,0,cs),
(630,0,ls),
(639,0,o),
(643,5,o),
(643,13,cs),
(643,58,ls),
(643,66,o),
(639,70,o),
(630,70,cs)
);
},
{
closed = 1;
nodes = (
(58,700,ls),
(50,700,o),
(45,696,o),
(45,687,cs),
(45,644,ls),
(45,635,o),
(50,631,o),
(58,631,cs),
(263,631,ls),
(272,631,o),
(277,635,o),
(277,644,cs),
(277,687,ls),
(277,696,o),
(272,700,o),
(263,700,cs)
);
},
{
closed = 1;
nodes = (
(561,700,o),
(492,700,o),
(421,700,cs),
(412,700,o),
(408,696,o),
(408,687,cs),
(408,644,ls),
(408,635,o),
(412,631,o),
(421,631,cs),
(630,631,ls),
(639,631,o),
(643,635,o),
(643,644,cs),
(643,687,ls),
(643,696,o),
(639,700,o),
(630,700,cs)
);
},
{
closed = 1;
nodes = (
(484,70,l),
(582,70,l),
(210,638,l),
(113,638,l)
);
},
{
closed = 1;
nodes = (
(499,638,l),
(127,70,l),
(194,70,l),
(565,638,l)
);
}
);
width = 672;
}
);
metricLeft = n;
metricRight = n;
unicode = 88;
},
{
color = 5;
glyphname = Y;
lastChange = "2025-04-19 10:10:51 +0000";
layers = (
{
anchors = (
{
name = bottom;
pos = (312,0);
},
{
name = top;
pos = (347,700);
}
);
layerId = m01;
shapes = (
{
closed = 1;
nodes = (
(211,69,ls),
(202,69,o),
(198,64,o),
(198,54,cs),
(198,14,ls),
(198,4,o),
(202,0,o),
(211,0,cs),
(483,0,ls),
(492,0,o),
(496,4,o),
(496,14,cs),
(496,54,ls),
(496,64,o),
(492,68,o),
(483,69,cs)
);
},
{
closed = 1;
nodes = (
(58,700,ls),
(50,700,o),
(45,696,o),
(45,687,cs),
(45,644,ls),
(45,635,o),
(50,631,o),
(58,631,cs),
(263,631,ls),
(272,631,o),
(277,635,o),
(277,644,cs),
(277,687,ls),
(277,696,o),
(272,700,o),
(263,700,cs)
);
},
{
closed = 1;
nodes = (
(421,700,ls),
(412,700,o),
(408,696,o),
(408,687,cs),
(408,644,ls),
(408,635,o),
(412,631,o),
(421,631,cs),
(630,631,ls),
(639,631,o),
(643,635,o),
(643,644,cs),
(643,687,ls),
(643,696,o),
(639,700,o),
(630,700,cs)
);
},
{
closed = 1;
nodes = (
(210,638,l),
(113,638,l),
(304,316,l),
(391,332,l),
(571,638,l),
(495,638,l),
(353,390,l)
);
},
{
closed = 1;
nodes = (
(391,338,l),
(304,338,l),
(304,69,l),
(391,69,l)
);
}
);
width = 688;
},
{
anchors = (
{
name = bottom;
pos = (312,0);
},
{
name = top;
pos = (347,700);
}
);
associatedMasterId = m01;
background = {
shapes = (
{
closed = 0;
nodes = (
(390,363,l),
(210,638,l),
(113,638,l),
(304,346,l),
(391,362,l),
(571,638,l),
(495,638,l),
(305,346,l)
);
}
);
};
layerId = "DA746012-070E-44CE-8C6C-141C12BE3525";
name = "14 avr. 25 à 14:29";
shapes = (
{
closed = 1;
nodes = (
(211,77,ls),
(202,77,o),
(198,72,o),
(198,62,cs),
(198,14,ls),
(198,4,o),
(202,0,o),
(211,0,cs),
(483,0,ls),
(492,0,o),
(496,4,o),
(496,14,cs),
(496,62,ls),
(496,72,o),
(492,77,o),
(483,77,cs),
(371,77,l)
);
},
{
closed = 1;
nodes = (
(58,700,ls),
(50,700,o),
(45,696,o),
(45,687,cs),
(45,644,ls),
(45,635,o),
(50,631,o),
(58,631,cs),
(263,631,ls),
(272,631,o),
(277,635,o),
(277,644,cs),
(277,687,ls),
(277,696,o),
(272,700,o),
(263,700,cs)
);
},
{
closed = 1;
nodes = (
(421,700,ls),
(412,700,o),
(408,696,o),
(408,687,cs),
(408,644,ls),
(408,635,o),
(412,631,o),
(421,631,cs),
(630,631,ls),
(639,631,o),
(643,635,o),
(643,644,cs),
(643,687,ls),
(643,696,o),
(639,700,o),
(630,700,cs)
);
},
{
closed = 1;
nodes = (
(210,638,l),
(113,638,l),
(304,346,l),
(391,362,l),
(571,638,l),
(495,638,l),
(353,420,l)
);
},
{
closed = 1;
nodes = (
(391,368,l),
(304,368,l),
(304,77,l),
(391,77,l)
);
}
);
width = 714;
}
);
metricLeft = n;
metricRight = N;
unicode = 89;
},
{
color = 5;
glyphname = Z;
lastChange = "2025-04-19 11:02:11 +0000";
layers = (
{
background = {
shapes = (
{
closed = 0;
nodes = (
(463,610,l)
);
}
);
};
backgroundImage = {
imagePath = "GLYPH/LETTRE/z copie.png";
locked = 1;
pos = (4,-58);
scale = (2.2643,2.2643);
};
layerId = m01;
shapes = (
{
closed = 1;
nodes = (
(45,27,o),
(45,25,o),
(45,17,cs),
(45,5,o),
(51,0,o),
(63,0,cs),
(529,0,l),
(551,0,ls),
(563,0,o),
(569,5,o),
(569,18,cs),
(569,200,l),
(569,214,o),
(564,216,o),
(551,216,cs),
(536,216,o),
(534,210,o),
(529,200,c),
(490,69,l),
(179,69,l),
(555,651,l),
(569,673,o),
(569,675,o),
(569,683,cs),
(569,695,o),
(563,700,o),
(551,700,cs),
(85,700,l),
(63,700,ls),
(51,700,o),
(45,695,o),
(45,682,cs),
(45,500,l),
(45,486,o),
(50,484,o),
(63,484,cs),
(78,484,o),
(80,490,o),
(85,500,c),
(124,631,l),
(448,631,l),
(59,49,l)
);
}
);
width = 614;
},
{
associatedMasterId = m01;
backgroundImage = {
imagePath = "GLYPH/LETTRE/z copie.png";
locked = 1;
pos = (-14,-58);
scale = (2.2643,2.2643);
};
layerId = "891A420B-D1CF-48C3-B40F-2E3F0F5ED58D";
name = "3 avr. 25 à 12:16";
shapes = (
{
closed = 1;
nodes = (
(126,75,l),
(551,644,l),
(551,677,ls),
(551,689,o),
(545,694,o),
(533,694,cs),
(193,694,ls),
(161,694,o),
(160,694,o),
(160,716,c),
(130,716,l),
(70,521,l),
(113,521,l),
(128,554,o),
(149,612,o),
(178,612,c),
(445,612,l),
(27,50,l),
(27,24,ls),
(27,11,o),
(32,6,o),
(45,6,cs),
(417,6,ls),
(448,6,o),
(450,6,o),
(450,-16,c),
(481,-16,l),
(527,165,l),
(484,165,l),
(469,132,o),
(447,75,o),
(419,75,cs)
);
}
);
width = 600;
},
{
associatedMasterId = m01;
backgroundImage = {
imagePath = "GLYPH/LETTRE/z copie.png";
locked = 1;
pos = (-14,-58);
scale = (2.2643,2.2643);
};
layerId = "91117AFD-EF37-4FA8-85C1-60A8C3218D54";
name = "14 avr. 25 à 12:55";
shapes = (
{
closed = 1;
nodes = (
(126,75,l),
(551,650,l),
(551,683,ls),
(551,695,o),
(545,700,o),
(533,700,cs),
(193,700,ls),
(161,700,o),
(160,700,o),
(160,716,c),
(130,716,l),
(70,521,l),
(113,521,l),
(128,554,o),
(149,612,o),
(178,612,c),
(445,612,l),
(27,44,l),
(27,18,ls),
(27,5,o),
(32,0,o),
(45,0,cs),
(417,0,ls),
(448,0,o),
(450,0,o),
(450,-16,c),
(481,-16,l),
(527,165,l),
(484,165,l),
(469,132,o),
(447,75,o),
(419,75,cs)
);
},
{
closed = 0;
nodes = (
(120,439,l),
(98,439,ls),
(86,439,o),
(80,434,o),
(80,421,cs),
(80,220,l),
(80,206,o),
(85,204,o),
(98,204,cs),
(113,204,o),
(115,210,o),
(120,220,c),
(157,302,l)
);
}
);
width = 600;
},
{
associatedMasterId = m01;
background = {
shapes = (
{
closed = 0;
nodes = (
(448,610,l)
);
}
);
};
backgroundImage = {
imagePath = "GLYPH/LETTRE/z copie.png";
locked = 1;
pos = (-11,-58);
scale = (2.2643,2.2643);
};
layerId = "93697459-7204-4765-975B-8CA4A6BAF9BE";
name = "14 avr. 25 à 13:00";
shapes = (
{
closed = 1;
nodes = (
(129,610,l),
(70,479,l),
(65,469,o),
(63,463,o),
(48,463,cs),
(35,463,o),
(30,465,o),
(30,479,c),
(30,682,ls),
(30,695,o),
(36,700,o),
(48,700,cs),
(70,700,l),
(536,700,ls),
(548,700,o),
(554,695,o),
(554,683,cs),
(554,650,l),
(151,90,l),
(455,90,l),
(514,221,l),
(519,231,o),
(521,237,o),
(536,237,cs),
(549,237,o),
(554,235,o),
(554,221,c),
(554,18,ls),
(554,5,o),
(548,0,o),
(536,0,cs),
(514,0,l),
(48,0,ls),
(36,0,o),
(30,5,o),
(30,17,cs),
(30,50,l),
(433,610,l)
);
}
);
width = 584;
},
{
associatedMasterId = m01;
background = {
shapes = (
{
closed = 0;
nodes = (
(468,610,l)
);
}
);
};
backgroundImage = {
imagePath = "GLYPH/LETTRE/z copie.png";
locked = 1;
pos = (9,-58);
scale = (2.2643,2.2643);
};
layerId = "FCE4AB33-600C-4201-B2AB-24DD84A4438B";
name = "14 avr. 25 à 13:01";
shapes = (
{
closed = 1;
nodes = (
(149,610,l),
(90,479,l),
(85,469,o),
(83,463,o),
(68,463,cs),
(55,463,o),
(50,465,o),
(50,479,c),
(50,682,ls),
(50,695,o),
(56,700,o),
(68,700,cs),
(90,700,l),
(556,700,ls),
(568,700,o),
(574,695,o),
(574,683,cs),
(574,650,l),
(171,90,l),
(475,90,l),
(534,221,l),
(539,231,o),
(541,237,o),
(556,237,cs),
(569,237,o),
(574,235,o),
(574,221,c),
(574,18,ls),
(574,5,o),
(568,0,o),
(556,0,cs),
(534,0,l),
(68,0,ls),
(56,0,o),
(50,5,o),
(50,17,cs),
(50,50,l),
(453,610,l)
);
}
);
width = 624;
},
{
associatedMasterId = m01;
background = {
shapes = (
{
closed = 0;
nodes = (
(468,610,l)
);
}
);
};
backgroundImage = {
imagePath = "GLYPH/LETTRE/z copie.png";
locked = 1;
pos = (9,-58);
scale = (2.2643,2.2643);
};
layerId = "3AE78C93-66A8-4D68-8BB7-B0FE8810B0A6";
name = "14 avr. 25 à 13:01";
shapes = (
{
closed = 1;
nodes = (
(129,610,l),
(90,479,l),
(85,469,o),
(83,463,o),
(68,463,cs),
(55,463,o),
(50,465,o),
(50,479,c),
(50,682,ls),
(50,695,o),
(56,700,o),
(68,700,cs),
(90,700,l),
(556,700,ls),
(568,700,o),
(574,695,o),
(574,683,cs),
(574,650,l),
(171,90,l),
(495,90,l),
(534,221,l),
(539,231,o),
(541,237,o),
(556,237,cs),
(569,237,o),
(574,235,o),
(574,221,c),
(574,18,ls),
(574,5,o),
(568,0,o),
(556,0,cs),
(534,0,l),
(68,0,ls),
(56,0,o),
(50,5,o),
(50,17,cs),
(50,50,l),
(453,610,l)
);
}
);
width = 624;
},
{
associatedMasterId = m01;
background = {
shapes = (
{
closed = 0;
nodes = (
(453,610,l),
(64,49,l)
);
},
{
closed = 0;
nodes = (
(171,90,l)
);
}
);
};
backgroundImage = {
imagePath = "GLYPH/LETTRE/z copie.png";
locked = 1;
pos = (9,-58);
scale = (2.2643,2.2643);
};
layerId = "4C6EDDD7-14B7-4F93-AC97-C8D04C5A893A";
name = "19 avr. 25 à 09:04";
shapes = (
{
closed = 1;
nodes = (
(50,27,o),
(50,25,o),
(50,17,cs),
(50,5,o),
(56,0,o),
(68,0,cs),
(534,0,l),
(556,0,ls),
(568,0,o),
(574,5,o),
(574,18,cs),
(574,221,l),
(574,235,o),
(569,237,o),
(556,237,cs),
(541,237,o),
(539,231,o),
(534,221,c),
(495,90,l),
(171,90,l),
(560,651,l),
(574,673,o),
(574,675,o),
(574,683,cs),
(574,695,o),
(568,700,o),
(556,700,cs),
(90,700,l),
(68,700,ls),
(56,700,o),
(50,695,o),
(50,682,cs),
(50,479,l),
(50,465,o),
(55,463,o),
(68,463,cs),
(83,463,o),
(85,469,o),
(90,479,c),
(129,610,l),
(453,610,l),
(64,49,l)
);
}
);
width = 624;
}
);
metricLeft = n;
metricRight = n;
unicode = 90;
},
{
color = 5;
glyphname = a;
lastChange = "2025-04-19 09:48:30 +0000";
layers = (
{
anchors = (
{
name = bottom;
pos = (263,0);
},
{
name = ogonek;
pos = (476,10);
},
{
name = top;
pos = (275,500);
}
);
backgroundImage = {
imagePath = "GLYPH/LETTRE/a.png";
locked = 1;
pos = (27,-20);
scale = (1.3334,1.3334);
};
layerId = m01;
shapes = (
{
closed = 1;
nodes = (
(262,-16,o),
(339,43,o),
(339,147,c),
(339,205,l),
(339,106,o),
(259,44,o),
(199,44,cs),
(149,44,o),
(129,70,o),
(129,122,cs),
(129,243,o),
(339,227,o),
(339,245,c),
(339,302,l),
(339,252,o),
(45,275,o),
(45,114,cs),
(45,32,o),
(102,-16,o),
(182,-16,cs)
);
},
{
closed = 1;
nodes = (
(335,-16,o),
(339,74,o),
(339,113,c),
(339,348,ls),
(339,429,o),
(317,456,o),
(255,456,cs),
(196,456,o),
(140,417,o),
(99,368,c),
(65,399,l),
(131,478,o),
(181,516,o),
(275,516,cs),
(444,516,o),
(419,363,o),
(419,329,cs),
(419,102,l),
(419,85,o),
(423,83,o),
(429,83,c),
(448,83,o),
(457,115,o),
(464,130,c),
(492,104,l),
(481,70,o),
(453,-16,o),
(393,-16,cs)
);
}
);
width = 537;
},
{
associatedMasterId = m01;
backgroundImage = {
imagePath = "LETTRE/a.png";
locked = 1;
pos = (55,-36);
scale = (1.6254,1.6254);
};
layerId = "F759B092-F70D-4D3E-A0F6-34697660A988";
name = "10 mars 25 à 10:15";
shapes = (
{
closed = 1;
nodes = (
(312,192,o),
(195,196,o),
(198,102,cs),
(201,20,o),
(344,102,o),
(380,142,c),
(380,80,l),
(344,47,o),
(296,-16,o),
(210,-16,cs),
(124,-16,o),
(94,25,o),
(93,80,cs),
(92,135,o),
(88,216,o),
(282,250,cs),
(373,266,o),
(392,307,o),
(380,286,c),
(380,242,l)
);
},
{
closed = 1;
nodes = (
(903,446,ls),
(910,446,o),
(915,441,o),
(915,434,c),
(915,412,l),
(915,405,o),
(911,404,o),
(903,400,c),
(875,388,o),
(863,380,o),
(838,360,cs),
(818,344,o),
(813,332,o),
(802,314,c),
(798,306,o),
(797,302,o),
(790,302,c),
(754,302,l),
(747,302,o),
(742,307,o),
(742,314,cs),
(742,446,l)
);
},
{
closed = 0;
nodes = (
(380,80,l),
(383,29,o),
(367,0,o),
(448,0,cs),
(509,0,o),
(512,92,o),
(508,112,cs),
(507,118,o),
(505,122,o),
(500,122,cs),
(491,122,o),
(486,115,o),
(473,101,cs),
(459,85,o),
(440,106,o),
(440,130,c),
(380,78,l),
(380,12,ls),
(380,5,o),
(385,0,o),
(392,0,cs),
(448,0,l),
(455,0,o),
(460,5,o),
(460,12,cs),
(460,212,o),
(460,248,o),
(460,355,c),
(460,416,o),
(427,516,o),
(322,516,cs),
(217,516,o),
(117,399,o),
(112,367,cs),
(108,344,o),
(134,308,o),
(168,339,cs),
(207,374,o),
(236,433,o),
(296,433,cs),
(356,433,o),
(380,399,o),
(380,358,c),
(380,78,l)
);
}
);
width = 600;
},
{
associatedMasterId = m01;
backgroundImage = {
imagePath = "LETTRE/a.png";
locked = 1;
pos = (12,-36);
scale = (1.6254,1.6254);
};
layerId = "AF503596-147F-4694-885F-A75A5C774157";
name = "10 mars 25 à 12:28";
shapes = (
{
closed = 1;
nodes = (
(341,315,l),
(341,0,ls),
(341,-5,o),
(345,-7,o),
(351,-7,cs),
(357,-7,o),
(361,-5,o),
(368,0,cs),
(501,101,l),
(501,123,l),
(479,116,o),
(456,111,o),
(444,111,cs),
(425,111,o),
(421,127,o),
(421,136,cs),
(421,315,l)
);
},
{
closed = 0;
nodes = (
(375,274,ls),
(375,380,o),
(339,456,o),
(252,456,cs),
(193,456,o),
(149,422,o),
(132,376,c),
(122,346,o),
(100,338,o),
(79,346,cs),
(55,354,o),
(49,390,o),
(60,408,cs),
(101,472,o),
(166,516,o),
(240,516,cs),
(375,516,o),
(458,385,o),
(458,245,cs)
);
}
);
width = 539;
},
{
associatedMasterId = m01;
backgroundImage = {
imagePath = "LETTRE/a.png";
locked = 1;
pos = (12,-36);
scale = (1.6254,1.6254);
};
layerId = "5AE015B8-D24F-46A9-8018-FB499BDEF9B1";
name = "10 mars 25 à 12:43";
shapes = (
{
closed = 1;
nodes = (
(411,136,ls),
(411,127,o),
(415,111,o),
(434,111,cs),
(446,111,o),
(469,116,o),
(491,123,c),
(491,101,l),
(417,0,ls),
(412,-7,o),
(407,-7,o),
(401,-7,cs),
(401,-7,o),
(341,-7,o),
(341,-7,cs),
(335,-7,o),
(331,-5,o),
(331,0,cs),
(331,315,ls),
(331,421,o),
(294,456,o),
(242,456,cs),
(183,456,o),
(139,422,o),
(122,376,c),
(112,346,o),
(90,338,o),
(69,346,cs),
(45,354,o),
(39,390,o),
(50,408,cs),
(91,472,o),
(156,516,o),
(230,516,cs),
(365,516,o),
(411,455,o),
(411,315,cs)
);
},
{
closed = 1;
nodes = (
(347,255,l),
(348,158,l)
);
},
{
closed = 1;
nodes = (
(337,107,l),
(337,49,o),
(227,-16,o),
(141,-16,cs),
(95,-16,o),
(34,-5,o),
(34,82,cs),
(34,174,o),
(116,231,o),
(235,248,cs),
(313,259,o),
(336,267,o),
(336,301,c)
);
}
);
width = 539;
},
{
associatedMasterId = m01;
backgroundImage = {
imagePath = "LETTRE/a.png";
locked = 1;
pos = (12,-36);
scale = (1.6254,1.6254);
};
layerId = "5728CE05-03B1-4917-A131-84C03B59E987";
name = "10 mars 25 à 12:46";
shapes = (
{
closed = 1;
nodes = (
(411,136,ls),
(411,127,o),
(415,111,o),
(434,111,cs),
(446,111,o),
(469,116,o),
(491,123,c),
(491,101,l),
(417,0,ls),
(412,-7,o),
(407,-7,o),
(401,-7,cs),
(401,-7,o),
(341,-7,o),
(341,-7,cs),
(335,-7,o),
(331,-5,o),
(331,0,cs),
(331,315,ls),
(331,421,o),
(294,456,o),
(242,456,cs),
(183,456,o),
(139,422,o),
(122,376,c),
(112,346,o),
(90,338,o),
(69,346,cs),
(45,354,o),
(39,390,o),
(50,408,cs),
(91,472,o),
(156,516,o),
(230,516,cs),
(365,516,o),
(411,455,o),
(411,315,cs)
);
},
{
closed = 1;
nodes = (
(347,255,l),
(348,158,l)
);
},
{
closed = 1;
nodes = (
(337,107,l),
(337,49,o),
(227,-16,o),
(141,-16,cs),
(95,-16,o),
(34,-5,o),
(34,82,cs),
(34,174,o),
(116,212,o),
(235,238,cs),
(313,255,o),
(336,269,o),
(336,303,c)
);
},
{
closed = 1;
nodes = (
(275,195,o),
(143,180,o),
(143,102,cs),
(143,24,o),
(235,57,o),
(334,155,c),
(334,242,l)
);
}
);
width = 539;
},
{
associatedMasterId = m01;
backgroundImage = {
imagePath = "LETTRE/a.png";
locked = 1;
pos = (53,-36);
scale = (1.6254,1.6254);
};
layerId = "5145A753-3F01-4F6F-ABA8-9D3F7D0F0398";
name = "10 mars 25 à 18:25";
shapes = (
{
closed = 1;
nodes = (
(452,65,o),
(465,55,o),
(494,75,c),
(498,75,o),
(512,75,o),
(516,75,c),
(516,4,o),
(482,-16,o),
(436,-16,cs),
(390,-16,o),
(372,16,o),
(372,51,c),
(372,315,ls),
(372,421,o),
(335,456,o),
(283,456,cs),
(224,456,o),
(180,422,o),
(163,376,c),
(153,346,o),
(131,338,o),
(110,346,cs),
(86,354,o),
(80,390,o),
(91,408,cs),
(132,472,o),
(197,516,o),
(271,516,cs),
(406,516,o),
(452,455,o),
(452,315,cs),
(452,80,l)
);
},
{
closed = 1;
nodes = (
(361,29,o),
(257,-16,o),
(200,-16,cs),
(128,-16,o),
(68,4,o),
(68,86,cs),
(68,144,o),
(101,206,o),
(250,240,cs),
(348,262,o),
(366,264,o),
(381,276,c),
(381,240,l),
(318,205,o),
(180,179,o),
(180,108,cs),
(180,22,o),
(302,40,o),
(377,138,c),
(377,95,l)
);
}
);
width = 580;
},
{
associatedMasterId = m01;
backgroundImage = {
imagePath = "LETTRE/a.png";
locked = 1;
pos = (53,-36);
scale = (1.6254,1.6254);
};
layerId = "3E004E66-8718-47CA-98E0-0111476C53C5";
name = "10 mars 25 à 18:36";
shapes = (
{
closed = 1;
nodes = (
(452,65,o),
(465,55,o),
(494,75,c),
(498,75,o),
(512,75,o),
(516,75,c),
(516,4,o),
(482,-16,o),
(436,-16,cs),
(390,-16,o),
(372,16,o),
(372,51,c),
(372,315,ls),
(372,421,o),
(335,456,o),
(283,456,cs),
(224,456,o),
(180,422,o),
(163,376,c),
(153,346,o),
(131,338,o),
(110,346,cs),
(86,354,o),
(80,390,o),
(91,408,cs),
(132,472,o),
(197,516,o),
(271,516,cs),
(406,516,o),
(452,455,o),
(452,315,cs),
(452,80,l)
);
},
{
closed = 1;
nodes = (
(361,29,o),
(257,-16,o),
(200,-16,cs),
(128,-16,o),
(68,4,o),
(68,86,cs),
(68,144,o),
(101,206,o),
(250,240,cs),
(348,262,o),
(366,264,o),
(381,276,c),
(381,228,l),
(318,193,o),
(152,197,o),
(152,103,cs),
(152,17,o),
(302,40,o),
(377,138,c),
(377,95,l)
);
}
);
width = 580;
},
{
associatedMasterId = m01;
backgroundImage = {
imagePath = "LETTRE/a.png";
locked = 1;
pos = (53,-36);
scale = (1.6254,1.6254);
};
layerId = "AC6C2327-C7CA-4B23-A90D-91EC5C356143";
name = "10 mars 25 à 18:38";
shapes = (
{
closed = 1;
nodes = (
(361,29,o),
(257,-16,o),
(200,-16,cs),
(128,-16,o),
(68,4,o),
(68,86,cs),
(68,144,o),
(101,206,o),
(250,240,cs),
(348,262,o),
(366,264,o),
(381,276,c),
(381,228,l),
(318,193,o),
(152,197,o),
(152,103,cs),
(152,17,o),
(302,40,o),
(377,138,c),
(377,95,l)
);
},
{
closed = 1;
nodes = (
(452,127,o),
(456,111,o),
(475,111,cs),
(487,111,o),
(510,116,o),
(532,123,c),
(532,101,l),
(399,0,ls),
(392,-5,o),
(388,-7,o),
(382,-7,cs),
(376,-7,o),
(372,-5,o),
(372,0,cs),
(372,315,ls),
(372,421,o),
(335,456,o),
(283,456,cs),
(224,456,o),
(180,422,o),
(163,376,c),
(153,346,o),
(131,338,o),
(110,346,cs),
(86,354,o),
(80,390,o),
(91,408,cs),
(132,472,o),
(197,516,o),
(271,516,cs),
(406,516,o),
(452,455,o),
(452,315,cs),
(452,136,ls)
);
}
);
width = 580;
},
{
associatedMasterId = m01;
backgroundImage = {
imagePath = "GLYPH/LETTRE/a.png";
locked = 1;
pos = (41,-29);
scale = (1.6071,1.6071);
};
layerId = "4563273A-2BFF-429C-87F9-66917C37A670";
name = "15 mars 25 à 10:41";
shapes = (
{
closed = 1;
nodes = (
(433,455,o),
(387,516,o),
(252,516,cs),
(178,516,o),
(113,472,o),
(72,408,cs),
(61,390,o),
(67,354,o),
(91,346,cs),
(112,338,o),
(134,346,o),
(144,376,c),
(161,422,o),
(205,456,o),
(264,456,cs),
(316,456,o),
(353,421,o),
(353,315,cs),
(353,161,ls),
(353,7,o),
(354,-16,o),
(421,-16,cs),
(485,-16,o),
(522,75,o),
(522,118,c),
(522,127,o),
(469,127,o),
(469,118,c),
(469,111,o),
(460,86,o),
(433,73,c),
(433,315,l)
);
},
{
closed = 1;
nodes = (
(366,267,o),
(50,254,o),
(50,91,cs),
(50,-112,o),
(363,17,o),
(363,134,c),
(363,174,l),
(363,131,o),
(173,14,o),
(173,116,cs),
(173,200,o),
(366,235,o),
(366,265,c),
(366,297,l)
);
}
);
width = 580;
},
{
associatedMasterId = m01;
backgroundImage = {
imagePath = "GLYPH/LETTRE/a.png";
locked = 1;
pos = (49,-29);
scale = (1.6071,1.6071);
};
layerId = "0D7EBCA2-CBB7-4043-B771-8947F327B29E";
name = "17 mars 25 à 14:49";
shapes = (
{
closed = 1;
nodes = (
(441,455,o),
(395,516,o),
(260,516,cs),
(186,516,o),
(121,472,o),
(80,408,cs),
(69,390,o),
(75,354,o),
(99,346,cs),
(120,338,o),
(142,346,o),
(152,376,c),
(169,422,o),
(213,456,o),
(272,456,cs),
(324,456,o),
(361,421,o),
(361,315,cs),
(361,161,ls),
(361,7,o),
(362,-16,o),
(429,-16,cs),
(493,-16,o),
(530,75,o),
(530,118,c),
(530,127,o),
(477,127,o),
(477,118,c),
(477,111,o),
(468,86,o),
(441,73,c),
(441,315,l)
);
},
{
closed = 1;
nodes = (
(374,290,o),
(58,254,o),
(58,91,cs),
(58,27,o),
(111,-15,o),
(194,-15,cs),
(298,-15,o),
(371,96,o),
(371,134,cs),
(371,174,l),
(370,156,o),
(294,90,o),
(264,75,cs),
(217,52,o),
(169,55,o),
(155,97,cs),
(145,127,o),
(200,182,o),
(255,206,c),
(374,249,l),
(374,297,l)
);
}
);
width = 588;
},
{
associatedMasterId = m01;
background = {
shapes = (
{
closed = 1;
nodes = (
(441,455,o),
(395,516,o),
(260,516,cs),
(186,516,o),
(121,472,o),
(80,408,cs),
(69,390,o),
(75,354,o),
(99,346,cs),
(120,338,o),
(142,346,o),
(152,376,c),
(169,422,o),
(213,456,o),
(272,456,cs),
(324,456,o),
(361,421,o),
(361,315,cs),
(361,161,ls),
(361,7,o),
(362,-16,o),
(429,-16,cs),
(493,-16,o),
(530,75,o),
(530,118,c),
(530,127,o),
(477,127,o),
(477,118,c),
(477,111,o),
(468,86,o),
(441,73,c),
(441,315,l)
);
},
{
closed = 1;
nodes = (
(374,267,o),
(58,254,o),
(58,91,cs),
(58,-112,o),
(371,17,o),
(371,134,c),
(371,174,l),
(371,131,o),
(169,0,o),
(169,111,cs),
(169,210,o),
(374,235,o),
(374,265,c),
(374,297,l)
);
}
);
};
backgroundImage = {
imagePath = "GLYPH/LETTRE/a.png";
locked = 1;
pos = (49,-29);
scale = (1.6071,1.6071);
};
layerId = "9D16885F-7600-4A61-A93B-04A37BE7903D";
name = "17 mars 25 à 15:10";
shapes = (
{
closed = 1;
nodes = (
(441,329,l),
(441,363,o),
(446,516,o),
(267,516,c),
(132,516,o),
(74,403,o),
(74,384,cs),
(74,361,o),
(97,345,o),
(120,345,cs),
(183,345,o),
(132,456,o),
(257,456,c),
(376,456,o),
(361,345,o),
(361,308,c),
(361,0,ls),
(361,-5,o),
(365,-7,o),
(371,-7,cs),
(377,-7,o),
(381,-5,o),
(388,0,cs),
(521,97,l),
(521,123,l),
(499,116,o),
(476,111,o),
(464,111,cs),
(445,111,o),
(441,127,o),
(441,136,cs)
);
},
{
closed = 1;
nodes = (
(373,180,l),
(373,146,o),
(273,68,o),
(218,68,cs),
(192,68,o),
(166,74,o),
(166,115,cs),
(166,198,o),
(301,205,o),
(367,250,c),
(367,297,l),
(264,226,o),
(59,227,o),
(59,85,cs),
(59,-5,o),
(120,-16,o),
(161,-16,cs),
(246,-16,o),
(373,61,o),
(373,130,c)
);
}
);
width = 588;
},
{
associatedMasterId = m01;
background = {
shapes = (
{
closed = 1;
nodes = (
(441,455,o),
(395,516,o),
(260,516,cs),
(186,516,o),
(121,472,o),
(80,408,cs),
(69,390,o),
(75,354,o),
(99,346,cs),
(120,338,o),
(142,346,o),
(152,376,c),
(169,422,o),
(213,456,o),
(272,456,cs),
(324,456,o),
(361,421,o),
(361,315,cs),
(361,161,ls),
(361,7,o),
(362,-16,o),
(429,-16,cs),
(493,-16,o),
(530,75,o),
(530,118,c),
(530,127,o),
(477,127,o),
(477,118,c),
(477,111,o),
(468,86,o),
(441,73,c),
(441,315,l)
);
},
{
closed = 1;
nodes = (
(374,267,o),
(58,254,o),
(58,91,cs),
(58,-112,o),
(371,17,o),
(371,134,c),
(371,174,l),
(371,131,o),
(169,0,o),
(169,111,cs),
(169,210,o),
(374,235,o),
(374,265,c),
(374,297,l)
);
}
);
};
backgroundImage = {
imagePath = "GLYPH/LETTRE/a.png";
locked = 1;
pos = (49,-29);
scale = (1.6071,1.6071);
};
layerId = "4CCEB93B-D2AE-423F-BECB-F2DDB1D67EC6";
name = "17 mars 25 à 15:22";
shapes = (
{
closed = 1;
nodes = (
(441,329,l),
(441,363,o),
(446,516,o),
(267,516,c),
(132,516,o),
(74,403,o),
(74,384,cs),
(74,361,o),
(97,345,o),
(120,345,cs),
(183,345,o),
(132,456,o),
(257,456,c),
(376,456,o),
(361,345,o),
(361,308,c),
(361,0,ls),
(361,-5,o),
(365,-7,o),
(371,-7,cs),
(377,-7,o),
(381,-5,o),
(388,0,cs),
(521,97,l),
(521,123,l),
(499,116,o),
(476,111,o),
(464,111,cs),
(445,111,o),
(441,127,o),
(441,136,cs)
);
}
);
width = 588;
},
{
associatedMasterId = m01;
backgroundImage = {
imagePath = "GLYPH/LETTRE/a.png";
locked = 1;
pos = (49,-29);
scale = (1.6071,1.6071);
};
layerId = "DE1544E6-A90F-44F7-A619-E819174EA93B";
name = "17 mars 25 à 15:22";
shapes = (
{
closed = 1;
nodes = (
(441,455,o),
(395,516,o),
(260,516,cs),
(186,516,o),
(121,472,o),
(80,408,cs),
(69,390,o),
(75,354,o),
(99,346,cs),
(120,338,o),
(142,346,o),
(152,376,c),
(169,422,o),
(213,456,o),
(272,456,cs),
(324,456,o),
(361,421,o),
(361,315,cs),
(361,161,ls),
(361,7,o),
(362,-16,o),
(429,-16,cs),
(493,-16,o),
(530,75,o),
(530,118,c),
(530,127,o),
(477,127,o),
(477,118,c),
(477,111,o),
(468,86,o),
(441,73,c),
(441,315,l)
);
},
{
closed = 1;
nodes = (
(374,267,o),
(58,254,o),
(58,91,cs),
(58,-112,o),
(371,17,o),
(371,134,c),
(371,174,l),
(371,131,o),
(169,0,o),
(169,111,cs),
(169,210,o),
(374,235,o),
(374,265,c),
(374,297,l)
);
}
);
width = 588;
},
{
associatedMasterId = m01;
background = {
shapes = (
{
closed = 1;
nodes = (
(441,455,o),
(395,516,o),
(260,516,cs),
(186,516,o),
(121,472,o),
(80,408,cs),
(69,390,o),
(75,354,o),
(99,346,cs),
(120,338,o),
(142,346,o),
(152,376,c),
(169,422,o),
(213,456,o),
(272,456,cs),
(324,456,o),
(361,421,o),
(361,315,cs),
(361,161,ls),
(361,7,o),
(362,-16,o),
(429,-16,cs),
(493,-16,o),
(530,75,o),
(530,118,c),
(530,127,o),
(477,127,o),
(477,118,c),
(477,111,o),
(468,86,o),
(441,73,c),
(441,315,l)
);
},
{
closed = 1;
nodes = (
(374,267,o),
(58,254,o),
(58,91,cs),
(58,-112,o),
(371,17,o),
(371,134,c),
(371,174,l),
(371,131,o),
(169,0,o),
(169,111,cs),
(169,210,o),
(374,235,o),
(374,265,c),
(374,297,l)
);
}
);
};
backgroundImage = {
imagePath = "GLYPH/LETTRE/a.png";
locked = 1;
pos = (49,-29);
scale = (1.6071,1.6071);
};
layerId = "1741C782-E0BE-473E-81F9-D5987F06EF45";
name = "21 mars 25 à 19:22";
shapes = (
{
closed = 1;
nodes = (
(441,329,l),
(441,363,o),
(446,516,o),
(267,516,c),
(132,516,o),
(74,403,o),
(74,384,cs),
(74,361,o),
(97,345,o),
(120,345,cs),
(183,345,o),
(132,456,o),
(257,456,c),
(376,456,o),
(361,345,o),
(361,308,c),
(361,0,ls),
(361,-5,o),
(365,-7,o),
(371,-7,cs),
(377,-7,o),
(381,-5,o),
(388,0,cs),
(521,97,l),
(521,123,l),
(499,116,o),
(476,111,o),
(464,111,cs),
(445,111,o),
(441,127,o),
(441,136,cs)
);
}
);
width = 588;
},
{
associatedMasterId = m01;
background = {
shapes = (
{
closed = 1;
nodes = (
(441,455,o),
(395,516,o),
(260,516,cs),
(186,516,o),
(121,472,o),
(80,408,cs),
(69,390,o),
(75,354,o),
(99,346,cs),
(120,338,o),
(142,346,o),
(152,376,c),
(169,422,o),
(213,456,o),
(272,456,cs),
(324,456,o),
(361,421,o),
(361,315,cs),
(361,161,ls),
(361,7,o),
(362,-16,o),
(429,-16,cs),
(493,-16,o),
(530,75,o),
(530,118,c),
(530,127,o),
(477,127,o),
(477,118,c),
(477,111,o),
(468,86,o),
(441,73,c),
(441,315,l)
);
},
{
closed = 1;
nodes = (
(374,267,o),
(58,254,o),
(58,91,cs),
(58,-112,o),
(371,17,o),
(371,134,c),
(371,174,l),
(371,131,o),
(169,0,o),
(169,111,cs),
(169,210,o),
(374,235,o),
(374,265,c),
(374,297,l)
);
}
);
};
backgroundImage = {
imagePath = "GLYPH/LETTRE/a.png";
locked = 1;
pos = (49,-29);
scale = (1.6071,1.6071);
};
layerId = "BC6D7EB5-FA70-4235-95D8-F584BA032172";
name = "21 mars 25 à 19:35";
shapes = (
{
closed = 1;
nodes = (
(441,329,l),
(441,363,o),
(446,516,o),
(267,516,c),
(132,516,o),
(74,403,o),
(74,384,cs),
(74,361,o),
(97,345,o),
(120,345,cs),
(183,345,o),
(132,456,o),
(257,456,c),
(376,456,o),
(361,345,o),
(361,308,c),
(361,243,o),
(361,178,o),
(361,113,c),
(361,74,o),
(357,-16,o),
(415,-16,cs),
(473,-16,o),
(515,54,o),
(515,126,c),
(493,126,l),
(493,106,o),
(441,27,o),
(441,85,c)
);
},
{
closed = 1;
nodes = (
(373,196,l),
(373,107,o),
(159,20,o),
(159,100,cs),
(159,203,o),
(376,254,o),
(376,254,c),
(423,259,o),
(369,306,o),
(369,298,c),
(338,251,o),
(59,257,o),
(59,88,cs),
(59,-11,o),
(139,-16,o),
(161,-16,cs),
(233,-16,o),
(373,53,o),
(373,127,c)
);
}
);
width = 588;
},
{
associatedMasterId = m01;
background = {
shapes = (
{
closed = 1;
nodes = (
(422,455,o),
(376,516,o),
(241,516,cs),
(167,516,o),
(102,472,o),
(61,408,cs),
(50,390,o),
(56,354,o),
(80,346,cs),
(101,338,o),
(123,346,o),
(133,376,c),
(150,422,o),
(194,456,o),
(253,456,cs),
(305,456,o),
(342,421,o),
(342,315,cs),
(342,161,ls),
(342,7,o),
(343,-16,o),
(410,-16,cs),
(474,-16,o),
(511,75,o),
(511,118,c),
(511,127,o),
(458,127,o),
(458,118,c),
(458,111,o),
(449,86,o),
(422,73,c),
(422,315,l)
);
},
{
closed = 1;
nodes = (
(355,267,o),
(39,254,o),
(39,91,cs),
(39,-112,o),
(352,17,o),
(352,134,c),
(352,174,l),
(352,131,o),
(150,0,o),
(150,111,cs),
(150,210,o),
(355,235,o),
(355,265,c),
(355,297,l)
);
}
);
};
backgroundImage = {
imagePath = "GLYPH/LETTRE/a.png";
locked = 1;
pos = (30,-29);
scale = (1.6071,1.6071);
};
layerId = "74513ED6-1C90-4120-8DF1-0827AF6F3E7A";
name = "24 mars 25 à 09:52";
shapes = (
{
closed = 1;
nodes = (
(422,329,l),
(422,363,o),
(427,516,o),
(248,516,c),
(113,516,o),
(55,403,o),
(55,384,cs),
(55,361,o),
(78,345,o),
(101,345,cs),
(164,345,o),
(113,456,o),
(238,456,c),
(357,456,o),
(342,345,o),
(342,308,c),
(342,243,o),
(342,178,o),
(342,113,c),
(342,74,o),
(338,-16,o),
(396,-16,cs),
(454,-16,o),
(496,54,o),
(496,126,c),
(474,126,l),
(474,106,o),
(422,27,o),
(422,85,c)
);
},
{
closed = 1;
nodes = (
(354,186,l),
(354,97,o),
(140,10,o),
(140,100,cs),
(140,203,o),
(357,249,o),
(357,249,c),
(404,254,o),
(350,306,o),
(350,298,c),
(319,251,o),
(40,257,o),
(40,88,cs),
(40,-11,o),
(120,-16,o),
(142,-16,cs),
(214,-16,o),
(354,53,o),
(354,127,c)
);
}
);
width = 536;
},
{
associatedMasterId = m01;
background = {
shapes = (
{
closed = 1;
nodes = (
(33,164,ls),
(33,53,o),
(70,-16,o),
(181,-16,cs),
(263,-16,o),
(342,43,o),
(342,147,c),
(342,205,l),
(342,106,o),
(263,44,o),
(202,44,cs),
(136,44,o),
(113,100,o),
(113,163,cs),
(113,432,l),
(175,432,ls),
(184,432,o),
(188,436,o),
(188,445,cs),
(188,487,ls),
(188,496,o),
(184,500,o),
(175,500,cs),
(-29,500,ls),
(-38,500,o),
(-42,496,o),
(-42,487,cs),
(-42,445,ls),
(-42,436,o),
(-38,432,o),
(-29,432,cs),
(33,432,l)
);
},
{
closed = 1;
nodes = (
(342,-5,o),
(346,-7,o),
(352,-7,cs),
(358,-7,o),
(362,-5,o),
(369,0,cs),
(502,101,l),
(502,123,l),
(435,123,ls),
(426,123,o),
(422,127,o),
(422,136,cs),
(422,432,l),
(484,432,ls),
(493,432,o),
(497,436,o),
(497,445,cs),
(497,487,ls),
(497,496,o),
(493,500,o),
(484,500,cs),
(280,500,ls),
(271,500,o),
(267,496,o),
(267,487,cs),
(267,445,ls),
(267,436,o),
(271,432,o),
(280,432,cs),
(342,432,l),
(342,0,ls)
);
}
);
};
backgroundImage = {
imagePath = "GLYPH/LETTRE/a.png";
locked = 1;
pos = (30,-29);
scale = (1.6071,1.6071);
};
layerId = "E498552B-1BD1-4502-A1AF-B948655344FB";
name = "24 mars 25 à 12:21";
shapes = (
{
closed = 1;
nodes = (
(422,329,ls),
(422,363,o),
(447,516,o),
(278,516,cs),
(184,516,o),
(128,470,o),
(72,380,c),
(111,346,l),
(142,406,o),
(199,456,o),
(258,456,cs),
(320,456,o),
(342,429,o),
(342,348,cs),
(342,113,l),
(342,74,o),
(338,-16,o),
(396,-16,cs),
(454,-16,o),
(496,54,o),
(496,126,c),
(474,126,l),
(474,106,o),
(422,27,o),
(422,85,c)
);
},
{
closed = 1;
nodes = (
(342,194,l),
(342,100,o),
(247,44,o),
(200,44,cs),
(148,44,o),
(130,74,o),
(130,120,cs),
(130,218,o),
(342,214,o),
(342,249,c),
(342,298,l),
(342,255,o),
(46,277,o),
(46,108,cs),
(46,39,o),
(80,-16,o),
(177,-16,cs),
(253,-16,o),
(342,32,o),
(342,150,c)
);
}
);
width = 536;
},
{
associatedMasterId = m01;
layerId = "8187986F-8645-4B78-A94E-9162C711A34E";
name = "24 mars 25 à 12:28";
shapes = (
{
closed = 1;
nodes = (
(265,-16,o),
(342,43,o),
(342,147,c),
(342,205,l),
(342,106,o),
(262,44,o),
(202,44,cs),
(152,44,o),
(132,70,o),
(132,120,cs),
(132,220,o),
(342,214,o),
(342,249,c),
(342,298,l),
(342,255,o),
(48,242,o),
(48,112,cs),
(48,32,o),
(105,-16,o),
(185,-16,cs)
);
},
{
closed = 1;
nodes = (
(474,126,l),
(474,106,o),
(422,27,o),
(422,85,c),
(422,329,ls),
(422,363,o),
(447,516,o),
(278,516,cs),
(184,516,o),
(128,470,o),
(72,380,c),
(111,346,l),
(142,406,o),
(199,456,o),
(258,456,cs),
(320,456,o),
(342,429,o),
(342,348,cs),
(342,113,l),
(342,74,o),
(338,-16,o),
(396,-16,cs),
(429,-16,o),
(502,56,o),
(502,100,c)
);
}
);
width = 536;
},
{
associatedMasterId = m01;
layerId = "1F190F2C-AAD2-47E3-AFB2-86555C0F24E7";
name = "3 avr. 25 à 16:04";
shapes = (
{
closed = 1;
nodes = (
(265,-16,o),
(342,43,o),
(342,147,c),
(342,205,l),
(342,106,o),
(262,44,o),
(202,44,cs),
(152,44,o),
(132,70,o),
(132,132,cs),
(132,243,o),
(342,236,o),
(342,254,c),
(342,311,l),
(342,261,o),
(48,275,o),
(48,124,cs),
(48,32,o),
(105,-16,o),
(185,-16,cs)
);
},
{
closed = 1;
nodes = (
(474,126,l),
(474,106,o),
(422,27,o),
(422,85,c),
(422,329,ls),
(422,363,o),
(447,516,o),
(278,516,cs),
(184,516,o),
(134,478,o),
(68,399,c),
(102,368,l),
(143,417,o),
(199,456,o),
(258,456,cs),
(320,456,o),
(342,429,o),
(342,348,cs),
(342,113,l),
(342,74,o),
(338,-16,o),
(396,-16,cs),
(429,-16,o),
(502,68,o),
(502,100,c)
);
}
);
width = 532;
},
{
associatedMasterId = m01;
backgroundImage = {
imagePath = "GLYPH/LETTRE/a.png";
locked = 1;
pos = (30,-20);
scale = (1.3334,1.3334);
};
layerId = "6B3C76D7-AE92-4D62-8B6E-5FA1E1B25A5D";
name = "3 avr. 25 à 16:07";
shapes = (
{
closed = 1;
nodes = (
(265,-16,o),
(342,43,o),
(342,147,c),
(342,205,l),
(342,106,o),
(262,44,o),
(202,44,cs),
(152,44,o),
(132,70,o),
(132,132,cs),
(132,243,o),
(342,236,o),
(342,254,c),
(342,311,l),
(342,261,o),
(48,275,o),
(48,124,cs),
(48,32,o),
(105,-16,o),
(185,-16,cs)
);
},
{
closed = 1;
nodes = (
(481,126,c),
(481,126,o),
(474,126,o),
(474,126,cs),
(474,118,o),
(461,86,o),
(432,86,cs),
(426,86,o),
(422,88,o),
(422,105,c),
(422,329,ls),
(422,363,o),
(447,516,o),
(278,516,cs),
(184,516,o),
(134,478,o),
(68,399,c),
(102,368,l),
(143,417,o),
(199,456,o),
(258,456,cs),
(320,456,o),
(342,429,o),
(342,348,cs),
(342,113,l),
(342,74,o),
(338,-16,o),
(396,-16,cs),
(444,-16,o),
(481,43,o)
);
}
);
width = 532;
},
{
anchors = (
{
name = bottom;
pos = (266,0);
},
{
name = top;
pos = (266,516);
}
);
associatedMasterId = m01;
backgroundImage = {
imagePath = "GLYPH/LETTRE/a.png";
locked = 1;
pos = (30,-20);
scale = (1.3334,1.3334);
};
layerId = "6DB106F0-C289-4B1E-AA6D-F5A72490D838";
name = "10 avr. 25 à 11:37";
shapes = (
{
closed = 1;
nodes = (
(265,-16,o),
(342,43,o),
(342,147,c),
(342,205,l),
(342,106,o),
(262,44,o),
(202,44,cs),
(152,44,o),
(132,70,o),
(132,122,cs),
(132,243,o),
(342,227,o),
(342,245,c),
(342,302,l),
(342,252,o),
(48,275,o),
(48,114,cs),
(48,32,o),
(105,-16,o),
(185,-16,cs)
);
},
{
closed = 1;
nodes = (
(338,-16,o),
(342,74,o),
(342,113,c),
(342,348,ls),
(342,429,o),
(320,456,o),
(258,456,cs),
(199,456,o),
(143,417,o),
(102,368,c),
(68,399,l),
(134,478,o),
(184,516,o),
(278,516,cs),
(447,516,o),
(422,363,o),
(422,329,cs),
(422,105,l),
(422,88,o),
(426,86,o),
(432,86,c),
(451,86,o),
(460,115,o),
(467,130,c),
(495,104,l),
(484,70,o),
(456,-16,o),
(396,-16,cs)
);
}
);
width = 532;
},
{
anchors = (
{
name = bottom;
pos = (266,0);
},
{
name = top;
pos = (266,500);
}
);
associatedMasterId = m01;
backgroundImage = {
imagePath = "GLYPH/LETTRE/a.png";
locked = 1;
pos = (30,-20);
scale = (1.3334,1.3334);
};
layerId = "E1ECCB12-A711-433E-ADB8-0A5ECEB46D44";
name = "14 avr. 25 à 09:51";
shapes = (
{
closed = 1;
nodes = (
(265,-16,o),
(342,43,o),
(342,147,c),
(342,205,l),
(342,106,o),
(262,44,o),
(202,44,cs),
(152,44,o),
(132,70,o),
(132,122,cs),
(132,243,o),
(342,227,o),
(342,245,c),
(342,302,l),
(342,252,o),
(48,275,o),
(48,114,cs),
(48,32,o),
(105,-16,o),
(185,-16,cs)
);
},
{
closed = 1;
nodes = (
(444,-16,o),
(481,43,o),
(481,126,c),
(481,126,o),
(474,126,o),
(474,126,cs),
(474,118,o),
(461,86,o),
(432,86,cs),
(426,86,o),
(422,88,o),
(422,105,c),
(422,329,ls),
(422,363,o),
(447,516,o),
(278,516,cs),
(184,516,o),
(134,478,o),
(68,399,c),
(102,368,l),
(143,417,o),
(199,456,o),
(258,456,cs),
(320,456,o),
(342,429,o),
(342,348,cs),
(342,113,l),
(342,74,o),
(338,-16,o),
(396,-16,cs)
);
}
);
width = 532;
}
);
metricLeft = n;
metricRight = n;
unicode = 97;
},
{
glyphname = ae;
lastChange = "2025-04-14 07:27:52 +0000";
layers = (
{
layerId = m01;
shapes = (
{
pos = (260,0);
ref = e;
},
{
closed = 1;
nodes = (
(65,-16,o),
(8,32,o),
(8,124,cs),
(8,275,o),
(302,261,o),
(302,311,c),
(302,254,l),
(302,236,o),
(92,243,o),
(92,132,cs),
(92,70,o),
(112,44,o),
(162,44,cs),
(222,44,o),
(302,106,o),
(302,205,c),
(309,160,l),
(309,56,o),
(225,-16,o),
(145,-16,cs)
);
},
{
closed = 1;
nodes = (
(361,218,l),
(311,158,l),
(302,349,ls),
(298,430,o),
(280,457,o),
(218,457,cs),
(159,457,o),
(103,418,o),
(62,369,c),
(28,400,l),
(94,479,o),
(144,517,o),
(238,517,cs),
(407,517,o),
(382,364,o),
(382,330,c)
);
}
);
width = 758;
}
);
unicode = 230;
},
{
color = 5;
glyphname = b;
lastChange = "2025-04-19 09:38:20 +0000";
layers = (
{
layerId = m01;
shapes = (
{
closed = 1;
nodes = (
(274,516,o),
(195,457,o),
(195,353,c),
(195,295,l),
(195,394,o),
(274,456,o),
(332,456,cs),
(413,456,o),
(466,368,o),
(466,247,cs),
(466,124,o),
(437,44,o),
(317,44,cs),
(260,44,o),
(229,57,o),
(195,90,c),
(195,762,ls),
(195,773,o),
(191,776,o),
(185,776,cs),
(179,776,o),
(174,773,o),
(167,768,cs),
(35,668,l),
(35,646,l),
(102,646,ls),
(111,646,o),
(115,642,o),
(115,633,cs),
(115,0,l),
(129,0,l),
(159,18,l),
(202,-5,o),
(254,-16,o),
(305,-16,cs),
(460,-16,o),
(549,109,o),
(549,252,cs),
(549,392,o),
(500,516,o),
(354,516,cs)
);
}
);
width = 594;
},
{
associatedMasterId = m01;
layerId = "65FF2A5B-D37B-471F-9323-29922A7A4A12";
name = "10 févr. 25 à 13:51";
width = 600;
},
{
associatedMasterId = m01;
backgroundImage = {
imagePath = "../../theoverzeletti/Desktop/Capture d’écran 2025-02-10 à 13.48.44.png";
locked = 1;
pos = (-11,-45);
scale = (1.9659,1.9659);
};
layerId = "21A964C4-3AA0-4636-B572-D0F4A1530530";
name = "10 févr. 25 à 14:22";
shapes = (
{
closed = 1;
nodes = (
(115,50,l),
(115,544,ls),
(115,551,o),
(115,556,o),
(115,556,c),
(34,556,ls),
(27,556,o),
(22,561,o),
(22,568,c),
(22,590,l),
(22,597,o),
(26,598,o),
(34,602,c),
(62,614,o),
(74,622,o),
(99,642,cs),
(119,658,o),
(124,670,o),
(135,688,c),
(139,696,o),
(140,700,o),
(147,700,c),
(183,700,l),
(190,700,o),
(195,695,o),
(195,688,cs),
(195,50,l)
);
},
{
closed = 1;
nodes = (
(230,296,o),
(214,380,o),
(324,380,cs),
(434,380,o),
(447,281,o),
(444,214,cs),
(441,147,o),
(389,52,o),
(310,52,cs),
(231,52,o),
(187,107,o),
(187,150,c),
(183,254,l)
);
},
{
closed = 1;
nodes = (
(228,377,o),
(228,453,o),
(351,453,cs),
(474,453,o),
(531,365,o),
(531,236,cs),
(531,107,o),
(461,-16,o),
(307,-16,cs),
(233,-16,o),
(115,0,o),
(115,50,c),
(167,339,l)
);
}
);
width = 600;
},
{
associatedMasterId = m01;
backgroundImage = {
imagePath = "../../theoverzeletti/Desktop/Capture d’écran 2025-02-10 à 13.48.44.png";
locked = 1;
pos = (-11,-45);
scale = (1.9659,1.9659);
};
layerId = "D0753E40-E41E-434F-A6EF-ECF925CADD83";
name = "10 févr. 25 à 14:30";
shapes = (
{
closed = 1;
nodes = (
(224,-16,o),
(132,88,o),
(132,216,cs),
(132,343,o),
(224,447,o),
(335,447,cs),
(447,447,o),
(538,343,o),
(538,216,cs),
(538,88,o),
(447,-16,o),
(335,-16,cs)
);
},
{
closed = 1;
nodes = (
(383,62,o),
(442,134,o),
(442,223,cs),
(442,312,o),
(383,384,o),
(309,384,cs),
(236,384,o),
(177,312,o),
(177,223,cs),
(177,134,o),
(236,62,o),
(309,62,cs)
);
},
{
closed = 1;
nodes = (
(48,556,ls),
(41,556,o),
(36,561,o),
(36,568,c),
(36,590,l),
(36,597,o),
(40,598,o),
(48,602,c),
(76,614,o),
(88,622,o),
(113,642,cs),
(133,658,o),
(138,670,o),
(149,688,c),
(153,696,o),
(154,700,o),
(161,700,c),
(197,700,l),
(204,700,o),
(209,695,o),
(209,688,c),
(209,688,o),
(209,551,o),
(209,-4,cs),
(209,-11,o),
(204,-16,o),
(197,-16,c),
(161,-16,l),
(154,-16,o),
(153,-12,o),
(149,-4,c),
(138,14,o),
(133,26,o),
(113,42,cs),
(88,62,o),
(76,70,o),
(48,82,c),
(40,86,o),
(36,87,o),
(36,94,c),
(36,116,l),
(36,123,o),
(41,128,o),
(48,128,cs),
(129,128,l),
(129,128,o),
(129,133,o),
(129,140,cs),
(129,237,o),
(129,420,o),
(129,556,c)
);
}
);
width = 600;
},
{
associatedMasterId = m01;
backgroundImage = {
imagePath = "../../theoverzeletti/Desktop/Capture d’écran 2025-02-10 à 13.48.44.png";
locked = 1;
pos = (-11,-45);
scale = (1.9659,1.9659);
};
layerId = "C4D5133F-F701-4028-B80E-C080674C3E95";
name = "10 févr. 25 à 18:17";
shapes = (
{
closed = 1;
nodes = (
(447,-16,o),
(538,88,o),
(538,216,cs),
(538,343,o),
(447,447,o),
(335,447,cs),
(224,447,o),
(132,343,o),
(132,216,cs),
(132,88,o),
(224,-16,o),
(335,-16,cs)
);
},
{
closed = 1;
nodes = (
(236,62,o),
(177,134,o),
(177,223,cs),
(177,312,o),
(236,384,o),
(309,384,cs),
(383,384,o),
(442,312,o),
(442,223,cs),
(442,134,o),
(383,62,o),
(309,62,cs)
);
},
{
closed = 1;
nodes = (
(204,-16,o),
(209,-11,o),
(209,-4,cs),
(209,551,o),
(209,688,o),
(209,688,c),
(209,695,o),
(204,700,o),
(197,700,c),
(161,700,l),
(154,700,o),
(153,696,o),
(149,688,c),
(138,670,o),
(133,658,o),
(113,642,cs),
(88,622,o),
(76,614,o),
(48,602,c),
(40,598,o),
(36,597,o),
(36,590,c),
(36,568,l),
(36,561,o),
(41,556,o),
(48,556,cs),
(129,556,l),
(129,420,o),
(129,93,o),
(129,-4,cs),
(129,-11,o),
(134,-16,o),
(141,-16,cs),
(197,-16,l)
);
}
);
width = 600;
},
{
associatedMasterId = m01;
layerId = "2BBAB86F-2823-450C-884C-79B8A43D02C7";
name = "17 mars 25 à 10:28";
shapes = (
{
closed = 1;
nodes = (
(213,-16,o),
(110,144,o),
(110,267,cs),
(110,387,o),
(193,516,o),
(328,516,cs),
(455,516,o),
(554,392,o),
(554,249,cs),
(554,109,o),
(475,-16,o),
(340,-16,cs)
);
},
{
closed = 1;
nodes = (
(439,44,o),
(471,118,o),
(471,224,cs),
(471,368,o),
(399,456,o),
(316,456,cs),
(229,456,o),
(190,382,o),
(190,296,cs),
(190,172,o),
(265,44,o),
(352,44,cs)
);
},
{
closed = 1;
nodes = (
(190,4,o),
(186,0,o),
(177,0,cs),
(48,0,ls),
(39,0,o),
(35,4,o),
(35,13,cs),
(35,55,ls),
(35,64,o),
(39,68,o),
(48,68,cs),
(110,68,l),
(110,624,ls),
(110,633,o),
(106,637,o),
(97,637,cs),
(30,637,l),
(30,659,l),
(163,760,ls),
(170,765,o),
(174,767,o),
(180,767,cs),
(186,767,o),
(190,765,o),
(190,760,cs),
(190,13,ls)
);
}
);
width = 587;
},
{
associatedMasterId = m01;
background = {
shapes = (
{
closed = 1;
nodes = (
(174,-16,o),
(70,94,o),
(70,257,cs),
(70,387,o),
(158,516,o),
(305,516,cs),
(442,516,o),
(552,406,o),
(552,243,cs),
(552,113,o),
(457,-16,o),
(317,-16,cs)
);
},
{
closed = 1;
nodes = (
(187,456,o),
(153,382,o),
(153,296,cs),
(153,122,o),
(226,44,o),
(329,44,cs),
(420,44,o),
(469,118,o),
(469,204,cs),
(469,378,o),
(390,456,o),
(285,456,cs)
);
}
);
};
layerId = "E9BDB304-58CD-47D6-ADAF-E0B9E93D53E5";
name = "24 mars 25 à 09:33";
shapes = (
{
closed = 1;
nodes = (
(187,762,ls),
(187,773,o),
(183,776,o),
(177,776,cs),
(171,776,o),
(166,773,o),
(159,768,cs),
(27,668,l),
(27,646,l),
(94,646,ls),
(103,646,o),
(107,642,o),
(107,633,cs),
(107,48,l),
(157,4,o),
(228,-16,o),
(297,-16,cs),
(452,-16,o),
(541,109,o),
(541,252,cs),
(541,392,o),
(492,516,o),
(345,516,cs),
(266,516,o),
(200,448,o),
(181,379,c),
(178,304,l),
(217,411,o),
(258,456,o),
(322,456,cs),
(405,456,o),
(458,368,o),
(458,254,cs),
(458,124,o),
(429,44,o),
(309,44,cs),
(269,44,o),
(221,55,o),
(187,88,c)
);
}
);
width = 587;
},
{
associatedMasterId = m01;
background = {
shapes = (
{
closed = 1;
nodes = (
(174,-16,o),
(70,94,o),
(70,257,cs),
(70,387,o),
(158,516,o),
(305,516,cs),
(442,516,o),
(552,406,o),
(552,243,cs),
(552,113,o),
(457,-16,o),
(317,-16,cs)
);
},
{
closed = 1;
nodes = (
(187,456,o),
(153,382,o),
(153,296,cs),
(153,122,o),
(226,44,o),
(329,44,cs),
(420,44,o),
(469,118,o),
(469,204,cs),
(469,378,o),
(390,456,o),
(285,456,cs)
);
}
);
};
layerId = "D4AC9428-D010-49D5-A8F0-FA2847EE991C";
name = "24 mars 25 à 09:43";
shapes = (
{
closed = 1;
nodes = (
(187,762,ls),
(187,773,o),
(183,776,o),
(177,776,cs),
(171,776,o),
(166,773,o),
(159,768,cs),
(27,668,l),
(27,646,l),
(94,646,ls),
(103,646,o),
(107,642,o),
(107,633,cs),
(107,48,l),
(157,4,o),
(228,-16,o),
(297,-16,cs),
(452,-16,o),
(541,109,o),
(541,252,cs),
(541,392,o),
(492,516,o),
(345,516,cs),
(266,516,o),
(187,450,o),
(187,379,c),
(187,304,l),
(187,408,o),
(258,456,o),
(322,456,cs),
(405,456,o),
(458,368,o),
(458,254,cs),
(458,124,o),
(429,44,o),
(309,44,cs),
(269,44,o),
(221,55,o),
(187,88,c)
);
}
);
width = 587;
},
{
associatedMasterId = m01;
layerId = "72C3F505-3DC1-47D2-B543-75F10E80044C";
name = "24 mars 25 à 10:32";
shapes = (
{
closed = 1;
nodes = (
(172,773,o),
(168,776,o),
(162,776,cs),
(156,776,o),
(151,773,o),
(144,768,cs),
(12,668,l),
(12,646,l),
(79,646,ls),
(88,646,o),
(92,642,o),
(92,633,cs),
(92,0,l),
(106,0,l),
(136,18,l),
(179,-5,o),
(231,-16,o),
(282,-16,cs),
(437,-16,o),
(526,109,o),
(526,252,cs),
(526,392,o),
(477,516,o),
(330,516,cs),
(251,516,o),
(185,448,o),
(166,379,c),
(163,304,l),
(202,411,o),
(243,456,o),
(307,456,cs),
(390,456,o),
(443,368,o),
(443,247,cs),
(443,124,o),
(414,44,o),
(294,44,cs),
(254,44,o),
(206,57,o),
(172,90,c),
(172,762,ls)
);
}
);
width = 587;
},
{
associatedMasterId = m01;
layerId = "69F628D2-61B4-48B5-9EF7-2BEBC4B35951";
name = "24 mars 25 à 10:34";
width = 587;
}
);
metricLeft = "=n-10";
metricRight = n;
unicode = 98;
},
{
color = 5;
glyphname = c;
lastChange = "2025-04-19 09:40:00 +0000";
layers = (
{
background = {
shapes = (
{
closed = 1;
nodes = (
(405,-16,o),
(484,109,o),
(484,249,cs),
(484,392,o),
(385,516,o),
(258,516,cs),
(123,516,o),
(40,387,o),
(40,247,cs),
(40,104,o),
(143,-16,o),
(270,-16,cs)
);
},
{
closed = 1;
nodes = (
(195,44,o),
(123,132,o),
(123,276,cs),
(123,382,o),
(159,456,o),
(246,456,cs),
(329,456,o),
(401,368,o),
(401,224,cs),
(401,118,o),
(369,44,o),
(282,44,cs)
);
}
);
};
backgroundImage = {
crop = (8.161,0,377.059,534);
imagePath = "GLYPH/LETTRE/c.png";
locked = 1;
pos = (2,-71);
scale = (1.2253,1.2253);
};
layerId = m01;
shapes = (
{
closed = 1;
nodes = (
(460,104,l),
(425,49,o),
(368,-16,o),
(279,-16,cs),
(134,-16,o),
(40,99,o),
(40,264,cs),
(40,402,o),
(147,516,o),
(285,516,cs),
(370,516,o),
(452,466,o),
(452,392,cs),
(452,354,o),
(415,333,o),
(380,333,c),
(368,411,o),
(337,456,o),
(261,456,cs),
(156,456,o),
(123,390,o),
(123,285,cs),
(123,159,o),
(168,44,o),
(294,44,cs),
(363,44,o),
(409,96,o),
(432,130,c)
);
}
);
width = 505;
},
{
associatedMasterId = m01;
backgroundImage = {
imagePath = "LETTRE/c.png";
locked = 1;
pos = (8,-54);
scale = (1.1722,1.1722);
};
layerId = "C62AE27B-F26D-4A1E-A594-05E8383971E0";
name = "10 mars 25 à 12:00";
shapes = (
{
closed = 1;
nodes = (
(347,422,o),
(303,456,o),
(244,456,cs),
(157,456,o),
(121,380,o),
(121,274,cs),
(121,130,o),
(193,42,o),
(280,42,cs),
(334,42,o),
(367,71,o),
(384,119,c),
(391,144,o),
(411,150,o),
(428,144,cs),
(448,137,o),
(453,107,o),
(444,91,c),
(408,26,o),
(348,-18,o),
(268,-18,cs),
(141,-18,o),
(38,102,o),
(38,245,cs),
(38,385,o),
(121,516,o),
(256,516,cs),
(330,516,o),
(395,472,o),
(436,408,cs),
(447,390,o),
(441,354,o),
(417,346,cs),
(396,338,o),
(374,346,o),
(364,376,c)
);
}
);
width = 476;
},
{
associatedMasterId = m01;
backgroundImage = {
imagePath = "LETTRE/c.png";
locked = 1;
pos = (8,-54);
scale = (1.1722,1.1722);
};
layerId = "A4699AD9-C69E-443E-AAA6-1C861CFC9100";
name = "10 mars 25 à 12:02";
shapes = (
{
closed = 0;
nodes = (
(390,463,l),
(353,496,o),
(307,516,o),
(256,516,cs),
(121,516,o),
(38,387,o),
(38,247,cs),
(38,104,o),
(141,-16,o),
(268,-16,cs),
(338,-16,o),
(392,17,o),
(429,69,c)
);
},
{
closed = 0;
nodes = (
(376,101,l),
(357,65,o),
(326,44,o),
(280,44,cs),
(193,44,o),
(121,132,o),
(121,276,cs),
(121,382,o),
(157,456,o),
(244,456,cs),
(279,456,o),
(312,440,o),
(339,411,c)
);
}
);
width = 600;
},
{
associatedMasterId = m01;
backgroundImage = {
imagePath = "LETTRE/c.png";
locked = 1;
pos = (8,-54);
scale = (1.1722,1.1722);
};
layerId = "1BDC8AA5-04F1-46E2-9327-419AA0DD97A6";
name = "10 mars 25 à 12:07";
shapes = (
{
closed = 0;
nodes = (
(399,211,l),
(396,112,o),
(363,44,o),
(280,44,cs),
(193,44,o),
(121,132,o),
(121,276,cs),
(121,382,o),
(157,456,o),
(244,456,cs),
(303,456,o),
(356,412,o),
(382,335,c),
(388,320,o),
(415,332,o),
(430,341,cs),
(445,350,o),
(450,387,o),
(436,408,c),
(395,472,o),
(330,516,o),
(256,516,cs),
(121,516,o),
(38,387,o),
(38,247,cs),
(38,104,o),
(141,-16,o),
(268,-16,cs),
(390,-16,o),
(466,86,o),
(480,209,c)
);
}
);
width = 600;
},
{
associatedMasterId = m01;
backgroundImage = {
imagePath = "LETTRE/c.png";
locked = 1;
pos = (8,-54);
scale = (1.1722,1.1722);
};
layerId = "27F8A6B6-8F9D-485D-A3A2-7A4AEBFC4CDB";
name = "10 mars 25 à 12:08";
shapes = (
{
closed = 1;
nodes = (
(408,28,o),
(348,-16,o),
(268,-16,cs),
(141,-16,o),
(38,104,o),
(38,247,cs),
(38,387,o),
(121,516,o),
(256,516,cs),
(330,516,o),
(395,472,o),
(436,408,c),
(450,387,o),
(445,350,o),
(430,341,cs),
(415,332,o),
(388,322,o),
(382,335,c),
(356,412,o),
(303,456,o),
(244,456,cs),
(157,456,o),
(121,382,o),
(121,276,cs),
(121,132,o),
(193,44,o),
(280,44,cs),
(334,44,o),
(367,73,o),
(384,121,c),
(391,146,o),
(411,152,o),
(428,146,cs),
(448,139,o),
(453,109,o),
(444,93,c)
);
},
{
closed = 0;
nodes = (
(433,320,l),
(444,302,o),
(438,267,o),
(415,259,cs),
(395,252,o),
(372,259,o),
(364,288,c)
);
}
);
width = 600;
},
{
associatedMasterId = m01;
layerId = "209C209E-08F9-40CB-B371-636B3EA2858F";
name = "15 mars 25 à 10:43";
shapes = (
{
closed = 1;
nodes = (
(399,26,o),
(339,-18,o),
(259,-18,cs),
(132,-18,o),
(29,102,o),
(29,245,cs),
(29,385,o),
(112,516,o),
(247,516,cs),
(321,516,o),
(386,472,o),
(427,408,cs),
(438,390,o),
(432,354,o),
(408,346,cs),
(387,338,o),
(365,346,o),
(355,376,c),
(338,422,o),
(294,456,o),
(235,456,cs),
(148,456,o),
(112,380,o),
(112,274,cs),
(112,130,o),
(184,42,o),
(271,42,cs),
(325,42,o),
(358,71,o),
(375,119,c),
(435,91,l)
);
}
);
width = 462;
},
{
associatedMasterId = m01;
layerId = "FA3F0567-1C7C-4A2D-998E-E85F4AD21D61";
name = "17 mars 25 à 10:01";
shapes = (
{
closed = 1;
nodes = (
(379,129,o),
(438,103,o),
(435,91,c),
(399,26,o),
(339,-18,o),
(259,-18,cs),
(132,-18,o),
(29,102,o),
(29,245,cs),
(29,385,o),
(112,516,o),
(247,516,cs),
(321,516,o),
(386,472,o),
(427,408,cs),
(438,390,o),
(432,354,o),
(408,346,cs),
(387,338,o),
(365,346,o),
(355,376,c),
(338,422,o),
(294,456,o),
(235,456,cs),
(148,456,o),
(112,380,o),
(112,274,cs),
(112,130,o),
(184,42,o),
(271,42,cs),
(325,42,o),
(358,71,o),
(375,119,c)
);
}
);
width = 462;
},
{
associatedMasterId = m01;
background = {
shapes = (
{
closed = 1;
nodes = (
(393,-16,o),
(472,109,o),
(472,249,cs),
(472,392,o),
(373,516,o),
(246,516,cs),
(111,516,o),
(28,387,o),
(28,247,cs),
(28,104,o),
(131,-16,o),
(258,-16,cs)
);
},
{
closed = 1;
nodes = (
(183,44,o),
(111,132,o),
(111,276,cs),
(111,382,o),
(147,456,o),
(234,456,cs),
(317,456,o),
(389,368,o),
(389,224,cs),
(389,118,o),
(357,44,o),
(270,44,cs)
);
}
);
};
backgroundImage = {
crop = (8.161,0,377.059,534);
imagePath = "GLYPH/LETTRE/c.png";
locked = 1;
pos = (-10,-71);
scale = (1.2253,1.2253);
};
layerId = "FE709872-CCCD-4396-A55A-54C26117BED5";
name = "17 mars 25 à 10:15";
shapes = (
{
closed = 1;
nodes = (
(427,145,o),
(435,135,o),
(435,117,cs),
(435,65,o),
(369,-16,o),
(245,-16,cs),
(132,-16,o),
(19,72,o),
(19,250,cs),
(19,385,o),
(102,516,o),
(261,516,cs),
(352,516,o),
(434,466,o),
(434,392,cs),
(434,367,o),
(417,343,o),
(382,343,cs),
(313,343,o),
(369,456,o),
(252,456,cs),
(158,456,o),
(102,400,o),
(102,264,cs),
(102,100,o),
(204,44,o),
(273,44,cs),
(382,44,o),
(365,145,o),
(412,145,cs)
);
}
);
width = 462;
},
{
associatedMasterId = m01;
background = {
shapes = (
{
closed = 1;
nodes = (
(393,-16,o),
(472,109,o),
(472,249,cs),
(472,392,o),
(373,516,o),
(246,516,cs),
(111,516,o),
(28,387,o),
(28,247,cs),
(28,104,o),
(131,-16,o),
(258,-16,cs)
);
},
{
closed = 1;
nodes = (
(183,44,o),
(111,132,o),
(111,276,cs),
(111,382,o),
(147,456,o),
(234,456,cs),
(317,456,o),
(389,368,o),
(389,224,cs),
(389,118,o),
(357,44,o),
(270,44,cs)
);
}
);
};
backgroundImage = {
crop = (8.161,0,377.059,534);
imagePath = "GLYPH/LETTRE/c.png";
locked = 1;
pos = (-10,-71);
scale = (1.2253,1.2253);
};
layerId = "6ACFBE1D-3013-42BC-838B-14099E15F376";
name = "17 mars 25 à 10:19";
shapes = (
{
closed = 1;
nodes = (
(442,132,o),
(448,122,o),
(448,109,cs),
(448,50,o),
(363,-16,o),
(267,-16,cs),
(102,-16,o),
(28,99,o),
(28,264,cs),
(28,402,o),
(135,516,o),
(273,516,cs),
(358,516,o),
(440,466,o),
(440,392,cs),
(440,367,o),
(423,343,o),
(388,343,cs),
(319,343,o),
(375,456,o),
(249,456,cs),
(144,456,o),
(111,390,o),
(111,285,cs),
(111,159,o),
(156,44,o),
(282,44,cs),
(345,44,o),
(381,78,o),
(398,105,cs),
(410,124,o),
(416,132,o),
(430,132,cs)
);
}
);
width = 462;
},
{
associatedMasterId = m01;
background = {
shapes = (
{
closed = 1;
nodes = (
(393,-16,o),
(472,109,o),
(472,249,cs),
(472,392,o),
(373,516,o),
(246,516,cs),
(111,516,o),
(28,387,o),
(28,247,cs),
(28,104,o),
(131,-16,o),
(258,-16,cs)
);
},
{
closed = 1;
nodes = (
(183,44,o),
(111,132,o),
(111,276,cs),
(111,382,o),
(147,456,o),
(234,456,cs),
(317,456,o),
(389,368,o),
(389,224,cs),
(389,118,o),
(357,44,o),
(270,44,cs)
);
}
);
};
backgroundImage = {
crop = (8.161,0,377.059,534);
imagePath = "GLYPH/LETTRE/c.png";
locked = 1;
pos = (-10,-71);
scale = (1.2253,1.2253);
};
layerId = "A80F35ED-40E3-4171-BAF3-2AC366EAD40B";
name = "24 mars 25 à 10:57";
shapes = (
{
closed = 1;
nodes = (
(448,104,l),
(425,42,o),
(360,-16,o),
(267,-16,cs),
(102,-16,o),
(28,99,o),
(28,264,cs),
(28,402,o),
(135,516,o),
(273,516,cs),
(358,516,o),
(440,466,o),
(440,392,cs),
(440,354,o),
(403,333,o),
(368,333,c),
(356,411,o),
(325,456,o),
(249,456,cs),
(144,456,o),
(111,390,o),
(111,285,cs),
(111,159,o),
(156,44,o),
(282,44,cs),
(351,44,o),
(397,96,o),
(420,130,c)
);
}
);
width = 468;
}
);
metricLeft = o;
metricRight = n;
unicode = 99;
},
{
glyphname = ccedilla;
lastChange = "2025-04-19 08:51:05 +0000";
layers = (
{
backgroundImage = {
crop = (0,0,284,473);
imagePath = "GLYPH/ACCENT/ç.png";
locked = 1;
pos = (10,-234);
scale = (1.6108,1.6108);
};
layerId = m01;
shapes = (
{
ref = c;
},
{
pos = (56,0);
ref = cedillacomb;
}
);
width = 505;
},
{
associatedMasterId = m01;
backgroundImage = {
imagePath = "GLYPH/ACCENT/ç.png";
locked = 1;
pos = (10,-234);
scale = (1.6108,1.6108);
};
layerId = "4AC31947-90FB-45D6-82C9-52D6F6229309";
name = "31 mars 25 à 12:02";
shapes = (
{
ref = c;
},
{
closed = 1;
nodes = (
(252,-8,l),
(226,-47,l),
(293,-47,o),
(312,-77,o),
(312,-123,cs),
(312,-157,o),
(293,-220,o),
(226,-220,cs),
(186,-220,o),
(155,-217,o),
(141,-205,c),
(175,-157,l),
(206,-157,o),
(232,-148,o),
(232,-123,cs),
(232,-95,o),
(221,-75,o),
(153,-67,c),
(201,2,l)
);
}
);
width = 468;
}
);
metricLeft = c;
metricRight = c;
unicode = 231;
},
{
color = 5;
glyphname = d;
lastChange = "2025-04-19 09:40:15 +0000";
layers = (
{
associatedMasterId = m01;
backgroundImage = {
imagePath = "../../theoverzeletti/Desktop/Capture d’écran 2025-02-10 à 14.05.55.png";
locked = 1;
pos = (-141,-129);
scale = (4.2872,4.2872);
};
layerId = "1D26EA21-E2CB-49FD-B90C-1E9B48C8BB76";
name = "10 févr. 25 à 14:13";
shapes = (
{
closed = 1;
nodes = (
(498,109,o),
(445,77,o),
(498,109,cs),
(511,117,o),
(506,55,o),
(498,40,cs),
(487,20,o),
(391,-16,o),
(372,-16,cs),
(366,-16,o),
(365,-5,o),
(365,0,c),
(365,544,ls),
(365,551,o),
(365,556,o),
(365,556,c),
(284,556,ls),
(277,556,o),
(272,561,o),
(272,568,c),
(272,590,l),
(272,597,o),
(276,598,o),
(284,602,c),
(312,614,o),
(324,622,o),
(349,642,cs),
(369,658,o),
(374,670,o),
(385,688,c),
(389,696,o),
(390,700,o),
(397,700,c),
(433,700,l),
(440,700,o),
(445,695,o),
(445,688,cs),
(445,484,o),
(445,281,o),
(445,77,c)
);
},
{
closed = 0;
nodes = (
(445,-13,ls),
(445,-6,o),
(445,-1,o),
(445,-1,c),
(526,-1,ls),
(533,-1,o),
(538,4,o),
(538,11,c),
(538,33,l),
(538,40,o),
(534,41,o),
(526,45,c),
(498,57,o),
(486,65,o),
(461,85,cs),
(441,101,o),
(436,113,o),
(425,131,c),
(421,139,o),
(420,143,o),
(413,143,c),
(377,143,l),
(370,143,o),
(365,138,o),
(365,131,cs)
);
}
);
width = 600;
},
{
associatedMasterId = m01;
backgroundImage = {
imagePath = "../../theoverzeletti/Desktop/Capture d’écran 2025-02-10 à 14.05.55.png";
locked = 1;
pos = (-141,-129);
scale = (4.2872,4.2872);
};
layerId = "5F245BD9-3A9A-4BDA-A81E-5D67AC76C1F0";
name = "10 févr. 25 à 14:15";
shapes = (
{
closed = 0;
nodes = (
(365,183,l),
(365,544,ls),
(365,551,o),
(365,556,o),
(365,556,c),
(284,556,ls),
(277,556,o),
(272,561,o),
(272,568,c),
(272,590,l),
(272,597,o),
(276,598,o),
(284,602,c),
(312,614,o),
(324,622,o),
(349,642,cs),
(369,658,o),
(374,670,o),
(385,688,c),
(389,696,o),
(390,700,o),
(397,700,c),
(433,700,l),
(440,700,o),
(445,695,o),
(445,688,cs),
(445,520,o),
(445,353,o),
(445,185,c)
);
},
{
closed = 0;
nodes = (
(448,16,l),
(505,73,ls),
(510,78,o),
(510,85,o),
(505,90,c),
(489,106,l),
(484,111,o),
(481,109,o),
(472,106,c),
(444,95,o),
(430,92,o),
(398,88,cs),
(373,85,o),
(361,90,o),
(340,95,c),
(332,98,o),
(328,100,o),
(323,95,c),
(298,70,l),
(293,65,o),
(293,58,o),
(298,53,cs)
);
}
);
width = 600;
},
{
associatedMasterId = m01;
backgroundImage = {
imagePath = "../../theoverzeletti/Desktop/Capture d’écran 2025-02-10 à 14.05.55.png";
locked = 1;
pos = (-141,-129);
scale = (4.2872,4.2872);
};
layerId = "C4B6CD09-212A-4E70-A115-758982E0E7C1";
name = "10 févr. 25 à 14:17";
shapes = (
{
closed = 1;
nodes = (
(453,99,o),
(462,102,o),
(472,106,c),
(481,109,o),
(484,111,o),
(489,106,c),
(505,90,l),
(510,85,o),
(510,77,o),
(505,73,cs),
(440,23,ls),
(415,4,o),
(361,-31,o),
(361,-4,cs),
(361,129,o),
(364,117,o),
(365,183,c),
(365,544,ls),
(365,551,o),
(365,556,o),
(365,556,c),
(284,556,ls),
(277,556,o),
(272,561,o),
(272,568,c),
(272,590,l),
(272,597,o),
(276,598,o),
(284,602,c),
(312,614,o),
(324,622,o),
(349,642,cs),
(369,658,o),
(374,670,o),
(385,688,c),
(389,696,o),
(390,700,o),
(397,700,c),
(433,700,l),
(440,700,o),
(445,695,o),
(445,688,cs),
(445,520,o),
(445,265,o),
(445,97,c)
);
}
);
width = 600;
},
{
associatedMasterId = m01;
layerId = "4EF5D1C6-B546-4FD4-9FED-1C7CB41E7759";
name = "17 mars 25 à 11:21";
shapes = (
{
closed = 1;
nodes = (
(480,765,o),
(476,767,o),
(470,767,cs),
(464,767,o),
(460,765,o),
(453,760,cs),
(320,659,l),
(320,637,l),
(387,637,ls),
(396,637,o),
(400,633,o),
(400,624,cs),
(400,0,ls),
(400,-5,o),
(404,-7,o),
(410,-7,cs),
(416,-7,o),
(420,-5,o),
(427,0,cs),
(560,97,l),
(560,123,l),
(538,116,o),
(515,111,o),
(503,111,cs),
(484,111,o),
(480,127,o),
(480,136,cs),
(480,760,ls)
);
},
{
closed = 1;
nodes = (
(-438,-16,o),
(-542,94,o),
(-542,257,cs),
(-542,387,o),
(-454,516,o),
(-307,516,cs),
(-170,516,o),
(-60,406,o),
(-60,243,cs),
(-60,113,o),
(-155,-16,o),
(-295,-16,cs)
);
},
{
closed = 1;
nodes = (
(-425,456,o),
(-459,382,o),
(-459,296,cs),
(-459,122,o),
(-386,44,o),
(-283,44,cs),
(-192,44,o),
(-143,118,o),
(-143,204,cs),
(-143,378,o),
(-222,456,o),
(-327,456,cs)
);
},
{
closed = 1;
nodes = (
(406,73,o),
(349,44,o),
(290,44,cs),
(187,44,o),
(114,122,o),
(114,296,cs),
(114,382,o),
(148,456,o),
(246,456,c),
(313,443,o),
(354,401,o),
(408,342,c),
(465,410,l),
(410,467,o),
(339,497,o),
(266,516,c),
(119,516,o),
(31,387,o),
(31,257,cs),
(31,94,o),
(135,-16,o),
(268,-16,c),
(370,-16,o),
(406,50,o),
(406,66,c),
(406,126,l)
);
}
);
width = 600;
},
{
associatedMasterId = m01;
layerId = "B506AE12-1AA4-4C89-9272-9BEC5354CB70";
name = "24 mars 25 à 09:28";
shapes = (
{
closed = 1;
nodes = (
(480,765,o),
(476,767,o),
(470,767,cs),
(464,767,o),
(460,765,o),
(453,760,cs),
(320,659,l),
(320,637,l),
(387,637,ls),
(396,637,o),
(400,633,o),
(400,624,cs),
(400,0,ls),
(400,-5,o),
(404,-7,o),
(410,-7,cs),
(416,-7,o),
(420,-5,o),
(427,0,cs),
(560,97,l),
(560,123,l),
(538,116,o),
(515,111,o),
(503,111,cs),
(484,111,o),
(480,127,o),
(480,136,cs),
(480,760,ls)
);
},
{
closed = 1;
nodes = (
(406,73,o),
(349,43,o),
(290,43,cs),
(177,43,o),
(114,102,o),
(114,286,cs),
(114,372,o),
(158,456,o),
(246,456,cs),
(319,456,o),
(411,413,o),
(411,383,c),
(411,436,l),
(411,467,o),
(342,516,o),
(256,516,cs),
(81,516,o),
(31,377,o),
(31,247,cs),
(31,64,o),
(135,-16,o),
(268,-16,c),
(370,-16,o),
(406,50,o),
(406,66,c),
(406,126,l)
);
}
);
width = 605;
},
{
associatedMasterId = m01;
background = {
shapes = (
{
closed = 1;
nodes = (
(373,31,o),
(372,29,o),
(375,23,cs),
(384,8,o),
(389,-1,o),
(396,-16,cs),
(400,-22,o),
(402,-23,o),
(407,-19,cs),
(588,78,l),
(593,82,o),
(593,83,o),
(590,89,c),
(569,128,l),
(565,134,o),
(564,135,o),
(559,132,cs),
(379,33,ls)
);
},
{
closed = 0;
nodes = (
(434,64,l),
(492,94,l)
);
}
);
};
layerId = "DB14612E-6E57-4F06-B29C-3D9F03D0B0D1";
name = "24 mars 25 à 09:50";
shapes = (
{
closed = 1;
nodes = (
(480,774,o),
(476,776,o),
(470,776,cs),
(464,776,o),
(460,774,o),
(453,769,cs),
(320,668,l),
(320,646,l),
(387,646,ls),
(396,646,o),
(400,642,o),
(400,633,cs),
(400,-9,ls),
(400,-14,o),
(404,-16,o),
(410,-16,cs),
(416,-16,o),
(420,-13,o),
(427,-9,cs),
(554,60,ls),
(557,62,o),
(560,64,o),
(560,68,cs),
(560,127,ls),
(560,130,o),
(557,131,o),
(553,129,cs),
(480,88,l),
(480,769,ls)
);
},
{
closed = 1;
nodes = (
(400,73,o),
(349,43,o),
(260,43,cs),
(177,43,o),
(114,122,o),
(114,256,cs),
(114,402,o),
(168,456,o),
(272,456,cs),
(349,456,o),
(400,419,o),
(400,383,c),
(400,424,l),
(400,477,o),
(342,516,o),
(270,516,cs),
(130,516,o),
(31,387,o),
(31,247,cs),
(31,97,o),
(106,-16,o),
(246,-16,cs),
(330,-16,o),
(372,25,o),
(400,66,c),
(400,126,l)
);
}
);
width = 605;
},
{
layerId = m01;
name = Regular;
shapes = (
{
closed = 1;
nodes = (
(409,73,o),
(358,43,o),
(269,43,cs),
(186,43,o),
(123,122,o),
(123,256,cs),
(123,402,o),
(177,456,o),
(281,456,cs),
(358,456,o),
(409,419,o),
(409,383,c),
(409,424,l),
(409,477,o),
(351,516,o),
(279,516,cs),
(139,516,o),
(40,387,o),
(40,247,cs),
(40,97,o),
(115,-16,o),
(255,-16,cs),
(339,-16,o),
(381,25,o),
(409,66,c),
(409,126,l)
);
},
{
closed = 1;
nodes = (
(409,-2,ls),
(409,-13,o),
(413,-16,o),
(419,-16,cs),
(425,-16,o),
(430,-13,o),
(437,-8,c),
(569,97,l),
(569,123,l),
(547,116,o),
(524,111,o),
(512,111,cs),
(493,111,o),
(489,127,o),
(489,136,cs),
(489,762,ls),
(489,773,o),
(485,776,o),
(479,776,cs),
(473,776,o),
(468,773,o),
(461,768,cs),
(329,668,l),
(329,646,l),
(396,646,ls),
(405,646,o),
(409,642,o),
(409,633,cs)
);
}
);
width = 609;
},
{
associatedMasterId = m01;
layerId = "2E03B9F0-853D-49D0-8AB8-64445AEE4548";
name = "24 mars 25 à 10:37";
shapes = (
{
closed = 1;
nodes = (
(480,774,o),
(476,776,o),
(470,776,cs),
(464,776,o),
(460,774,o),
(453,769,cs),
(320,668,l),
(320,646,l),
(387,646,ls),
(396,646,o),
(400,642,o),
(400,633,cs),
(400,-9,ls),
(400,-14,o),
(404,-16,o),
(410,-16,cs),
(416,-16,o),
(420,-14,o),
(427,-9,cs),
(560,97,l),
(560,123,l),
(538,116,o),
(515,111,o),
(503,111,cs),
(484,111,o),
(480,127,o),
(480,136,cs),
(480,769,ls)
);
},
{
closed = 1;
nodes = (
(400,73,o),
(349,43,o),
(260,43,cs),
(177,43,o),
(114,122,o),
(114,256,cs),
(114,402,o),
(168,456,o),
(272,456,cs),
(349,456,o),
(400,419,o),
(400,383,c),
(400,424,l),
(400,477,o),
(342,516,o),
(270,516,cs),
(130,516,o),
(31,387,o),
(31,247,cs),
(31,97,o),
(106,-16,o),
(246,-16,cs),
(330,-16,o),
(372,25,o),
(400,66,c),
(400,126,l)
);
}
);
width = 605;
}
);
metricLeft = o;
metricRight = o;
unicode = 100;
},
{
color = 5;
glyphname = e;
lastChange = "2025-04-19 09:40:03 +0000";
layers = (
{
anchors = (
{
name = bottom;
pos = (251,0);
},
{
name = top;
pos = (251,500);
}
);
background = {
shapes = (
{
closed = 1;
nodes = (
(94,-16,o),
(40,89,o),
(40,254,cs),
(40,392,o),
(152,516,o),
(265,516,cs),
(389,516,o),
(447,428,o),
(469,377,cs),
(469,377,o),
(472,369,o),
(469,367,cs),
(463,364,o),
(469,367,o),
(463,364,c),
(119,232,l),
(121,285,l),
(368,382,l),
(360,406,o),
(313,456,o),
(256,456,cs),
(149,456,o),
(123,378,o),
(123,285,cs),
(123,149,o),
(166,44,o),
(294,44,cs),
(363,44,o),
(409,96,o),
(432,130,c),
(460,104,l),
(425,49,o),
(368,-16,o),
(279,-16,cs)
);
}
);
};
layerId = m01;
shapes = (
{
closed = 1;
nodes = (
(124,-16,o),
(40,99,o),
(40,254,cs),
(40,392,o),
(152,516,o),
(283,516,cs),
(389,516,o),
(449,446,o),
(469,357,cs),
(469,357,o),
(472,349,o),
(469,347,cs),
(463,344,o),
(469,347,o),
(463,344,c),
(119,212,l),
(121,265,l),
(410,378,l),
(368,356,l),
(358,408,o),
(325,456,o),
(258,456,cs),
(159,456,o),
(123,378,o),
(123,285,cs),
(123,149,o),
(166,44,o),
(291,44,cs),
(353,44,o),
(399,76,o),
(432,130,c),
(460,104,l),
(425,39,o),
(358,-16,o),
(269,-16,cs)
);
}
);
width = 510;
},
{
associatedMasterId = m01;
backgroundImage = {
imagePath = "LETTRE/e copie.png";
locked = 1;
pos = (61,-35);
scale = (3.5654,3.5654);
};
layerId = "CA1FF8BD-0E0D-48D5-ADF9-84F6FDCD3218";
name = "10 mars 25 à 12:14";
shapes = (
{
closed = 0;
nodes = (
(140,227,l),
(489,365,l),
(453,453,o),
(377,516,o),
(286,516,cs),
(151,516,o),
(68,387,o),
(68,247,cs),
(68,103,o),
(171,-18,o),
(298,-18,cs),
(378,-18,o),
(438,26,o),
(474,91,c),
(483,107,o),
(478,137,o),
(458,144,cs),
(441,150,o),
(421,144,o),
(414,119,c),
(397,71,o),
(364,42,o),
(310,42,cs),
(223,42,o),
(151,130,o),
(151,276,cs),
(151,382,o),
(187,456,o),
(274,456,cs),
(357,456,o),
(429,368,o),
(429,224,cs)
);
},
{
closed = 0;
nodes = (
(142,295,l),
(398,384,l)
);
}
);
width = 600;
},
{
associatedMasterId = m01;
backgroundImage = {
imagePath = "LETTRE/e copie.png";
locked = 1;
pos = (61,-35);
scale = (3.5654,3.5654);
};
layerId = "1D9F00D6-E453-4E3D-AD00-EA7925801AD9";
name = "10 mars 25 à 12:16";
shapes = (
{
closed = 1;
nodes = (
(391,381,l),
(363,430,o),
(319,456,o),
(274,456,cs),
(187,456,o),
(151,382,o),
(151,276,cs),
(151,130,o),
(223,42,o),
(310,42,cs),
(364,42,o),
(397,71,o),
(414,119,c),
(421,144,o),
(441,150,o),
(458,144,cs),
(478,137,o),
(483,107,o),
(474,91,c),
(438,26,o),
(378,-18,o),
(298,-18,cs),
(171,-18,o),
(68,103,o),
(68,247,cs),
(68,387,o),
(151,516,o),
(286,516,cs),
(377,516,o),
(453,453,o),
(489,365,c),
(140,227,l),
(142,295,l)
);
},
{
closed = 0;
nodes = (
(429,224,l)
);
}
);
width = 600;
},
{
associatedMasterId = m01;
backgroundImage = {
imagePath = "LETTRE/e copie.png";
locked = 1;
pos = (61,-35);
scale = (3.5654,3.5654);
};
layerId = "6B861466-5398-45DB-91A5-07962A42E1CD";
name = "10 mars 25 à 12:18";
shapes = (
{
closed = 1;
nodes = (
(391,381,l),
(363,430,o),
(319,456,o),
(274,456,cs),
(187,456,o),
(151,382,o),
(151,276,cs),
(151,130,o),
(223,42,o),
(310,42,cs),
(364,42,o),
(397,71,o),
(414,119,c),
(421,144,o),
(441,150,o),
(458,144,cs),
(478,137,o),
(483,107,o),
(474,91,c),
(438,26,o),
(378,-18,o),
(298,-18,cs),
(171,-18,o),
(68,103,o),
(68,247,cs),
(68,387,o),
(151,516,o),
(286,516,cs),
(374,516,o),
(449,456,o),
(486,372,cs),
(486,372,o),
(489,364,o),
(486,362,cs),
(480,359,o),
(486,362,o),
(480,359,c),
(140,227,l),
(142,295,l)
);
},
{
closed = 0;
nodes = (
(429,224,l)
);
},
{
closed = 0;
nodes = (
(385,390,ls),
(385,390,o),
(388,382,o),
(385,380,cs),
(379,377,o),
(385,380,o),
(379,377,c)
);
}
);
width = 600;
},
{
associatedMasterId = m01;
backgroundImage = {
imagePath = "LETTRE/e copie.png";
locked = 1;
pos = (25,-35);
scale = (3.5654,3.5654);
};
layerId = "83881356-DC3E-40B7-BD49-D5DEE8CCDD6D";
name = "10 mars 25 à 18:27";
shapes = (
{
closed = 0;
nodes = (
(393,224,l)
);
},
{
closed = 1;
nodes = (
(342,378,o),
(342,378,o),
(351,382,cs),
(354,383,o),
(349,391,o),
(349,391,c),
(321,434,o),
(280,456,o),
(238,456,cs),
(151,456,o),
(115,382,o),
(115,276,cs),
(115,130,o),
(187,42,o),
(274,42,cs),
(328,42,o),
(361,71,o),
(378,119,c),
(385,144,o),
(405,150,o),
(422,144,cs),
(442,137,o),
(447,107,o),
(438,91,c),
(402,26,o),
(342,-18,o),
(262,-18,cs),
(135,-18,o),
(32,103,o),
(32,247,cs),
(32,387,o),
(115,516,o),
(250,516,cs),
(338,516,o),
(417,454,o),
(454,363,cs),
(454,363,o),
(457,355,o),
(454,353,cs),
(448,350,o),
(454,353,o),
(448,350,c),
(104,228,l),
(106,295,l),
(333,374,l)
);
}
);
width = 504;
},
{
associatedMasterId = m01;
backgroundImage = {
imagePath = "LETTRE/e copie.png";
locked = 1;
pos = (25,-35);
scale = (3.5654,3.5654);
};
layerId = "4831CA10-0663-4693-B64E-2CE0D6E7038D";
name = "11 mars 25 à 15:25";
shapes = (
{
closed = 1;
nodes = (
(402,26,o),
(342,-18,o),
(262,-18,cs),
(135,-18,o),
(32,103,o),
(32,247,cs),
(32,387,o),
(115,516,o),
(250,516,cs),
(338,516,o),
(417,454,o),
(454,363,cs),
(454,363,o),
(457,355,o),
(454,353,cs),
(448,350,o),
(454,353,o),
(448,350,c),
(104,228,l),
(106,295,l),
(333,374,l),
(342,378,o),
(342,378,o),
(351,382,cs),
(354,383,o),
(349,391,o),
(349,391,c),
(321,434,o),
(280,456,o),
(238,456,cs),
(151,456,o),
(115,382,o),
(115,276,cs),
(115,130,o),
(187,42,o),
(274,42,cs),
(328,42,o),
(361,71,o),
(378,119,c),
(438,91,l)
);
}
);
width = 504;
},
{
associatedMasterId = m01;
layerId = "43C0444A-ACF6-4B87-AB1E-F62B8CD502F8";
name = "17 mars 25 à 10:55";
shapes = (
{
closed = 1;
nodes = (
(347,44,o),
(383,78,o),
(400,105,cs),
(412,124,o),
(418,132,o),
(432,132,cs),
(444,132,o),
(450,122,o),
(450,109,cs),
(450,50,o),
(365,-16,o),
(269,-16,cs),
(142,-16,o),
(40,103,o),
(40,247,cs),
(40,387,o),
(123,516,o),
(258,516,cs),
(346,516,o),
(425,454,o),
(462,363,cs),
(462,363,o),
(465,355,o),
(462,353,cs),
(456,350,o),
(462,353,o),
(456,350,c),
(112,228,l),
(114,295,l),
(341,374,l),
(350,378,o),
(350,378,o),
(359,382,cs),
(362,383,o),
(357,391,o),
(357,391,c),
(329,434,o),
(288,456,o),
(246,456,cs),
(159,456,o),
(123,382,o),
(123,276,cs),
(123,130,o),
(197,44,o),
(284,44,cs)
);
}
);
width = 531;
},
{
associatedMasterId = m01;
layerId = "63531D62-B962-49B1-92AE-8ABAAC884F41";
name = "17 mars 25 à 10:57";
shapes = (
{
closed = 1;
nodes = (
(129,456,o),
(96,390,o),
(96,285,cs),
(96,159,o),
(141,44,o),
(267,44,cs),
(330,44,o),
(366,78,o),
(383,105,cs),
(395,124,o),
(401,132,o),
(415,132,cs),
(427,132,o),
(433,122,o),
(433,109,cs),
(433,50,o),
(348,-16,o),
(252,-16,cs),
(87,-16,o),
(13,99,o),
(13,264,cs),
(13,402,o),
(120,516,o),
(258,516,cs),
(346,516,o),
(425,454,o),
(462,363,cs),
(462,363,o),
(465,355,o),
(462,353,cs),
(456,350,o),
(462,353,o),
(456,350,c),
(92,218,l),
(94,285,l),
(341,374,l),
(350,378,o),
(350,378,o),
(359,382,cs),
(362,383,o),
(357,391,o),
(357,391,c),
(329,434,o),
(292,456,o),
(234,456,cs)
);
}
);
width = 531;
},
{
associatedMasterId = m01;
background = {
shapes = (
{
closed = 1;
nodes = (
(427,132,o),
(433,122,o),
(433,109,cs),
(433,50,o),
(348,-16,o),
(252,-16,cs),
(87,-16,o),
(13,99,o),
(13,264,cs),
(13,402,o),
(120,516,o),
(258,516,cs),
(343,516,o),
(425,466,o),
(425,392,cs),
(425,367,o),
(408,343,o),
(373,343,cs),
(304,343,o),
(360,456,o),
(234,456,cs),
(129,456,o),
(96,390,o),
(96,285,cs),
(96,159,o),
(141,44,o),
(267,44,cs),
(330,44,o),
(366,78,o),
(383,105,cs),
(395,124,o),
(401,132,o),
(415,132,cs)
);
}
);
};
layerId = "F49B3996-BAFC-448B-B044-7A33EDA4A71E";
name = "17 mars 25 à 11:00";
shapes = (
{
closed = 1;
nodes = (
(132,456,o),
(96,390,o),
(96,285,cs),
(96,159,o),
(141,44,o),
(267,44,cs),
(330,44,o),
(366,78,o),
(383,105,cs),
(395,124,o),
(401,132,o),
(415,132,cs),
(427,132,o),
(433,122,o),
(433,109,cs),
(433,50,o),
(348,-16,o),
(252,-16,cs),
(87,-16,o),
(13,99,o),
(13,264,cs),
(13,402,o),
(124,516,o),
(248,516,cs),
(372,516,o),
(416,456,o),
(452,363,cs),
(452,363,o),
(455,355,o),
(452,353,cs),
(446,350,o),
(452,353,o),
(446,350,c),
(92,218,l),
(94,285,l),
(331,374,l),
(340,378,o),
(340,378,o),
(349,382,cs),
(352,383,o),
(347,391,o),
(347,391,c),
(319,434,o),
(282,456,o),
(224,456,cs)
);
},
{
closed = 1;
nodes = (
(427,132,o),
(433,122,o),
(433,109,cs),
(433,50,o),
(348,-16,o),
(252,-16,cs),
(87,-16,o),
(13,99,o),
(13,264,cs),
(13,402,o),
(120,516,o),
(258,516,cs),
(343,516,o),
(425,466,o),
(425,392,cs),
(425,367,o),
(408,343,o),
(373,343,cs),
(304,343,o),
(360,456,o),
(234,456,cs),
(129,456,o),
(96,390,o),
(96,285,cs),
(96,159,o),
(141,44,o),
(267,44,cs),
(330,44,o),
(366,78,o),
(383,105,cs),
(395,124,o),
(401,132,o),
(415,132,cs)
);
}
);
width = 531;
},
{
associatedMasterId = m01;
background = {
shapes = (
{
closed = 1;
nodes = (
(427,132,o),
(433,122,o),
(433,109,cs),
(433,50,o),
(348,-16,o),
(252,-16,cs),
(87,-16,o),
(13,99,o),
(13,264,cs),
(13,402,o),
(120,516,o),
(258,516,cs),
(343,516,o),
(425,466,o),
(425,392,cs),
(425,367,o),
(408,343,o),
(373,343,cs),
(304,343,o),
(360,456,o),
(234,456,cs),
(129,456,o),
(96,390,o),
(96,285,cs),
(96,159,o),
(141,44,o),
(267,44,cs),
(330,44,o),
(366,78,o),
(383,105,cs),
(395,124,o),
(401,132,o),
(415,132,cs)
);
}
);
};
layerId = "E92D5F5C-0865-4797-A301-EA391B3B61F0";
name = "17 mars 25 à 11:58";
shapes = (
{
closed = 1;
nodes = (
(92,218,l),
(446,350,l),
(452,353,o),
(446,350,o),
(452,353,cs),
(455,355,o),
(452,363,o),
(452,363,cs),
(416,456,o),
(372,516,o),
(248,516,cs),
(124,516,o),
(13,402,o),
(13,264,cs),
(13,99,o),
(87,-16,o),
(252,-16,cs),
(348,-16,o),
(433,50,o),
(433,109,cs),
(433,122,o),
(427,132,o),
(415,132,cs),
(401,132,o),
(395,124,o),
(383,105,cs),
(366,78,o),
(330,44,o),
(267,44,cs),
(141,44,o),
(96,159,o),
(96,285,cs),
(96,390,o),
(128,456,o),
(239,456,cs),
(296,456,o),
(343,406,o),
(351,382,c),
(94,285,l)
);
}
);
width = 531;
},
{
associatedMasterId = m01;
background = {
shapes = (
{
closed = 1;
nodes = (
(444,132,o),
(450,122,o),
(450,109,cs),
(450,50,o),
(365,-16,o),
(269,-16,cs),
(104,-16,o),
(30,99,o),
(30,264,cs),
(30,402,o),
(137,516,o),
(275,516,cs),
(360,516,o),
(442,466,o),
(442,392,cs),
(442,367,o),
(425,343,o),
(390,343,cs),
(321,343,o),
(377,456,o),
(251,456,cs),
(146,456,o),
(113,390,o),
(113,285,cs),
(113,159,o),
(158,44,o),
(284,44,cs),
(347,44,o),
(383,78,o),
(400,105,cs),
(412,124,o),
(418,132,o),
(432,132,cs)
);
}
);
};
layerId = "719454CE-7C80-40BA-A3EC-5AA66F76F516";
name = "24 mars 25 à 10:59";
shapes = (
{
closed = 1;
nodes = (
(109,218,l),
(453,350,l),
(459,353,o),
(453,350,o),
(459,353,cs),
(462,355,o),
(459,363,o),
(459,363,cs),
(423,456,o),
(379,516,o),
(255,516,cs),
(142,516,o),
(30,402,o),
(30,264,cs),
(30,99,o),
(94,-16,o),
(259,-16,cs),
(355,-16,o),
(440,50,o),
(440,109,cs),
(440,122,o),
(434,132,o),
(422,132,cs),
(408,132,o),
(402,124,o),
(390,105,cs),
(373,78,o),
(337,44,o),
(274,44,cs),
(166,44,o),
(113,149,o),
(113,285,cs),
(113,378,o),
(139,456,o),
(246,456,cs),
(303,456,o),
(350,406,o),
(358,382,c),
(111,285,l)
);
}
);
width = 490;
},
{
associatedMasterId = m01;
layerId = "A698AF83-312D-43D9-931F-08841DEECA9D";
name = "14 avr. 25 à 09:25";
shapes = (
{
closed = 1;
nodes = (
(92,-16,o),
(38,89,o),
(38,254,cs),
(38,392,o),
(150,516,o),
(263,516,cs),
(387,516,o),
(431,456,o),
(467,363,cs),
(467,363,o),
(470,355,o),
(467,353,cs),
(461,350,o),
(467,353,o),
(461,350,c),
(117,218,l),
(119,285,l),
(366,382,l),
(358,406,o),
(311,456,o),
(254,456,cs),
(147,456,o),
(121,378,o),
(121,285,cs),
(121,149,o),
(164,44,o),
(292,44,cs),
(361,44,o),
(407,96,o),
(430,130,c),
(458,104,l),
(423,49,o),
(366,-16,o),
(277,-16,cs)
);
}
);
width = 498;
},
{
anchors = (
{
name = bottom;
pos = (249,0);
},
{
name = top;
pos = (249,500);
}
);
associatedMasterId = m01;
layerId = "8890EE71-5495-4973-8275-7E171D334819";
name = "14 avr. 25 à 11:02";
shapes = (
{
closed = 1;
nodes = (
(92,-16,o),
(38,89,o),
(38,254,cs),
(38,392,o),
(150,516,o),
(263,516,cs),
(387,516,o),
(445,428,o),
(467,377,cs),
(467,377,o),
(470,369,o),
(467,367,cs),
(461,364,o),
(467,367,o),
(461,364,c),
(117,232,l),
(119,285,l),
(366,382,l),
(358,406,o),
(311,456,o),
(254,456,cs),
(147,456,o),
(121,378,o),
(121,285,cs),
(121,149,o),
(164,44,o),
(292,44,cs),
(361,44,o),
(407,96,o),
(430,130,c),
(458,104,l),
(423,49,o),
(366,-16,o),
(277,-16,cs)
);
}
);
width = 498;
}
);
metricLeft = o;
metricRight = o;
unicode = 101;
},
{
color = 5;
glyphname = f;
lastChange = "2025-04-19 09:57:37 +0000";
layers = (
{
layerId = m01;
shapes = (
{
closed = 1;
nodes = (
(120,453,l),
(120,68,l),
(58,68,ls),
(49,68,o),
(45,64,o),
(45,55,cs),
(45,13,ls),
(45,4,o),
(49,0,o),
(58,0,cs),
(272,0,ls),
(281,0,o),
(285,4,o),
(285,13,cs),
(285,55,ls),
(285,64,o),
(281,68,o),
(272,68,cs),
(200,68,l),
(200,453,l)
);
},
{
closed = 1;
nodes = (
(49,500,o),
(45,496,o),
(45,487,cs),
(45,453,ls),
(45,444,o),
(49,440,o),
(58,440,cs),
(280,440,ls),
(289,440,o),
(293,444,o),
(293,453,cs),
(293,487,ls),
(293,496,o),
(289,500,o),
(280,500,cs),
(58,500,ls)
);
},
{
closed = 1;
nodes = (
(206,693,o),
(212,716,o),
(242,716,cs),
(267,716,o),
(289,710,o),
(290,647,c),
(320,647,o),
(352,668,o),
(352,698,cs),
(352,728,o),
(330,776,o),
(242,776,cs),
(168,776,o),
(126,693,o),
(126,628,cs),
(126,480,l),
(206,480,l),
(206,643,ls)
);
}
);
width = 357;
},
{
associatedMasterId = m01;
backgroundImage = {
imagePath = "LETTRE/f.png";
pos = (-359,0);
};
layerId = "A70FD7EF-3BEC-45F9-86C7-BDEB2BD82E3B";
name = "10 mars 25 à 14:22";
shapes = (
{
closed = 1;
nodes = (
(408,624,o),
(493,650,o),
(507,683,cs),
(519,711,o),
(515,776,o),
(402,776,cs),
(326,776,o),
(262,698,o),
(262,592,c),
(262,480,l),
(342,480,l),
(342,500,o),
(342,571,o),
(342,592,c),
(342,670,o),
(382,711,o),
(402,708,c)
);
},
{
closed = 1;
nodes = (
(256,445,l),
(256,68,l),
(194,68,ls),
(185,68,o),
(181,64,o),
(181,55,cs),
(181,13,ls),
(181,4,o),
(185,0,o),
(194,0,cs),
(398,0,ls),
(407,0,o),
(411,4,o),
(411,13,cs),
(411,55,ls),
(411,64,o),
(407,68,o),
(398,68,cs),
(336,68,l),
(336,445,l)
);
},
{
closed = 1;
nodes = (
(185,500,o),
(181,496,o),
(181,487,cs),
(181,445,ls),
(181,436,o),
(185,432,o),
(194,432,cs),
(398,432,ls),
(407,432,o),
(411,436,o),
(411,445,cs),
(411,487,ls),
(411,496,o),
(407,500,o),
(398,500,cs),
(194,500,ls)
);
}
);
width = 600;
},
{
associatedMasterId = m01;
layerId = "D9E68B65-D558-47D0-8F37-11794162A237";
name = "11 mars 25 à 15:39";
shapes = (
{
closed = 1;
nodes = (
(280,624,o),
(365,650,o),
(379,683,cs),
(391,711,o),
(387,776,o),
(274,776,cs),
(198,776,o),
(134,698,o),
(134,592,c),
(134,480,l),
(214,480,l),
(214,500,o),
(214,571,o),
(214,592,c),
(214,670,o),
(254,711,o),
(274,708,c)
);
},
{
closed = 1;
nodes = (
(128,445,l),
(128,68,l),
(66,68,ls),
(57,68,o),
(53,64,o),
(53,55,cs),
(53,13,ls),
(53,4,o),
(57,0,o),
(66,0,cs),
(270,0,ls),
(279,0,o),
(283,4,o),
(283,13,cs),
(283,55,ls),
(283,64,o),
(279,68,o),
(270,68,cs),
(208,68,l),
(208,445,l)
);
},
{
closed = 1;
nodes = (
(57,500,o),
(53,496,o),
(53,487,cs),
(53,445,ls),
(53,436,o),
(57,432,o),
(66,432,cs),
(284,432,ls),
(293,432,o),
(297,436,o),
(297,445,cs),
(297,487,ls),
(297,496,o),
(293,500,o),
(284,500,cs),
(66,500,ls)
);
}
);
width = 319;
},
{
associatedMasterId = m01;
layerId = "5C6B5004-7DD9-4CC0-A422-249909E8DA17";
name = "17 mars 25 à 10:20";
shapes = (
{
closed = 1;
nodes = (
(321,716,o),
(280,653,o),
(319,653,cs),
(354,653,o),
(371,677,o),
(371,702,cs),
(371,754,o),
(339,776,o),
(274,776,cs),
(201,776,o),
(134,706,o),
(134,620,c),
(134,480,l),
(214,480,l),
(214,500,o),
(214,632,o),
(214,653,c),
(214,675,o),
(215,716,o),
(250,716,cs)
);
},
{
closed = 1;
nodes = (
(128,453,l),
(128,68,l),
(66,68,ls),
(57,68,o),
(53,64,o),
(53,55,cs),
(53,13,ls),
(53,4,o),
(57,0,o),
(66,0,cs),
(290,0,ls),
(299,0,o),
(303,4,o),
(303,13,cs),
(303,55,ls),
(303,64,o),
(299,68,o),
(290,68,cs),
(208,68,l),
(208,453,l)
);
},
{
closed = 1;
nodes = (
(57,500,o),
(53,496,o),
(53,487,cs),
(53,453,ls),
(53,444,o),
(57,440,o),
(66,440,cs),
(304,440,ls),
(313,440,o),
(317,444,o),
(317,453,cs),
(317,487,ls),
(317,496,o),
(313,500,o),
(304,500,cs),
(66,500,ls)
);
}
);
width = 342;
},
{
associatedMasterId = m01;
layerId = "C7B3D5A3-0661-427B-883C-5A4728175B44";
name = "17 mars 25 à 11:40";
shapes = (
{
closed = 1;
nodes = (
(290,0,ls),
(299,0,o),
(303,4,o),
(303,13,cs),
(303,55,ls),
(303,64,o),
(299,68,o),
(290,68,cs),
(208,68,l),
(208,440,l),
(304,440,ls),
(313,440,o),
(317,444,o),
(317,453,cs),
(317,487,ls),
(317,496,o),
(313,500,o),
(304,500,cs),
(214,500,l),
(214,644,l),
(209,700,o),
(224,716,o),
(257,716,cs),
(284,716,o),
(299,688,o),
(308,651,c),
(343,651,o),
(379,673,o),
(379,708,cs),
(379,748,o),
(337,776,o),
(280,776,cs),
(194,776,o),
(134,696,o),
(134,610,cs),
(134,500,l),
(66,500,ls),
(57,500,o),
(53,496,o),
(53,487,cs),
(53,453,ls),
(53,444,o),
(57,440,o),
(66,440,cs),
(128,440,l),
(128,68,l),
(66,68,ls),
(57,68,o),
(53,64,o),
(53,55,cs),
(53,13,ls),
(53,4,o),
(57,0,o),
(66,0,cs)
);
}
);
width = 342;
},
{
associatedMasterId = m01;
layerId = "AFF5DFDE-E41A-4C4D-B57C-6927BC1B4F7B";
name = "17 mars 25 à 11:42";
shapes = (
{
closed = 1;
nodes = (
(295,716,o),
(292,663,o),
(319,663,cs),
(341,663,o),
(371,677,o),
(371,702,cs),
(371,737,o),
(350,776,o),
(274,776,cs),
(201,776,o),
(134,706,o),
(134,620,c),
(134,480,l),
(214,480,l),
(214,500,o),
(214,632,o),
(214,653,c),
(214,675,o),
(215,716,o),
(250,716,cs)
);
},
{
closed = 1;
nodes = (
(128,453,l),
(128,68,l),
(66,68,ls),
(57,68,o),
(53,64,o),
(53,55,cs),
(53,13,ls),
(53,4,o),
(57,0,o),
(66,0,cs),
(280,0,ls),
(289,0,o),
(293,4,o),
(293,13,cs),
(293,55,ls),
(293,64,o),
(289,68,o),
(280,68,cs),
(208,68,l),
(208,453,l)
);
},
{
closed = 1;
nodes = (
(57,500,o),
(53,496,o),
(53,487,cs),
(53,453,ls),
(53,444,o),
(57,440,o),
(66,440,cs),
(294,440,ls),
(303,440,o),
(307,444,o),
(307,453,cs),
(307,487,ls),
(307,496,o),
(303,500,o),
(294,500,cs),
(66,500,ls)
);
}
);
width = 342;
},
{
associatedMasterId = m01;
layerId = "6217E960-6869-47D9-BACF-8952ED9E9A08";
name = "24 mars 25 à 11:21";
shapes = (
{
closed = 1;
nodes = (
(289,716,o),
(294,663,o),
(322,663,cs),
(345,663,o),
(368,679,o),
(368,702,cs),
(368,721,o),
(350,776,o),
(274,776,cs),
(201,776,o),
(134,706,o),
(134,620,c),
(134,480,l),
(214,480,l),
(214,500,o),
(214,632,o),
(214,653,c),
(214,675,o),
(215,716,o),
(250,716,cs)
);
},
{
closed = 1;
nodes = (
(128,453,l),
(128,68,l),
(66,68,ls),
(57,68,o),
(53,64,o),
(53,55,cs),
(53,13,ls),
(53,4,o),
(57,0,o),
(66,0,cs),
(280,0,ls),
(289,0,o),
(293,4,o),
(293,13,cs),
(293,55,ls),
(293,64,o),
(289,68,o),
(280,68,cs),
(208,68,l),
(208,453,l)
);
},
{
closed = 1;
nodes = (
(57,500,o),
(53,496,o),
(53,487,cs),
(53,453,ls),
(53,444,o),
(57,440,o),
(66,440,cs),
(294,440,ls),
(303,440,o),
(307,444,o),
(307,453,cs),
(307,487,ls),
(307,496,o),
(303,500,o),
(294,500,cs),
(66,500,ls)
);
}
);
width = 348;
},
{
associatedMasterId = m01;
layerId = "AB691416-D806-449F-837E-E23E790D2CC9";
name = "24 mars 25 à 11:52";
shapes = (
{
closed = 1;
nodes = (
(128,453,l),
(128,68,l),
(66,68,ls),
(57,68,o),
(53,64,o),
(53,55,cs),
(53,13,ls),
(53,4,o),
(57,0,o),
(66,0,cs),
(280,0,ls),
(289,0,o),
(293,4,o),
(293,13,cs),
(293,55,ls),
(293,64,o),
(289,68,o),
(280,68,cs),
(208,68,l),
(208,453,l)
);
},
{
closed = 1;
nodes = (
(57,500,o),
(53,496,o),
(53,487,cs),
(53,453,ls),
(53,444,o),
(57,440,o),
(66,440,cs),
(294,440,ls),
(303,440,o),
(307,444,o),
(307,453,cs),
(307,487,ls),
(307,496,o),
(303,500,o),
(294,500,cs),
(66,500,ls)
);
},
{
closed = 1;
nodes = (
(214,681,o),
(208,716,o),
(250,716,cs),
(280,716,o),
(299,697,o),
(306,648,c),
(335,648,o),
(367,675,o),
(367,708,cs),
(367,732,o),
(340,776,o),
(258,776,cs),
(185,776,o),
(134,708,o),
(134,628,cs),
(134,480,l),
(214,480,l),
(214,653,ls)
);
}
);
width = 348;
},
{
associatedMasterId = m01;
layerId = "D58491C1-7DE2-4EE4-A204-8C536DF3F477";
name = "24 mars 25 à 11:54";
shapes = (
{
closed = 1;
nodes = (
(128,453,l),
(128,68,l),
(66,68,ls),
(57,68,o),
(53,64,o),
(53,55,cs),
(53,13,ls),
(53,4,o),
(57,0,o),
(66,0,cs),
(280,0,ls),
(289,0,o),
(293,4,o),
(293,13,cs),
(293,55,ls),
(293,64,o),
(289,68,o),
(280,68,cs),
(208,68,l),
(208,453,l)
);
},
{
closed = 1;
nodes = (
(57,500,o),
(53,496,o),
(53,487,cs),
(53,453,ls),
(53,444,o),
(57,440,o),
(66,440,cs),
(299,440,ls),
(308,440,o),
(312,444,o),
(312,453,cs),
(312,487,ls),
(312,496,o),
(308,500,o),
(299,500,cs),
(66,500,ls)
);
},
{
closed = 1;
nodes = (
(214,681,o),
(210,716,o),
(250,716,cs),
(280,716,o),
(294,706,o),
(301,657,c),
(335,657,o),
(363,675,o),
(363,708,cs),
(363,732,o),
(340,776,o),
(258,776,cs),
(185,776,o),
(134,708,o),
(134,628,cs),
(134,480,l),
(214,480,l),
(214,643,ls)
);
}
);
width = 348;
},
{
associatedMasterId = m01;
layerId = "CAE12479-A8F0-46DE-8642-6A617A4A7A58";
name = "10 avr. 25 à 11:40";
shapes = (
{
closed = 1;
nodes = (
(128,453,l),
(128,68,l),
(66,68,ls),
(57,68,o),
(53,64,o),
(53,55,cs),
(53,13,ls),
(53,4,o),
(57,0,o),
(66,0,cs),
(280,0,ls),
(289,0,o),
(293,4,o),
(293,13,cs),
(293,55,ls),
(293,64,o),
(289,68,o),
(280,68,cs),
(208,68,l),
(208,453,l)
);
},
{
closed = 1;
nodes = (
(57,500,o),
(53,496,o),
(53,487,cs),
(53,453,ls),
(53,444,o),
(57,440,o),
(66,440,cs),
(288,440,ls),
(297,440,o),
(301,444,o),
(301,453,cs),
(301,487,ls),
(301,496,o),
(297,500,o),
(288,500,cs),
(66,500,ls)
);
},
{
closed = 1;
nodes = (
(214,693,o),
(220,716,o),
(250,716,cs),
(270,716,o),
(289,714,o),
(298,657,c),
(328,657,o),
(360,678,o),
(360,708,cs),
(360,738,o),
(338,776,o),
(258,776,cs),
(193,776,o),
(134,693,o),
(134,628,cs),
(134,480,l),
(214,480,l),
(214,643,ls)
);
}
);
width = 348;
}
);
metricLeft = n;
metricRight = "=n-40";
unicode = 102;
},
